<svg xmlns="http://www.w3.org/2000/svg" width="354.7" height="308.2" viewBox="0 0 354.7 308.2" font-family="Arial, Helvetica, sans-serif">
  <rect width="100%" height="100%" fill="white"/>
  <polygon points="23.0,359.6 61.8,326.2 47.4,294.6" fill="none" stroke="#e8e8e8" stroke-width="0.3"/>
  <polygon points="23.0,359.6 47.4,294.6 11.5,361.3" fill="none" stroke="#e8e8e8" stroke-width="0.3"/>
  <polygon points="324.1,288.7 324.2,280.0 268.9,322.2" fill="none" stroke="#e8e8e8" stroke-width="0.3"/>
  <polygon points="-38.6,294.6 11.5,361.3 47.4,294.6" fill="none" stroke="#e8e8e8" stroke-width="0.3"/>
  <polygon points="85.4,292.8 61.8,326.2 85.4,318.8" fill="none" stroke="#e8e8e8" stroke-width="0.3"/>
  <polygon points="206.3,323.1 179.9,285.2 195.8,326.2" fill="none" stroke="#e8e8e8" stroke-width="0.3"/>
  <polygon points="179.9,285.2 123.4,318.8 195.8,326.2" fill="none" stroke="#e8e8e8" stroke-width="0.3"/>
  <polygon points="268.9,322.2 324.2,280.0 324.2,254.0" fill="none" stroke="#e8e8e8" stroke-width="0.3"/>
  <polygon points="-47.5,315.4 11.5,361.3 -38.6,294.6" fill="none" stroke="#e8e8e8" stroke-width="0.3"/>
  <polygon points="47.4,294.6 61.8,326.2 85.4,292.8" fill="none" stroke="#e8e8e8" stroke-width="0.3"/>
  <polygon points="324.1,288.7 268.9,322.2 324.1,314.7" fill="none" stroke="#e8e8e8" stroke-width="0.3"/>
  <polygon points="194.4,251.8 206.3,323.1 260.3,323.1" fill="none" stroke="#e8e8e8" stroke-width="0.3"/>
  <polygon points="123.4,292.8 123.4,318.8 179.9,285.2" fill="none" stroke="#e8e8e8" stroke-width="0.3"/>
  <polygon points="123.4,292.8 179.9,285.2 125.9,285.2" fill="none" stroke="#e8e8e8" stroke-width="0.3"/>
  <polygon points="85.4,292.8 123.4,292.8 125.9,285.2" fill="none" stroke="#e8e8e8" stroke-width="0.3"/>
  <polygon points="125.9,259.2 85.4,292.8 125.9,285.2" fill="none" stroke="#e8e8e8" stroke-width="0.3"/>
  <polygon points="47.4,268.6 47.4,294.6 85.4,292.8" fill="none" stroke="#e8e8e8" stroke-width="0.3"/>
  <polygon points="228.3,218.3 268.9,322.2 324.2,254.0" fill="none" stroke="#e8e8e8" stroke-width="0.3"/>
  <polygon points="394.2,280.0 324.2,280.0 394.1,288.7" fill="none" stroke="#e8e8e8" stroke-width="0.3"/>
  <polygon points="324.2,280.0 324.1,288.7 394.1,288.7" fill="none" stroke="#e8e8e8" stroke-width="0.3"/>
  <polygon points="206.3,323.1 194.4,251.8 179.9,285.2" fill="none" stroke="#e8e8e8" stroke-width="0.3"/>
  <polygon points="-38.6,268.6 47.4,268.6 -14.8,261.2" fill="none" stroke="#e8e8e8" stroke-width="0.3"/>
  <polygon points="47.4,268.6 85.4,292.8 125.9,259.2" fill="none" stroke="#e8e8e8" stroke-width="0.3"/>
  <polygon points="228.3,218.3 260.3,323.1 268.9,322.2" fill="none" stroke="#e8e8e8" stroke-width="0.3"/>
  <polygon points="179.9,259.2 179.9,285.2 194.4,251.8" fill="none" stroke="#e8e8e8" stroke-width="0.3"/>
  <polygon points="125.9,259.2 179.9,259.2 140.4,251.8" fill="none" stroke="#e8e8e8" stroke-width="0.3"/>
  <polygon points="140.4,251.8 179.9,259.2 194.4,251.8" fill="none" stroke="#e8e8e8" stroke-width="0.3"/>
  <polygon points="140.4,251.8 140.4,225.8 125.9,259.2" fill="none" stroke="#e8e8e8" stroke-width="0.3"/>
  <polygon points="140.4,225.8 50.2,207.4 125.9,259.2" fill="none" stroke="#e8e8e8" stroke-width="0.3"/>
  <polygon points="-14.8,261.2 47.4,268.6 -14.8,235.2" fill="none" stroke="#e8e8e8" stroke-width="0.3"/>
  <polygon points="194.4,251.8 260.3,323.1 228.3,218.3" fill="none" stroke="#e8e8e8" stroke-width="0.3"/>
  <polygon points="50.2,207.4 47.4,268.6 125.9,259.2" fill="none" stroke="#e8e8e8" stroke-width="0.3"/>
  <polygon points="394.2,254.0 374.8,172.6 324.2,254.0" fill="none" stroke="#e8e8e8" stroke-width="0.3"/>
  <polygon points="228.3,218.3 194.4,225.8 194.4,251.8" fill="none" stroke="#e8e8e8" stroke-width="0.3"/>
  <polygon points="182.3,218.3 194.4,225.8 228.3,218.3" fill="none" stroke="#e8e8e8" stroke-width="0.3"/>
  <polygon points="140.4,225.8 194.4,225.8 182.3,218.3" fill="none" stroke="#e8e8e8" stroke-width="0.3"/>
  <polygon points="-14.8,235.2 47.4,268.6 50.2,207.4" fill="none" stroke="#e8e8e8" stroke-width="0.3"/>
  <polygon points="-14.8,235.2 50.2,207.4 -3.8,207.4" fill="none" stroke="#e8e8e8" stroke-width="0.3"/>
  <polygon points="297.6,172.8 228.3,218.3 324.2,254.0" fill="none" stroke="#e8e8e8" stroke-width="0.3"/>
  <polygon points="140.4,225.8 182.3,218.3 182.3,192.3" fill="none" stroke="#e8e8e8" stroke-width="0.3"/>
  <polygon points="50.2,207.4 140.4,225.8 128.9,176.9" fill="none" stroke="#e8e8e8" stroke-width="0.3"/>
  <polygon points="58.9,176.9 50.2,207.4 128.9,176.9" fill="none" stroke="#e8e8e8" stroke-width="0.3"/>
  <polygon points="128.9,176.9 140.4,225.8 182.3,192.3" fill="none" stroke="#e8e8e8" stroke-width="0.3"/>
  <polygon points="50.2,181.4 50.2,207.4 58.9,176.9" fill="none" stroke="#e8e8e8" stroke-width="0.3"/>
  <polygon points="243.6,172.8 228.3,218.3 297.6,172.8" fill="none" stroke="#e8e8e8" stroke-width="0.3"/>
  <polygon points="228.3,192.3 228.3,218.3 243.6,172.8" fill="none" stroke="#e8e8e8" stroke-width="0.3"/>
  <polygon points="320.8,172.6 324.2,254.0 374.8,172.6" fill="none" stroke="#e8e8e8" stroke-width="0.3"/>
  <polygon points="297.6,172.8 324.2,254.0 320.8,172.6" fill="none" stroke="#e8e8e8" stroke-width="0.3"/>
  <polygon points="-3.8,181.4 50.2,181.4 1.4,166.6" fill="none" stroke="#e8e8e8" stroke-width="0.3"/>
  <polygon points="-12.6,174.0 -3.8,181.4 1.4,166.6" fill="none" stroke="#e8e8e8" stroke-width="0.3"/>
  <polygon points="-60.6,166.6 -12.6,174.0 1.4,166.6" fill="none" stroke="#e8e8e8" stroke-width="0.3"/>
  <polygon points="128.9,176.9 182.3,192.3 156.3,137.6" fill="none" stroke="#e8e8e8" stroke-width="0.3"/>
  <polygon points="50.2,181.4 58.9,176.9 58.9,150.9" fill="none" stroke="#e8e8e8" stroke-width="0.3"/>
  <polygon points="23.0,143.4 50.2,181.4 58.9,150.9" fill="none" stroke="#e8e8e8" stroke-width="0.3"/>
  <polygon points="297.6,172.8 320.8,172.6 297.6,146.8" fill="none" stroke="#e8e8e8" stroke-width="0.3"/>
  <polygon points="228.3,192.3 243.6,172.8 243.6,146.8" fill="none" stroke="#e8e8e8" stroke-width="0.3"/>
  <polygon points="182.3,192.3 228.3,192.3 243.6,146.8" fill="none" stroke="#e8e8e8" stroke-width="0.3"/>
  <polygon points="227.3,123.3 182.3,192.3 243.6,146.8" fill="none" stroke="#e8e8e8" stroke-width="0.3"/>
  <polygon points="156.3,137.6 128.9,150.9 128.9,176.9" fill="none" stroke="#e8e8e8" stroke-width="0.3"/>
  <polygon points="297.6,146.8 320.8,172.6 320.8,146.6" fill="none" stroke="#e8e8e8" stroke-width="0.3"/>
  <polygon points="58.9,150.9 128.9,150.9 85.0,143.4" fill="none" stroke="#e8e8e8" stroke-width="0.3"/>
  <polygon points="1.4,166.6 50.2,181.4 23.0,143.4" fill="none" stroke="#e8e8e8" stroke-width="0.3"/>
  <polygon points="23.0,143.4 58.9,150.9 85.0,143.4" fill="none" stroke="#e8e8e8" stroke-width="0.3"/>
  <polygon points="1.4,166.6 23.0,143.4 1.4,140.6" fill="none" stroke="#e8e8e8" stroke-width="0.3"/>
  <polygon points="320.8,146.6 374.8,146.6 331.7,139.0" fill="none" stroke="#e8e8e8" stroke-width="0.3"/>
  <polygon points="243.6,146.8 297.6,146.8 269.7,139.0" fill="none" stroke="#e8e8e8" stroke-width="0.3"/>
  <polygon points="269.7,139.0 297.6,146.8 331.7,139.0" fill="none" stroke="#e8e8e8" stroke-width="0.3"/>
  <polygon points="297.6,146.8 320.8,146.6 331.7,139.0" fill="none" stroke="#e8e8e8" stroke-width="0.3"/>
  <polygon points="94.3,137.6 128.9,150.9 156.3,137.6" fill="none" stroke="#e8e8e8" stroke-width="0.3"/>
  <polygon points="85.0,143.4 128.9,150.9 94.3,137.6" fill="none" stroke="#e8e8e8" stroke-width="0.3"/>
  <polygon points="-60.6,140.6 1.4,140.6 -0.5,133.3" fill="none" stroke="#e8e8e8" stroke-width="0.3"/>
  <polygon points="-0.5,133.3 1.4,140.6 23.0,143.4" fill="none" stroke="#e8e8e8" stroke-width="0.3"/>
  <polygon points="94.3,137.6 85.0,117.4 85.0,143.4" fill="none" stroke="#e8e8e8" stroke-width="0.3"/>
  <polygon points="269.7,113.0 243.6,146.8 269.7,139.0" fill="none" stroke="#e8e8e8" stroke-width="0.3"/>
  <polygon points="331.7,139.0 374.8,146.6 340.5,127.4" fill="none" stroke="#e8e8e8" stroke-width="0.3"/>
  <polygon points="340.5,127.4 374.8,146.6 394.5,127.4" fill="none" stroke="#e8e8e8" stroke-width="0.3"/>
  <polygon points="165.3,123.3 182.3,192.3 227.3,123.3" fill="none" stroke="#e8e8e8" stroke-width="0.3"/>
  <polygon points="156.3,137.6 182.3,192.3 165.3,123.3" fill="none" stroke="#e8e8e8" stroke-width="0.3"/>
  <polygon points="-0.5,133.3 23.0,143.4 23.0,117.4" fill="none" stroke="#e8e8e8" stroke-width="0.3"/>
  <polygon points="331.7,139.0 340.5,127.4 331.7,113.0" fill="none" stroke="#e8e8e8" stroke-width="0.3"/>
  <polygon points="227.3,123.3 243.6,146.8 269.7,113.0" fill="none" stroke="#e8e8e8" stroke-width="0.3"/>
  <polygon points="156.3,137.6 165.3,123.3 156.3,111.6" fill="none" stroke="#e8e8e8" stroke-width="0.3"/>
  <polygon points="85.0,117.4 94.3,137.6 94.3,111.6" fill="none" stroke="#e8e8e8" stroke-width="0.3"/>
  <polygon points="-0.5,133.3 23.0,117.4 -0.5,107.3" fill="none" stroke="#e8e8e8" stroke-width="0.3"/>
  <polygon points="94.3,111.6 156.3,111.6 123.8,104.1" fill="none" stroke="#e8e8e8" stroke-width="0.3"/>
  <polygon points="23.0,117.4 85.0,117.4 53.8,104.1" fill="none" stroke="#e8e8e8" stroke-width="0.3"/>
  <polygon points="53.8,104.1 94.3,111.6 123.8,104.1" fill="none" stroke="#e8e8e8" stroke-width="0.3"/>
  <polygon points="53.8,104.1 85.0,117.4 94.3,111.6" fill="none" stroke="#e8e8e8" stroke-width="0.3"/>
  <polygon points="331.7,113.0 340.5,127.4 340.5,101.4" fill="none" stroke="#e8e8e8" stroke-width="0.3"/>
  <polygon points="227.3,123.3 269.7,113.0 227.3,97.3" fill="none" stroke="#e8e8e8" stroke-width="0.3"/>
  <polygon points="156.3,111.6 165.3,123.3 165.3,97.3" fill="none" stroke="#e8e8e8" stroke-width="0.3"/>
  <polygon points="269.7,113.0 331.7,113.0 279.2,89.9" fill="none" stroke="#e8e8e8" stroke-width="0.3"/>
  <polygon points="227.3,97.3 269.7,113.0 279.2,89.9" fill="none" stroke="#e8e8e8" stroke-width="0.3"/>
  <polygon points="217.2,89.9 227.3,97.3 279.2,89.9" fill="none" stroke="#e8e8e8" stroke-width="0.3"/>
  <polygon points="165.3,97.3 227.3,97.3 217.2,89.9" fill="none" stroke="#e8e8e8" stroke-width="0.3"/>
  <polygon points="32.9,79.6 23.0,117.4 53.8,104.1" fill="none" stroke="#e8e8e8" stroke-width="0.3"/>
  <polygon points="340.5,101.4 394.5,101.4 351.2,81.9" fill="none" stroke="#e8e8e8" stroke-width="0.3"/>
  <polygon points="351.2,81.9 403.5,89.4 421.2,81.9" fill="none" stroke="#e8e8e8" stroke-width="0.3"/>
  <polygon points="351.2,81.9 394.5,101.4 403.5,89.4" fill="none" stroke="#e8e8e8" stroke-width="0.3"/>
  <polygon points="-0.5,107.3 23.0,117.4 32.9,79.6" fill="none" stroke="#e8e8e8" stroke-width="0.3"/>
  <polygon points="-13.1,79.6 -0.5,107.3 32.9,79.6" fill="none" stroke="#e8e8e8" stroke-width="0.3"/>
  <polygon points="123.8,104.1 156.3,111.6 165.3,97.3" fill="none" stroke="#e8e8e8" stroke-width="0.3"/>
  <polygon points="134.8,70.7 123.8,104.1 165.3,97.3" fill="none" stroke="#e8e8e8" stroke-width="0.3"/>
  <polygon points="32.9,79.6 53.8,104.1 53.8,78.1" fill="none" stroke="#e8e8e8" stroke-width="0.3"/>
  <polygon points="340.5,101.4 351.2,81.9 342.2,71.5" fill="none" stroke="#e8e8e8" stroke-width="0.3"/>
  <polygon points="288.2,71.5 340.5,101.4 342.2,71.5" fill="none" stroke="#e8e8e8" stroke-width="0.3"/>
  <polygon points="288.2,71.5 331.7,113.0 340.5,101.4" fill="none" stroke="#e8e8e8" stroke-width="0.3"/>
  <polygon points="288.2,71.5 279.2,89.9 331.7,113.0" fill="none" stroke="#e8e8e8" stroke-width="0.3"/>
  <polygon points="288.2,71.5 279.2,63.9 279.2,89.9" fill="none" stroke="#e8e8e8" stroke-width="0.3"/>
  <polygon points="188.8,70.7 165.3,97.3 217.2,89.9" fill="none" stroke="#e8e8e8" stroke-width="0.3"/>
  <polygon points="188.8,70.7 134.8,70.7 165.3,97.3" fill="none" stroke="#e8e8e8" stroke-width="0.3"/>
  <polygon points="134.8,70.7 123.8,78.1 123.8,104.1" fill="none" stroke="#e8e8e8" stroke-width="0.3"/>
  <polygon points="114.7,56.8 123.8,78.1 134.8,70.7" fill="none" stroke="#e8e8e8" stroke-width="0.3"/>
  <polygon points="351.2,55.9 342.2,45.5 342.2,71.5" fill="none" stroke="#e8e8e8" stroke-width="0.3"/>
  <polygon points="53.8,78.1 52.7,56.8 32.9,79.6" fill="none" stroke="#e8e8e8" stroke-width="0.3"/>
  <polygon points="123.8,78.1 114.7,56.8 53.8,78.1" fill="none" stroke="#e8e8e8" stroke-width="0.3"/>
  <polygon points="217.2,89.9 217.2,63.9 188.8,70.7" fill="none" stroke="#e8e8e8" stroke-width="0.3"/>
  <polygon points="217.2,63.9 197.8,49.0 188.8,70.7" fill="none" stroke="#e8e8e8" stroke-width="0.3"/>
  <polygon points="197.8,49.0 188.8,44.7 188.8,70.7" fill="none" stroke="#e8e8e8" stroke-width="0.3"/>
  <polygon points="52.7,56.8 53.8,78.1 114.7,56.8" fill="none" stroke="#e8e8e8" stroke-width="0.3"/>
  <polygon points="32.9,53.6 32.9,79.6 52.7,56.8" fill="none" stroke="#e8e8e8" stroke-width="0.3"/>
  <polygon points="351.2,55.9 342.2,71.5 351.2,81.9" fill="none" stroke="#e8e8e8" stroke-width="0.3"/>
  <polygon points="217.2,63.9 279.2,63.9 259.8,49.0" fill="none" stroke="#e8e8e8" stroke-width="0.3"/>
  <polygon points="197.8,49.0 217.2,63.9 259.8,49.0" fill="none" stroke="#e8e8e8" stroke-width="0.3"/>
  <polygon points="351.2,55.9 421.2,55.9 375.0,48.3" fill="none" stroke="#e8e8e8" stroke-width="0.3"/>
  <polygon points="32.9,53.6 52.7,56.8 44.7,46.4" fill="none" stroke="#e8e8e8" stroke-width="0.3"/>
  <polygon points="-13.1,53.6 32.9,53.6 -9.3,46.4" fill="none" stroke="#e8e8e8" stroke-width="0.3"/>
  <polygon points="-9.3,46.4 32.9,53.6 44.7,46.4" fill="none" stroke="#e8e8e8" stroke-width="0.3"/>
  <polygon points="279.2,63.9 288.2,71.5 288.2,45.5" fill="none" stroke="#e8e8e8" stroke-width="0.3"/>
  <polygon points="259.8,49.0 279.2,63.9 288.2,45.5" fill="none" stroke="#e8e8e8" stroke-width="0.3"/>
  <polygon points="114.7,56.8 134.8,70.7 134.8,44.7" fill="none" stroke="#e8e8e8" stroke-width="0.3"/>
  <polygon points="114.7,56.8 134.8,44.7 114.7,30.8" fill="none" stroke="#e8e8e8" stroke-width="0.3"/>
  <polygon points="44.7,46.4 52.7,56.8 52.7,30.8" fill="none" stroke="#e8e8e8" stroke-width="0.3"/>
  <polygon points="259.8,49.0 288.2,45.5 259.8,23.0" fill="none" stroke="#e8e8e8" stroke-width="0.3"/>
  <polygon points="188.8,44.7 197.8,49.0 197.8,23.0" fill="none" stroke="#e8e8e8" stroke-width="0.3"/>
  <polygon points="177.6,16.5 188.8,44.7 197.8,23.0" fill="none" stroke="#e8e8e8" stroke-width="0.3"/>
  <polygon points="177.6,16.5 134.8,44.7 188.8,44.7" fill="none" stroke="#e8e8e8" stroke-width="0.3"/>
  <polygon points="177.6,16.5 123.6,16.5 134.8,44.7" fill="none" stroke="#e8e8e8" stroke-width="0.3"/>
  <polygon points="342.2,45.5 375.0,48.3 375.0,22.3" fill="none" stroke="#e8e8e8" stroke-width="0.3"/>
  <polygon points="342.2,45.5 351.2,55.9 375.0,48.3" fill="none" stroke="#e8e8e8" stroke-width="0.3"/>
  <polygon points="44.7,46.4 52.7,30.8 44.7,20.4" fill="none" stroke="#e8e8e8" stroke-width="0.3"/>
  <polygon points="123.6,16.5 114.7,30.8 134.8,44.7" fill="none" stroke="#e8e8e8" stroke-width="0.3"/>
  <polygon points="123.6,-9.5 93.3,-33.9 123.6,16.5" fill="none" stroke="#e8e8e8" stroke-width="0.3"/>
  <polygon points="-9.3,20.4 44.7,20.4 10.6,13.3" fill="none" stroke="#e8e8e8" stroke-width="0.3"/>
  <polygon points="-43.4,13.3 -9.3,20.4 10.6,13.3" fill="none" stroke="#e8e8e8" stroke-width="0.3"/>
  <polygon points="177.6,16.5 197.8,23.0 177.6,-9.5" fill="none" stroke="#e8e8e8" stroke-width="0.3"/>
  <polygon points="93.3,-33.9 114.7,30.8 123.6,16.5" fill="none" stroke="#e8e8e8" stroke-width="0.3"/>
  <polygon points="381.0,-14.4 319.0,-14.4 375.0,22.3" fill="none" stroke="#e8e8e8" stroke-width="0.3"/>
  <polygon points="375.0,22.3 319.0,-14.4 342.2,45.5" fill="none" stroke="#e8e8e8" stroke-width="0.3"/>
  <polygon points="342.2,45.5 319.0,-14.4 288.2,45.5" fill="none" stroke="#e8e8e8" stroke-width="0.3"/>
  <polygon points="177.6,-9.5 197.8,23.0 259.8,23.0" fill="none" stroke="#e8e8e8" stroke-width="0.3"/>
  <polygon points="288.2,45.5 319.0,-14.4 259.8,23.0" fill="none" stroke="#e8e8e8" stroke-width="0.3"/>
  <polygon points="10.6,13.3 44.7,20.4 10.6,-12.7" fill="none" stroke="#e8e8e8" stroke-width="0.3"/>
  <polygon points="319.0,-14.4 319.0,-40.4 259.8,23.0" fill="none" stroke="#e8e8e8" stroke-width="0.3"/>
  <polygon points="319.0,-40.4 187.7,-85.4 259.8,23.0" fill="none" stroke="#e8e8e8" stroke-width="0.3"/>
  <polygon points="52.7,30.8 114.7,30.8 93.3,-33.9" fill="none" stroke="#e8e8e8" stroke-width="0.3"/>
  <polygon points="44.7,20.4 52.7,30.8 93.3,-33.9" fill="none" stroke="#e8e8e8" stroke-width="0.3"/>
  <polygon points="10.6,-12.7 44.7,20.4 93.3,-33.9" fill="none" stroke="#e8e8e8" stroke-width="0.3"/>
  <polygon points="187.7,-85.4 177.6,-9.5 259.8,23.0" fill="none" stroke="#e8e8e8" stroke-width="0.3"/>
  <polygon points="165.3,123.3 227.3,97.3 165.3,97.3" fill="#B3D9FF" fill-opacity="0.35" stroke="#64B5F6" stroke-width="0.6"/>
  <polygon points="156.3,111.6 165.3,123.3 165.3,97.3" fill="#B3D9FF" fill-opacity="0.35" stroke="#64B5F6" stroke-width="0.6"/>
  <polygon points="156.3,137.6 165.3,123.3 156.3,111.6" fill="#B3D9FF" fill-opacity="0.35" stroke="#64B5F6" stroke-width="0.6"/>
  <polygon points="156.3,137.6 182.3,192.3 165.3,123.3" fill="#B3D9FF" fill-opacity="0.35" stroke="#64B5F6" stroke-width="0.6"/>
  <polygon points="128.9,176.9 182.3,192.3 156.3,137.6" fill="#B3D9FF" fill-opacity="0.35" stroke="#64B5F6" stroke-width="0.6"/>
  <polygon points="128.9,176.9 140.4,225.8 182.3,192.3" fill="#B3D9FF" fill-opacity="0.35" stroke="#64B5F6" stroke-width="0.6"/>
  <polygon points="140.4,225.8 182.3,218.3 182.3,192.3" fill="#B3D9FF" fill-opacity="0.35" stroke="#64B5F6" stroke-width="0.6"/>
  <polygon points="140.4,225.8 194.4,225.8 182.3,218.3" fill="#B3D9FF" fill-opacity="0.35" stroke="#64B5F6" stroke-width="0.6"/>
  <polygon points="140.4,251.8 194.4,225.8 140.4,225.8" fill="#B3D9FF" fill-opacity="0.35" stroke="#64B5F6" stroke-width="0.6"/>
  <polygon points="243.6,172.8 243.6,146.8 297.6,146.8 297.6,172.8" fill="#EEEEEE" fill-opacity="0.7" stroke="#BDBDBD" stroke-width="0.5"/>
  <text x="270.6" y="159.8" text-anchor="middle" dominant-baseline="central" font-size="5" fill="#9E9E9E">JAIME</text>
  <polygon points="269.7,139.0 269.7,113.0 331.7,113.0 331.7,139.0" fill="#EEEEEE" fill-opacity="0.7" stroke="#BDBDBD" stroke-width="0.5"/>
  <text x="300.7" y="126.0" text-anchor="middle" dominant-baseline="central" font-size="5" fill="#9E9E9E">LANCEL</text>
  <polygon points="125.9,285.2 125.9,259.2 179.9,259.2 179.9,285.2" fill="#EEEEEE" fill-opacity="0.7" stroke="#BDBDBD" stroke-width="0.5"/>
  <text x="152.9" y="272.2" text-anchor="middle" dominant-baseline="central" font-size="5" fill="#9E9E9E">LITTLEFINGER</text>
  <polygon points="94.3,137.6 94.3,111.6 156.3,111.6 156.3,137.6" fill="#EEEEEE" fill-opacity="0.7" stroke="#BDBDBD" stroke-width="0.5"/>
  <text x="125.3" y="124.6" text-anchor="middle" dominant-baseline="central" font-size="5" fill="#9E9E9E">MOUNTAIN</text>
  <polygon points="23.0,143.4 23.0,117.4 85.0,117.4 85.0,143.4" fill="#EEEEEE" fill-opacity="0.7" stroke="#BDBDBD" stroke-width="0.5"/>
  <text x="54.0" y="130.4" text-anchor="middle" dominant-baseline="central" font-size="5" fill="#9E9E9E">ROBERT</text>
  <polygon points="217.2,89.9 217.2,63.9 279.2,63.9 279.2,89.9" fill="#EEEEEE" fill-opacity="0.7" stroke="#BDBDBD" stroke-width="0.5"/>
  <text x="248.2" y="76.9" text-anchor="middle" dominant-baseline="central" font-size="5" fill="#9E9E9E">TYRION</text>
  <polygon points="134.8,70.7 134.8,44.7 188.8,44.7 188.8,70.7" fill="#EEEEEE" fill-opacity="0.7" stroke="#BDBDBD" stroke-width="0.5"/>
  <text x="161.8" y="57.7" text-anchor="middle" dominant-baseline="central" font-size="5" fill="#9E9E9E">VARYS</text>
  <polygon points="58.9,176.9 58.9,150.9 128.9,150.9 128.9,176.9" fill="#EEEEEE" fill-opacity="0.7" stroke="#BDBDBD" stroke-width="0.5"/>
  <text x="93.9" y="163.9" text-anchor="middle" dominant-baseline="central" font-size="5" fill="#9E9E9E">BRIENNE</text>
  <polygon points="53.8,104.1 53.8,78.1 123.8,78.1 123.8,104.1" fill="#EEEEEE" fill-opacity="0.7" stroke="#BDBDBD" stroke-width="0.5"/>
  <text x="88.8" y="91.1" text-anchor="middle" dominant-baseline="central" font-size="5" fill="#9E9E9E">PODRICK</text>
  <polygon points="182.3,218.3 182.3,192.3 228.3,192.3 228.3,218.3" fill="#EEEEEE" fill-opacity="0.7" stroke="#BDBDBD" stroke-width="0.5"/>
  <text x="205.3" y="205.3" text-anchor="middle" dominant-baseline="central" font-size="5" fill="#9E9E9E">YARA</text>
  <polygon points="197.8,49.0 197.8,23.0 259.8,23.0 259.8,49.0" fill="#EEEEEE" fill-opacity="0.7" stroke="#BDBDBD" stroke-width="0.5"/>
  <text x="228.8" y="36.0" text-anchor="middle" dominant-baseline="central" font-size="5" fill="#9E9E9E">QYBURN</text>
  <polygon points="165.3,123.3 165.3,97.3 227.3,97.3 227.3,123.3" fill="#E3F2FD" fill-opacity="0.6" stroke="#1565C0" stroke-width="1.5"/>
  <polygon points="140.4,251.8 140.4,225.8 194.4,225.8 194.4,251.8" fill="#E3F2FD" fill-opacity="0.6" stroke="#1565C0" stroke-width="1.5"/>
  <polyline points="196.3,110.3 165.3,123.3 167.4,238.8" fill="none" stroke="#E65100" stroke-width="1.8" stroke-dasharray="5,3" stroke-opacity="0.8" stroke-linejoin="round"/>
  <polyline points="196.3,110.3 167.4,238.8" fill="none" stroke="#D32F2F" stroke-width="2.5" stroke-opacity="0.85" stroke-linejoin="round"/>
  <circle cx="196.3" cy="110.3" r="3.5" fill="#D32F2F" stroke="white" stroke-width="1"/>
  <circle cx="167.4" cy="238.8" r="3.5" fill="#D32F2F" stroke="white" stroke-width="1"/>
  <text x="196.3" y="98.3" text-anchor="middle" font-size="8" font-weight="bold" fill="#0D47A1">CERSEI</text>
  <text x="167.4" y="226.8" text-anchor="middle" font-size="8" font-weight="bold" fill="#0D47A1">SANSA</text>
  <rect x="8" y="258.23048017779195" width="190" height="45" fill="white" fill-opacity="0.92" stroke="#ccc" stroke-width="0.5" rx="3"/>
  <rect x="13" y="263.23048017779195" width="10" height="8" fill="#B3D9FF" fill-opacity="0.45" stroke="#64B5F6" stroke-width="0.8"/>
  <text x="28" y="270.23048017779195" font-size="6" fill="#333">corridor triangles</text>
  <line x1="13" y1="280.23048017779195" x2="23" y2="280.23048017779195" stroke="#E65100" stroke-width="1.8" stroke-dasharray="5,3"/>
  <text x="28" y="283.23048017779195" font-size="6" fill="#333">funnel path before collapse</text>
  <line x1="13" y1="293.23048017779195" x2="23" y2="293.23048017779195" stroke="#D32F2F" stroke-width="2.5"/>
  <text x="28" y="296.23048017779195" font-size="6" fill="#333">funnel path after collapse (12% shorter)</text>
</svg>
