<svg xmlns="http://www.w3.org/2000/svg" width="379.2" height="301.1" viewBox="0 0 379.2 301.1" font-family="Arial, Helvetica, sans-serif">
  <rect width="100%" height="100%" fill="white"/>
  <polygon points="191.4,321.9 188.4,276.1 133.1,242.7" fill="none" stroke="#e8e8e8" stroke-width="0.3"/>
  <polygon points="191.4,321.9 133.1,242.7 167.5,355.6" fill="none" stroke="#e8e8e8" stroke-width="0.3"/>
  <polygon points="-10.1,288.3 -11.0,384.8 43.0,384.8" fill="none" stroke="#e8e8e8" stroke-width="0.3"/>
  <polygon points="-10.1,288.3 43.0,384.8 96.6,378.7" fill="none" stroke="#e8e8e8" stroke-width="0.3"/>
  <polygon points="328.9,320.3 367.7,286.9 353.3,255.3" fill="none" stroke="#e8e8e8" stroke-width="0.3"/>
  <polygon points="367.7,312.9 367.7,286.9 328.9,320.3" fill="none" stroke="#e8e8e8" stroke-width="0.3"/>
  <polygon points="328.9,320.3 353.3,255.3 317.4,321.9" fill="none" stroke="#e8e8e8" stroke-width="0.3"/>
  <polygon points="258.4,276.1 191.4,321.9 317.4,321.9" fill="none" stroke="#e8e8e8" stroke-width="0.3"/>
  <polygon points="367.7,286.9 501.7,286.9 429.3,279.5" fill="none" stroke="#e8e8e8" stroke-width="0.3"/>
  <polygon points="367.7,286.9 429.3,279.5 391.3,279.5" fill="none" stroke="#e8e8e8" stroke-width="0.3"/>
  <polygon points="188.4,276.1 191.4,321.9 258.4,276.1" fill="none" stroke="#e8e8e8" stroke-width="0.3"/>
  <polygon points="133.1,242.7 96.6,378.7 167.5,355.6" fill="none" stroke="#e8e8e8" stroke-width="0.3"/>
  <polygon points="71.0,218.0 96.6,378.7 133.1,242.7" fill="none" stroke="#e8e8e8" stroke-width="0.3"/>
  <polygon points="267.3,255.3 317.4,321.9 353.3,255.3" fill="none" stroke="#e8e8e8" stroke-width="0.3"/>
  <polygon points="391.3,253.5 367.7,286.9 391.3,279.5" fill="none" stroke="#e8e8e8" stroke-width="0.3"/>
  <polygon points="258.4,276.1 317.4,321.9 267.3,255.3" fill="none" stroke="#e8e8e8" stroke-width="0.3"/>
  <polygon points="258.4,250.1 258.4,276.1 267.3,255.3" fill="none" stroke="#e8e8e8" stroke-width="0.3"/>
  <polygon points="133.1,242.7 188.4,250.1 187.1,242.7" fill="none" stroke="#e8e8e8" stroke-width="0.3"/>
  <polygon points="353.3,255.3 367.7,286.9 391.3,253.5" fill="none" stroke="#e8e8e8" stroke-width="0.3"/>
  <polygon points="188.4,276.1 188.4,250.1 133.1,242.7" fill="none" stroke="#e8e8e8" stroke-width="0.3"/>
  <polygon points="71.0,218.0 133.1,242.7 109.0,218.0" fill="none" stroke="#e8e8e8" stroke-width="0.3"/>
  <polygon points="353.3,229.3 353.3,255.3 391.3,253.5" fill="none" stroke="#e8e8e8" stroke-width="0.3"/>
  <polygon points="-10.1,288.3 96.6,378.7 71.0,218.0" fill="none" stroke="#e8e8e8" stroke-width="0.3"/>
  <polygon points="245.1,221.9 188.4,250.1 258.4,250.1" fill="none" stroke="#e8e8e8" stroke-width="0.3"/>
  <polygon points="267.3,255.3 267.3,229.3 258.4,250.1" fill="none" stroke="#e8e8e8" stroke-width="0.3"/>
  <polygon points="267.3,229.3 245.1,221.9 258.4,250.1" fill="none" stroke="#e8e8e8" stroke-width="0.3"/>
  <polygon points="245.1,221.9 187.1,242.7 188.4,250.1" fill="none" stroke="#e8e8e8" stroke-width="0.3"/>
  <polygon points="245.1,221.9 187.1,216.7 187.1,242.7" fill="none" stroke="#e8e8e8" stroke-width="0.3"/>
  <polygon points="267.3,229.3 353.3,229.3 291.1,221.9" fill="none" stroke="#e8e8e8" stroke-width="0.3"/>
  <polygon points="245.1,221.9 267.3,229.3 291.1,221.9" fill="none" stroke="#e8e8e8" stroke-width="0.3"/>
  <polygon points="353.3,229.3 391.3,253.5 431.9,219.9" fill="none" stroke="#e8e8e8" stroke-width="0.3"/>
  <polygon points="71.0,218.0 -10.1,262.3 -10.1,288.3" fill="none" stroke="#e8e8e8" stroke-width="0.3"/>
  <polygon points="71.0,192.0 23.0,184.6 71.0,218.0" fill="none" stroke="#e8e8e8" stroke-width="0.3"/>
  <polygon points="109.0,218.0 133.1,242.7 133.1,216.7" fill="none" stroke="#e8e8e8" stroke-width="0.3"/>
  <polygon points="133.1,216.7 109.0,192.0 109.0,218.0" fill="none" stroke="#e8e8e8" stroke-width="0.3"/>
  <polygon points="157.2,184.7 133.1,216.7 187.1,216.7" fill="none" stroke="#e8e8e8" stroke-width="0.3"/>
  <polygon points="446.3,186.5 356.2,168.1 431.9,219.9" fill="none" stroke="#e8e8e8" stroke-width="0.3"/>
  <polygon points="291.1,221.9 353.3,229.3 291.1,195.9" fill="none" stroke="#e8e8e8" stroke-width="0.3"/>
  <polygon points="187.1,216.7 245.1,221.9 245.1,195.9" fill="none" stroke="#e8e8e8" stroke-width="0.3"/>
  <polygon points="23.0,184.6 -10.1,262.3 71.0,218.0" fill="none" stroke="#e8e8e8" stroke-width="0.3"/>
  <polygon points="356.2,168.1 353.3,229.3 431.9,219.9" fill="none" stroke="#e8e8e8" stroke-width="0.3"/>
  <polygon points="109.0,192.0 133.1,216.7 157.2,184.7" fill="none" stroke="#e8e8e8" stroke-width="0.3"/>
  <polygon points="93.0,184.6 109.0,192.0 103.2,184.7" fill="none" stroke="#e8e8e8" stroke-width="0.3"/>
  <polygon points="103.2,184.7 109.0,192.0 157.2,184.7" fill="none" stroke="#e8e8e8" stroke-width="0.3"/>
  <polygon points="71.0,192.0 109.0,192.0 93.0,184.6" fill="none" stroke="#e8e8e8" stroke-width="0.3"/>
  <polygon points="-78.3,199.6 -10.1,262.3 23.0,184.6" fill="none" stroke="#e8e8e8" stroke-width="0.3"/>
  <polygon points="23.0,184.6 71.0,192.0 93.0,184.6" fill="none" stroke="#e8e8e8" stroke-width="0.3"/>
  <polygon points="291.1,195.9 353.3,229.3 356.2,168.1" fill="none" stroke="#e8e8e8" stroke-width="0.3"/>
  <polygon points="291.1,195.9 356.2,168.1 302.2,168.1" fill="none" stroke="#e8e8e8" stroke-width="0.3"/>
  <polygon points="293.4,160.7 291.1,195.9 302.2,168.1" fill="none" stroke="#e8e8e8" stroke-width="0.3"/>
  <polygon points="293.4,160.7 245.1,195.9 291.1,195.9" fill="none" stroke="#e8e8e8" stroke-width="0.3"/>
  <polygon points="167.4,160.7 187.1,216.7 245.1,195.9" fill="none" stroke="#e8e8e8" stroke-width="0.3"/>
  <polygon points="293.4,160.7 167.4,160.7 245.1,195.9" fill="none" stroke="#e8e8e8" stroke-width="0.3"/>
  <polygon points="187.1,216.7 167.4,160.7 157.2,184.7" fill="none" stroke="#e8e8e8" stroke-width="0.3"/>
  <polygon points="157.2,184.7 167.4,160.7 157.2,158.7" fill="none" stroke="#e8e8e8" stroke-width="0.3"/>
  <polygon points="103.2,158.7 93.0,184.6 103.2,184.7" fill="none" stroke="#e8e8e8" stroke-width="0.3"/>
  <polygon points="93.0,158.6 93.0,184.6 103.2,158.7" fill="none" stroke="#e8e8e8" stroke-width="0.3"/>
  <polygon points="-41.2,122.7 23.0,184.6 23.0,158.6" fill="none" stroke="#e8e8e8" stroke-width="0.3"/>
  <polygon points="356.2,168.1 446.3,186.5 434.8,137.6" fill="none" stroke="#e8e8e8" stroke-width="0.3"/>
  <polygon points="293.4,160.7 302.2,168.1 302.2,142.1" fill="none" stroke="#e8e8e8" stroke-width="0.3"/>
  <polygon points="293.4,134.7 293.4,160.7 302.2,142.1" fill="none" stroke="#e8e8e8" stroke-width="0.3"/>
  <polygon points="167.4,160.7 167.4,134.7 157.2,158.7" fill="none" stroke="#e8e8e8" stroke-width="0.3"/>
  <polygon points="157.2,158.7 167.4,134.7 103.2,158.7" fill="none" stroke="#e8e8e8" stroke-width="0.3"/>
  <polygon points="364.8,137.6 356.2,168.1 434.8,137.6" fill="none" stroke="#e8e8e8" stroke-width="0.3"/>
  <polygon points="356.2,142.1 356.2,168.1 364.8,137.6" fill="none" stroke="#e8e8e8" stroke-width="0.3"/>
  <polygon points="167.4,134.7 93.4,115.6 103.2,158.7" fill="none" stroke="#e8e8e8" stroke-width="0.3"/>
  <polygon points="93.4,115.6 93.0,158.6 103.2,158.7" fill="none" stroke="#e8e8e8" stroke-width="0.3"/>
  <polygon points="302.2,142.1 356.2,142.1 307.3,127.2" fill="none" stroke="#e8e8e8" stroke-width="0.3"/>
  <polygon points="293.4,134.7 302.2,142.1 307.3,127.2" fill="none" stroke="#e8e8e8" stroke-width="0.3"/>
  <polygon points="167.4,134.7 293.4,134.7 245.3,127.2" fill="none" stroke="#e8e8e8" stroke-width="0.3"/>
  <polygon points="245.3,127.2 293.4,134.7 307.3,127.2" fill="none" stroke="#e8e8e8" stroke-width="0.3"/>
  <polygon points="23.0,158.6 93.0,158.6 55.4,115.6" fill="none" stroke="#e8e8e8" stroke-width="0.3"/>
  <polygon points="-41.2,122.7 23.0,158.6 28.8,122.7" fill="none" stroke="#e8e8e8" stroke-width="0.3"/>
  <polygon points="-41.2,122.7 -78.3,199.6 23.0,184.6" fill="none" stroke="#e8e8e8" stroke-width="0.3"/>
  <polygon points="55.4,115.6 93.0,158.6 93.4,115.6" fill="none" stroke="#e8e8e8" stroke-width="0.3"/>
  <polygon points="28.8,122.7 23.0,158.6 55.4,115.6" fill="none" stroke="#e8e8e8" stroke-width="0.3"/>
  <polygon points="356.2,142.1 364.8,137.6 364.8,111.6" fill="none" stroke="#e8e8e8" stroke-width="0.3"/>
  <polygon points="328.9,104.1 356.2,142.1 364.8,111.6" fill="none" stroke="#e8e8e8" stroke-width="0.3"/>
  <polygon points="364.8,111.6 434.8,111.6 390.9,104.1" fill="none" stroke="#e8e8e8" stroke-width="0.3"/>
  <polygon points="307.3,127.2 356.2,142.1 328.9,104.1" fill="none" stroke="#e8e8e8" stroke-width="0.3"/>
  <polygon points="328.9,104.1 364.8,111.6 390.9,104.1" fill="none" stroke="#e8e8e8" stroke-width="0.3"/>
  <polygon points="307.3,127.2 328.9,104.1 307.3,101.2" fill="none" stroke="#e8e8e8" stroke-width="0.3"/>
  <polygon points="211.4,94.0 245.3,127.2 245.3,101.2" fill="none" stroke="#e8e8e8" stroke-width="0.3"/>
  <polygon points="28.8,122.7 55.4,115.6 28.8,96.7" fill="none" stroke="#e8e8e8" stroke-width="0.3"/>
  <polygon points="245.3,101.2 307.3,101.2 305.4,94.0" fill="none" stroke="#e8e8e8" stroke-width="0.3"/>
  <polygon points="305.4,94.0 307.3,101.2 328.9,104.1" fill="none" stroke="#e8e8e8" stroke-width="0.3"/>
  <polygon points="167.4,134.7 245.3,127.2 211.4,94.0" fill="none" stroke="#e8e8e8" stroke-width="0.3"/>
  <polygon points="211.4,94.0 245.3,101.2 305.4,94.0" fill="none" stroke="#e8e8e8" stroke-width="0.3"/>
  <polygon points="93.4,115.6 167.4,134.7 101.2,82.2" fill="none" stroke="#e8e8e8" stroke-width="0.3"/>
  <polygon points="28.8,96.7 55.4,115.6 55.4,89.6" fill="none" stroke="#e8e8e8" stroke-width="0.3"/>
  <polygon points="-41.2,96.7 28.8,96.7 -34.2,89.2" fill="none" stroke="#e8e8e8" stroke-width="0.3"/>
  <polygon points="167.4,134.7 211.4,94.0 195.2,82.2" fill="none" stroke="#e8e8e8" stroke-width="0.3"/>
  <polygon points="101.2,82.2 167.4,134.7 195.2,82.2" fill="none" stroke="#e8e8e8" stroke-width="0.3"/>
  <polygon points="93.4,89.6 93.4,115.6 101.2,82.2" fill="none" stroke="#e8e8e8" stroke-width="0.3"/>
  <polygon points="305.4,94.0 328.9,104.1 328.9,78.1" fill="none" stroke="#e8e8e8" stroke-width="0.3"/>
  <polygon points="28.8,96.7 55.4,89.6 45.0,73.9" fill="none" stroke="#e8e8e8" stroke-width="0.3"/>
  <polygon points="-34.2,89.2 28.8,96.7 -25.0,73.9" fill="none" stroke="#e8e8e8" stroke-width="0.3"/>
  <polygon points="-25.0,73.9 28.8,96.7 45.0,73.9" fill="none" stroke="#e8e8e8" stroke-width="0.3"/>
  <polygon points="305.4,94.0 328.9,78.1 305.4,68.0" fill="none" stroke="#e8e8e8" stroke-width="0.3"/>
  <polygon points="195.2,82.2 211.4,94.0 211.4,68.0" fill="none" stroke="#e8e8e8" stroke-width="0.3"/>
  <polygon points="328.9,78.1 390.9,78.1 359.8,64.7" fill="none" stroke="#e8e8e8" stroke-width="0.3"/>
  <polygon points="359.8,64.7 400.2,72.3 429.8,64.7" fill="none" stroke="#e8e8e8" stroke-width="0.3"/>
  <polygon points="359.8,64.7 390.9,78.1 400.2,72.3" fill="none" stroke="#e8e8e8" stroke-width="0.3"/>
  <polygon points="195.2,82.2 211.4,68.0 195.2,56.2" fill="none" stroke="#e8e8e8" stroke-width="0.3"/>
  <polygon points="93.4,89.6 101.2,82.2 101.2,56.2" fill="none" stroke="#e8e8e8" stroke-width="0.3"/>
  <polygon points="55.4,89.6 93.4,89.6 101.2,56.2" fill="none" stroke="#e8e8e8" stroke-width="0.3"/>
  <polygon points="45.0,73.9 55.4,89.6 101.2,56.2" fill="none" stroke="#e8e8e8" stroke-width="0.3"/>
  <polygon points="61.0,35.8 45.0,73.9 101.2,56.2" fill="none" stroke="#e8e8e8" stroke-width="0.3"/>
  <polygon points="118.4,49.0 107.0,35.8 101.2,56.2" fill="none" stroke="#e8e8e8" stroke-width="0.3"/>
  <polygon points="118.4,49.0 101.2,56.2 195.2,56.2" fill="none" stroke="#e8e8e8" stroke-width="0.3"/>
  <polygon points="284.4,44.2 211.4,68.0 305.4,68.0" fill="none" stroke="#e8e8e8" stroke-width="0.3"/>
  <polygon points="338.8,40.3 328.9,78.1 359.8,64.7" fill="none" stroke="#e8e8e8" stroke-width="0.3"/>
  <polygon points="195.2,56.2 211.4,68.0 212.4,49.0" fill="none" stroke="#e8e8e8" stroke-width="0.3"/>
  <polygon points="118.4,49.0 195.2,56.2 212.4,49.0" fill="none" stroke="#e8e8e8" stroke-width="0.3"/>
  <polygon points="222.4,44.2 211.4,68.0 284.4,44.2" fill="none" stroke="#e8e8e8" stroke-width="0.3"/>
  <polygon points="212.4,49.0 211.4,68.0 222.4,44.2" fill="none" stroke="#e8e8e8" stroke-width="0.3"/>
  <polygon points="45.0,47.9 45.0,73.9 52.5,40.6" fill="none" stroke="#e8e8e8" stroke-width="0.3"/>
  <polygon points="-25.0,47.9 45.0,47.9 -1.5,40.6" fill="none" stroke="#e8e8e8" stroke-width="0.3"/>
  <polygon points="-1.5,40.6 45.0,47.9 52.5,40.6" fill="none" stroke="#e8e8e8" stroke-width="0.3"/>
  <polygon points="305.4,68.0 328.9,78.1 338.8,40.3" fill="none" stroke="#e8e8e8" stroke-width="0.3"/>
  <polygon points="284.4,44.2 305.4,68.0 292.8,40.3" fill="none" stroke="#e8e8e8" stroke-width="0.3"/>
  <polygon points="292.8,40.3 305.4,68.0 338.8,40.3" fill="none" stroke="#e8e8e8" stroke-width="0.3"/>
  <polygon points="338.8,40.3 359.8,64.7 359.8,38.7" fill="none" stroke="#e8e8e8" stroke-width="0.3"/>
  <polygon points="61.0,35.8 101.2,56.2 107.0,35.8" fill="none" stroke="#e8e8e8" stroke-width="0.3"/>
  <polygon points="52.5,40.6 45.0,73.9 61.0,35.8" fill="none" stroke="#e8e8e8" stroke-width="0.3"/>
  <polygon points="61.0,35.8 52.5,14.6 52.5,40.6" fill="none" stroke="#e8e8e8" stroke-width="0.3"/>
  <polygon points="212.4,23.0 212.4,49.0 222.4,44.2" fill="none" stroke="#e8e8e8" stroke-width="0.3"/>
  <polygon points="292.8,40.3 284.4,18.2 284.4,44.2" fill="none" stroke="#e8e8e8" stroke-width="0.3"/>
  <polygon points="359.8,38.7 358.6,17.5 338.8,40.3" fill="none" stroke="#e8e8e8" stroke-width="0.3"/>
  <polygon points="429.8,38.7 420.6,17.5 359.8,38.7" fill="none" stroke="#e8e8e8" stroke-width="0.3"/>
  <polygon points="107.0,35.8 118.4,49.0 118.4,23.0" fill="none" stroke="#e8e8e8" stroke-width="0.3"/>
  <polygon points="212.4,23.0 222.4,44.2 222.4,18.2" fill="none" stroke="#e8e8e8" stroke-width="0.3"/>
  <polygon points="358.6,17.5 359.8,38.7 420.6,17.5" fill="none" stroke="#e8e8e8" stroke-width="0.3"/>
  <polygon points="338.8,14.3 338.8,40.3 358.6,17.5" fill="none" stroke="#e8e8e8" stroke-width="0.3"/>
  <polygon points="284.4,18.2 292.8,40.3 292.8,14.3" fill="none" stroke="#e8e8e8" stroke-width="0.3"/>
  <polygon points="107.0,35.8 118.4,23.0 107.0,9.8" fill="none" stroke="#e8e8e8" stroke-width="0.3"/>
  <polygon points="52.5,14.6 61.0,35.8 61.0,9.8" fill="none" stroke="#e8e8e8" stroke-width="0.3"/>
  <polygon points="338.8,14.3 358.6,17.5 350.7,7.1" fill="none" stroke="#e8e8e8" stroke-width="0.3"/>
  <polygon points="292.8,14.3 338.8,14.3 296.7,7.1" fill="none" stroke="#e8e8e8" stroke-width="0.3"/>
  <polygon points="296.7,7.1 338.8,14.3 350.7,7.1" fill="none" stroke="#e8e8e8" stroke-width="0.3"/>
  <polygon points="118.4,23.0 212.4,23.0 127.4,2.6" fill="none" stroke="#e8e8e8" stroke-width="0.3"/>
  <polygon points="107.0,9.8 118.4,23.0 127.4,2.6" fill="none" stroke="#e8e8e8" stroke-width="0.3"/>
  <polygon points="61.0,9.8 107.0,9.8 65.4,2.6" fill="none" stroke="#e8e8e8" stroke-width="0.3"/>
  <polygon points="65.4,2.6 107.0,9.8 127.4,2.6" fill="none" stroke="#e8e8e8" stroke-width="0.3"/>
  <polygon points="61.0,9.8 65.4,2.6 52.5,14.6" fill="none" stroke="#e8e8e8" stroke-width="0.3"/>
  <polygon points="65.4,2.6 65.4,-23.4 52.5,14.6" fill="none" stroke="#e8e8e8" stroke-width="0.3"/>
  <polygon points="65.4,-23.4 39.8,-52.2 52.5,14.6" fill="none" stroke="#e8e8e8" stroke-width="0.3"/>
  <polygon points="350.7,7.1 358.6,17.5 358.6,-8.5" fill="none" stroke="#e8e8e8" stroke-width="0.3"/>
  <polygon points="350.7,7.1 358.6,-8.5 350.7,-18.9" fill="none" stroke="#e8e8e8" stroke-width="0.3"/>
  <polygon points="262.6,-26.0 296.7,7.1 296.7,-18.9" fill="none" stroke="#e8e8e8" stroke-width="0.3"/>
  <polygon points="284.4,18.2 292.8,14.3 296.7,7.1" fill="none" stroke="#e8e8e8" stroke-width="0.3"/>
  <polygon points="262.6,-26.0 284.4,18.2 296.7,7.1" fill="none" stroke="#e8e8e8" stroke-width="0.3"/>
  <polygon points="262.6,-26.0 222.4,18.2 284.4,18.2" fill="none" stroke="#e8e8e8" stroke-width="0.3"/>
  <polygon points="208.1,-31.9 212.4,23.0 222.4,18.2" fill="none" stroke="#e8e8e8" stroke-width="0.3"/>
  <polygon points="208.1,-31.9 127.4,2.6 212.4,23.0" fill="none" stroke="#e8e8e8" stroke-width="0.3"/>
  <polygon points="-1.5,14.6 52.5,14.6 39.8,-52.2" fill="none" stroke="#e8e8e8" stroke-width="0.3"/>
  <polygon points="254.1,-31.9 222.4,18.2 262.6,-26.0" fill="none" stroke="#e8e8e8" stroke-width="0.3"/>
  <polygon points="208.1,-31.9 222.4,18.2 254.1,-31.9" fill="none" stroke="#e8e8e8" stroke-width="0.3"/>
  <polygon points="127.4,-23.4 127.4,2.6 208.1,-31.9" fill="none" stroke="#e8e8e8" stroke-width="0.3"/>
  <polygon points="39.8,-52.2 -78.1,-50.7 -1.5,14.6" fill="none" stroke="#e8e8e8" stroke-width="0.3"/>
  <polygon points="101.2,82.2 195.2,56.2 101.2,56.2" fill="#B3D9FF" fill-opacity="0.35" stroke="#64B5F6" stroke-width="0.6"/>
  <polygon points="101.2,82.2 195.2,82.2 195.2,56.2" fill="#B3D9FF" fill-opacity="0.35" stroke="#64B5F6" stroke-width="0.6"/>
  <polygon points="101.2,82.2 167.4,134.7 195.2,82.2" fill="#B3D9FF" fill-opacity="0.35" stroke="#64B5F6" stroke-width="0.6"/>
  <polygon points="93.4,115.6 167.4,134.7 101.2,82.2" fill="#B3D9FF" fill-opacity="0.35" stroke="#64B5F6" stroke-width="0.6"/>
  <polygon points="167.4,134.7 93.4,115.6 103.2,158.7" fill="#B3D9FF" fill-opacity="0.35" stroke="#64B5F6" stroke-width="0.6"/>
  <polygon points="157.2,158.7 167.4,134.7 103.2,158.7" fill="#B3D9FF" fill-opacity="0.35" stroke="#64B5F6" stroke-width="0.6"/>
  <polygon points="167.4,160.7 167.4,134.7 157.2,158.7" fill="#B3D9FF" fill-opacity="0.35" stroke="#64B5F6" stroke-width="0.6"/>
  <polygon points="157.2,184.7 167.4,160.7 157.2,158.7" fill="#B3D9FF" fill-opacity="0.35" stroke="#64B5F6" stroke-width="0.6"/>
  <polygon points="187.1,216.7 167.4,160.7 157.2,184.7" fill="#B3D9FF" fill-opacity="0.35" stroke="#64B5F6" stroke-width="0.6"/>
  <polygon points="167.4,160.7 187.1,216.7 245.1,195.9" fill="#B3D9FF" fill-opacity="0.35" stroke="#64B5F6" stroke-width="0.6"/>
  <polygon points="187.1,216.7 245.1,221.9 245.1,195.9" fill="#B3D9FF" fill-opacity="0.35" stroke="#64B5F6" stroke-width="0.6"/>
  <polygon points="245.1,221.9 187.1,216.7 187.1,242.7" fill="#B3D9FF" fill-opacity="0.35" stroke="#64B5F6" stroke-width="0.6"/>
  <polygon points="245.1,221.9 187.1,242.7 188.4,250.1" fill="#B3D9FF" fill-opacity="0.35" stroke="#64B5F6" stroke-width="0.6"/>
  <polygon points="245.1,221.9 188.4,250.1 258.4,250.1" fill="#B3D9FF" fill-opacity="0.35" stroke="#64B5F6" stroke-width="0.6"/>
  <polygon points="258.4,250.1 188.4,250.1 188.4,276.1" fill="#B3D9FF" fill-opacity="0.35" stroke="#64B5F6" stroke-width="0.6"/>
  <polygon points="245.1,221.9 245.1,195.9 291.1,195.9 291.1,221.9" fill="#EEEEEE" fill-opacity="0.7" stroke="#BDBDBD" stroke-width="0.5"/>
  <text x="268.1" y="208.9" text-anchor="middle" dominant-baseline="central" font-size="5" fill="#9E9E9E">BRAN</text>
  <polygon points="133.1,242.7 133.1,216.7 187.1,216.7 187.1,242.7" fill="#EEEEEE" fill-opacity="0.7" stroke="#BDBDBD" stroke-width="0.5"/>
  <text x="160.1" y="229.7" text-anchor="middle" dominant-baseline="central" font-size="5" fill="#9E9E9E">JANOS</text>
  <polygon points="71.0,218.0 71.0,192.0 109.0,192.0 109.0,218.0" fill="#EEEEEE" fill-opacity="0.7" stroke="#BDBDBD" stroke-width="0.5"/>
  <text x="90.0" y="205.0" text-anchor="middle" dominant-baseline="central" font-size="5" fill="#9E9E9E">JON</text>
  <polygon points="55.4,115.6 55.4,89.6 93.4,89.6 93.4,115.6" fill="#EEEEEE" fill-opacity="0.7" stroke="#BDBDBD" stroke-width="0.5"/>
  <text x="74.4" y="102.6" text-anchor="middle" dominant-baseline="central" font-size="5" fill="#9E9E9E">SAM</text>
  <polygon points="103.2,184.7 103.2,158.7 157.2,158.7 157.2,184.7" fill="#EEEEEE" fill-opacity="0.7" stroke="#BDBDBD" stroke-width="0.5"/>
  <text x="130.2" y="171.7" text-anchor="middle" dominant-baseline="central" font-size="5" fill="#9E9E9E">DAVOS</text>
  <polygon points="23.0,184.6 23.0,158.6 93.0,158.6 93.0,184.6" fill="#EEEEEE" fill-opacity="0.7" stroke="#BDBDBD" stroke-width="0.5"/>
  <text x="58.0" y="171.6" text-anchor="middle" dominant-baseline="central" font-size="5" fill="#9E9E9E">TORMUND</text>
  <polygon points="118.4,49.0 118.4,23.0 212.4,23.0 212.4,49.0" fill="#EEEEEE" fill-opacity="0.7" stroke="#BDBDBD" stroke-width="0.5"/>
  <text x="165.4" y="36.0" text-anchor="middle" dominant-baseline="central" font-size="5" fill="#9E9E9E">NIGHT_KING</text>
  <polygon points="302.2,168.1 302.2,142.1 356.2,142.1 356.2,168.1" fill="#EEEEEE" fill-opacity="0.7" stroke="#BDBDBD" stroke-width="0.5"/>
  <text x="329.2" y="155.1" text-anchor="middle" dominant-baseline="central" font-size="5" fill="#9E9E9E">TYCHO</text>
  <polygon points="211.4,94.0 211.4,68.0 305.4,68.0 305.4,94.0" fill="#EEEEEE" fill-opacity="0.7" stroke="#BDBDBD" stroke-width="0.5"/>
  <text x="258.4" y="81.0" text-anchor="middle" dominant-baseline="central" font-size="5" fill="#9E9E9E">YOHN_ROYCE</text>
  <polygon points="167.4,160.7 167.4,134.7 293.4,134.7 293.4,160.7" fill="#EEEEEE" fill-opacity="0.7" stroke="#BDBDBD" stroke-width="0.5"/>
  <text x="230.4" y="147.7" text-anchor="middle" dominant-baseline="central" font-size="5" fill="#9E9E9E">LYANNA_MORMONT</text>
  <polygon points="245.3,127.2 245.3,101.2 307.3,101.2 307.3,127.2" fill="#EEEEEE" fill-opacity="0.7" stroke="#BDBDBD" stroke-width="0.5"/>
  <text x="276.3" y="114.2" text-anchor="middle" dominant-baseline="central" font-size="5" fill="#9E9E9E">MAESTER_WOLKAN</text>
  <polygon points="267.3,255.3 267.3,229.3 353.3,229.3 353.3,255.3" fill="#EEEEEE" fill-opacity="0.7" stroke="#BDBDBD" stroke-width="0.5"/>
  <text x="310.3" y="242.3" text-anchor="middle" dominant-baseline="central" font-size="5" fill="#9E9E9E">VALE_LORD</text>
  <polygon points="101.2,82.2 101.2,56.2 195.2,56.2 195.2,82.2" fill="#E3F2FD" fill-opacity="0.6" stroke="#1565C0" stroke-width="1.5"/>
  <polygon points="188.4,276.1 188.4,250.1 258.4,250.1 258.4,276.1" fill="#E3F2FD" fill-opacity="0.6" stroke="#1565C0" stroke-width="1.5"/>
  <polyline points="148.2,69.2 167.4,160.7 223.4,263.1" fill="none" stroke="#E65100" stroke-width="1.8" stroke-dasharray="5,3" stroke-opacity="0.8" stroke-linejoin="round"/>
  <polyline points="148.2,69.2 167.4,160.7 223.4,263.1" fill="none" stroke="#D32F2F" stroke-width="2.5" stroke-opacity="0.85" stroke-linejoin="round"/>
  <circle cx="148.2" cy="69.2" r="3.5" fill="#D32F2F" stroke="white" stroke-width="1"/>
  <circle cx="223.4" cy="263.1" r="3.5" fill="#D32F2F" stroke="white" stroke-width="1"/>
  <text x="148.2" y="57.2" text-anchor="middle" font-size="8" font-weight="bold" fill="#0D47A1">MELISANDRE</text>
  <text x="223.4" y="251.1" text-anchor="middle" font-size="8" font-weight="bold" fill="#0D47A1">STANNIS</text>
  <rect x="8" y="251.120654658469" width="175" height="45" fill="white" fill-opacity="0.92" stroke="#ccc" stroke-width="0.5" rx="3"/>
  <rect x="13" y="256.120654658469" width="10" height="8" fill="#B3D9FF" fill-opacity="0.45" stroke="#64B5F6" stroke-width="0.8"/>
  <text x="28" y="263.120654658469" font-size="6" fill="#333">corridor triangles</text>
  <line x1="13" y1="273.120654658469" x2="23" y2="273.120654658469" stroke="#E65100" stroke-width="1.8" stroke-dasharray="5,3"/>
  <text x="28" y="276.120654658469" font-size="6" fill="#333">funnel path before collapse</text>
  <line x1="13" y1="286.120654658469" x2="23" y2="286.120654658469" stroke="#D32F2F" stroke-width="2.5"/>
  <text x="28" y="289.120654658469" font-size="6" fill="#333">funnel path after collapse (0% shorter)</text>
</svg>
