<svg xmlns:svg="http://www.w3.org/2000/svg" xmlns="http://www.w3.org/2000/svg" version="1.1" width="523.6081106938954" height="360.81024669575095">
    <g transform="translate(-537.7612631107219,1142.9080333446027)">
        <path fill="none" stroke="DarkGray" stroke-opacity="0.7843137254901961" stroke-width="1" d="M 904.4360345513759 -1056.1289866608658 L 948.4360345513759 -1056.1289866608658 A 3,3 0 0 0 951.4360345513759 -1059.1289866608658 L 951.4360345513759 -1075.1289866608658 A 3,3 0 0 0 948.4360345513759 -1078.1289866608658 L 904.4360345513759 -1078.1289866608658 A 3,3 0 0 0 901.4360345513759 -1075.1289866608658 L 901.4360345513759 -1059.1289866608658 A 3,3 0 0 0 904.4360345513759 -1056.1289866608658"/>
        <path fill="none" stroke="Silver" stroke-opacity="0.5882352941176471" stroke-width="0.5" d="M 899.4360345513759 -1054.1289866608658 L 899.4360345513759 -1080.1289866608658 L 953.4360345513759 -1080.1289866608658 L 953.4360345513759 -1054.1289866608658 L 899.4360345513759 -1054.1289866608658" style="stroke-dasharray:3 2;"/>
        <path fill="none" stroke="DarkGray" stroke-opacity="0.7843137254901961" stroke-width="1" d="M 870.3517496747087 -1089.2201504406908 L 914.3517496747087 -1089.2201504406908 A 3,3 0 0 0 917.3517496747087 -1092.2201504406908 L 917.3517496747087 -1108.2201504406908 A 3,3 0 0 0 914.3517496747087 -1111.2201504406908 L 870.3517496747087 -1111.2201504406908 A 3,3 0 0 0 867.3517496747087 -1108.2201504406908 L 867.3517496747087 -1092.2201504406908 A 3,3 0 0 0 870.3517496747087 -1089.2201504406908"/>
        <path fill="none" stroke="Silver" stroke-opacity="0.5882352941176471" stroke-width="0.5" d="M 865.3517496747087 -1087.2201504406908 L 865.3517496747087 -1113.2201504406908 L 919.3517496747087 -1113.2201504406908 L 919.3517496747087 -1087.2201504406908 L 865.3517496747087 -1087.2201504406908" style="stroke-dasharray:3 2;"/>
        <path fill="none" stroke="DarkGray" stroke-opacity="0.7843137254901961" stroke-width="1" d="M 852.885799536191 -841.2919187798784 L 888.885799536191 -841.2919187798784 A 3,3 0 0 0 891.885799536191 -844.2919187798784 L 891.885799536191 -860.2919187798784 A 3,3 0 0 0 888.885799536191 -863.2919187798784 L 852.885799536191 -863.2919187798784 A 3,3 0 0 0 849.885799536191 -860.2919187798784 L 849.885799536191 -844.2919187798784 A 3,3 0 0 0 852.885799536191 -841.2919187798784"/>
        <path fill="none" stroke="Silver" stroke-opacity="0.5882352941176471" stroke-width="0.5" d="M 847.885799536191 -839.2919187798784 L 847.885799536191 -865.2919187798784 L 893.885799536191 -865.2919187798784 L 893.885799536191 -839.2919187798784 L 847.885799536191 -839.2919187798784" style="stroke-dasharray:3 2;"/>
        <path fill="none" stroke="DarkGray" stroke-opacity="0.7843137254901961" stroke-width="1" d="M 830.2017211990683 -1018.9408776944482 L 882.2017211990682 -1018.9408776944482 A 3,3 0 0 0 885.2017211990682 -1021.9408776944482 L 885.2017211990682 -1037.9408776944483 A 3,3 0 0 0 882.2017211990682 -1040.9408776944483 L 830.2017211990683 -1040.9408776944483 A 3,3 0 0 0 827.2017211990683 -1037.9408776944483 L 827.2017211990683 -1021.9408776944482 A 3,3 0 0 0 830.2017211990683 -1018.9408776944482"/>
        <path fill="none" stroke="Silver" stroke-opacity="0.5882352941176471" stroke-width="0.5" d="M 825.2017211990683 -1016.9408776944483 L 825.2017211990683 -1042.9408776944483 L 887.2017211990682 -1042.9408776944483 L 887.2017211990682 -1016.9408776944483 L 825.2017211990683 -1016.9408776944483" style="stroke-dasharray:3 2;"/>
        <path fill="none" stroke="DarkGray" stroke-opacity="0.7843137254901961" stroke-width="1" d="M 566.5616317786262 -940.5102465405392 L 626.5616317786262 -940.5102465405392 A 3,3 0 0 0 629.5616317786262 -943.5102465405392 L 629.5616317786262 -959.5102465405392 A 3,3 0 0 0 626.5616317786262 -962.5102465405392 L 566.5616317786262 -962.5102465405392 A 3,3 0 0 0 563.5616317786262 -959.5102465405392 L 563.5616317786262 -943.5102465405392 A 3,3 0 0 0 566.5616317786262 -940.5102465405392"/>
        <path fill="none" stroke="Silver" stroke-opacity="0.5882352941176471" stroke-width="0.5" d="M 561.5616317786262 -938.5102465405392 L 561.5616317786262 -964.5102465405392 L 631.5616317786262 -964.5102465405392 L 631.5616317786262 -938.5102465405392 L 561.5616317786262 -938.5102465405392" style="stroke-dasharray:3 2;"/>
        <path fill="none" stroke="DarkGray" stroke-opacity="0.7843137254901961" stroke-width="1" d="M 966.3643527322959 -1045.7177363367764 L 1018.3643527322959 -1045.7177363367764 A 3,3 0 0 0 1021.3643527322959 -1048.7177363367764 L 1021.3643527322959 -1064.7177363367764 A 3,3 0 0 0 1018.3643527322959 -1067.7177363367764 L 966.3643527322959 -1067.7177363367764 A 3,3 0 0 0 963.3643527322959 -1064.7177363367764 L 963.3643527322959 -1048.7177363367764 A 3,3 0 0 0 966.3643527322959 -1045.7177363367764"/>
        <path fill="none" stroke="Silver" stroke-opacity="0.5882352941176471" stroke-width="0.5" d="M 961.3643527322959 -1043.7177363367764 L 961.3643527322959 -1069.7177363367764 L 1023.3643527322959 -1069.7177363367764 L 1023.3643527322959 -1043.7177363367764 L 961.3643527322959 -1043.7177363367764" style="stroke-dasharray:3 2;"/>
        <path fill="none" stroke="DarkGray" stroke-opacity="0.7843137254901961" stroke-width="1" d="M 740.8589738318256 -820.5044929656698 L 784.8589738318256 -820.5044929656698 A 3,3 0 0 0 787.8589738318256 -823.5044929656698 L 787.8589738318256 -839.5044929656698 A 3,3 0 0 0 784.8589738318256 -842.5044929656698 L 740.8589738318256 -842.5044929656698 A 3,3 0 0 0 737.8589738318256 -839.5044929656698 L 737.8589738318256 -823.5044929656698 A 3,3 0 0 0 740.8589738318256 -820.5044929656698"/>
        <path fill="none" stroke="Silver" stroke-opacity="0.5882352941176471" stroke-width="0.5" d="M 735.8589738318256 -818.5044929656698 L 735.8589738318256 -844.5044929656698 L 789.8589738318256 -844.5044929656698 L 789.8589738318256 -818.5044929656698 L 735.8589738318256 -818.5044929656698" style="stroke-dasharray:3 2;"/>
        <path fill="none" stroke="DarkGray" stroke-opacity="0.7843137254901961" stroke-width="1" d="M 668.8217295034688 -1027.3866687670907 L 704.8217295034688 -1027.3866687670907 A 3,3 0 0 0 707.8217295034688 -1030.3866687670907 L 707.8217295034688 -1046.3866687670907 A 3,3 0 0 0 704.8217295034688 -1049.3866687670907 L 668.8217295034688 -1049.3866687670907 A 3,3 0 0 0 665.8217295034688 -1046.3866687670907 L 665.8217295034688 -1030.3866687670907 A 3,3 0 0 0 668.8217295034688 -1027.3866687670907"/>
        <path fill="none" stroke="Silver" stroke-opacity="0.5882352941176471" stroke-width="0.5" d="M 663.8217295034688 -1025.3866687670907 L 663.8217295034688 -1051.3866687670907 L 709.8217295034688 -1051.3866687670907 L 709.8217295034688 -1025.3866687670907 L 663.8217295034688 -1025.3866687670907" style="stroke-dasharray:3 2;"/>
        <path fill="none" stroke="DarkGray" stroke-opacity="0.7843137254901961" stroke-width="1" d="M 678.7367688386487 -845.1567425334634 L 706.7367688386487 -845.1567425334634 A 3,3 0 0 0 709.7367688386487 -848.1567425334634 L 709.7367688386487 -864.1567425334634 A 3,3 0 0 0 706.7367688386487 -867.1567425334634 L 678.7367688386487 -867.1567425334634 A 3,3 0 0 0 675.7367688386487 -864.1567425334634 L 675.7367688386487 -848.1567425334634 A 3,3 0 0 0 678.7367688386487 -845.1567425334634"/>
        <path fill="none" stroke="Silver" stroke-opacity="0.5882352941176471" stroke-width="0.5" d="M 673.7367688386487 -843.1567425334634 L 673.7367688386487 -869.1567425334634 L 711.7367688386487 -869.1567425334634 L 711.7367688386487 -843.1567425334634 L 673.7367688386487 -843.1567425334634" style="stroke-dasharray:3 2;"/>
        <path fill="none" stroke="DarkGray" stroke-opacity="0.7843137254901961" stroke-width="1" d="M 673.21668229657 -1060.580380484584 L 725.21668229657 -1060.580380484584 A 3,3 0 0 0 728.21668229657 -1063.580380484584 L 728.21668229657 -1079.580380484584 A 3,3 0 0 0 725.21668229657 -1082.580380484584 L 673.21668229657 -1082.580380484584 A 3,3 0 0 0 670.21668229657 -1079.580380484584 L 670.21668229657 -1063.580380484584 A 3,3 0 0 0 673.21668229657 -1060.580380484584"/>
        <path fill="none" stroke="Silver" stroke-opacity="0.5882352941176471" stroke-width="0.5" d="M 668.21668229657 -1058.580380484584 L 668.21668229657 -1084.580380484584 L 730.21668229657 -1084.580380484584 L 730.21668229657 -1058.580380484584 L 668.21668229657 -1058.580380484584" style="stroke-dasharray:3 2;"/>
        <path fill="none" stroke="DarkGray" stroke-opacity="0.7843137254901961" stroke-width="1" d="M 936.7131769613329 -959.1181113377407 L 988.7131769613329 -959.1181113377407 A 3,3 0 0 0 991.7131769613329 -962.1181113377407 L 991.7131769613329 -978.1181113377407 A 3,3 0 0 0 988.7131769613329 -981.1181113377407 L 936.7131769613329 -981.1181113377407 A 3,3 0 0 0 933.7131769613329 -978.1181113377407 L 933.7131769613329 -962.1181113377407 A 3,3 0 0 0 936.7131769613329 -959.1181113377407"/>
        <path fill="none" stroke="Silver" stroke-opacity="0.5882352941176471" stroke-width="0.5" d="M 931.7131769613329 -957.1181113377407 L 931.7131769613329 -983.1181113377407 L 993.7131769613329 -983.1181113377407 L 993.7131769613329 -957.1181113377407 L 931.7131769613329 -957.1181113377407" style="stroke-dasharray:3 2;"/>
        <path fill="none" stroke="DarkGray" stroke-opacity="0.7843137254901961" stroke-width="1" d="M 663.1830087635047 -947.5666604851801 L 691.1830087635047 -947.5666604851801 A 3,3 0 0 0 694.1830087635047 -950.5666604851801 L 694.1830087635047 -966.5666604851801 A 3,3 0 0 0 691.1830087635047 -969.5666604851801 L 663.1830087635047 -969.5666604851801 A 3,3 0 0 0 660.1830087635047 -966.5666604851801 L 660.1830087635047 -950.5666604851801 A 3,3 0 0 0 663.1830087635047 -947.5666604851801"/>
        <path fill="none" stroke="Silver" stroke-opacity="0.5882352941176471" stroke-width="0.5" d="M 658.1830087635047 -945.5666604851801 L 658.1830087635047 -971.5666604851801 L 696.1830087635047 -971.5666604851801 L 696.1830087635047 -945.5666604851801 L 658.1830087635047 -945.5666604851801" style="stroke-dasharray:3 2;"/>
        <path fill="none" stroke="DarkGray" stroke-opacity="0.7843137254901961" stroke-width="1" d="M 972.5690051367129 -925.5494317895863 L 1032.5690051367128 -925.5494317895863 A 3,3 0 0 0 1035.5690051367128 -928.5494317895863 L 1035.5690051367128 -944.5494317895863 A 3,3 0 0 0 1032.5690051367128 -947.5494317895863 L 972.5690051367129 -947.5494317895863 A 3,3 0 0 0 969.5690051367129 -944.5494317895863 L 969.5690051367129 -928.5494317895863 A 3,3 0 0 0 972.5690051367129 -925.5494317895863"/>
        <path fill="none" stroke="Silver" stroke-opacity="0.5882352941176471" stroke-width="0.5" d="M 967.5690051367129 -923.5494317895863 L 967.5690051367129 -949.5494317895863 L 1037.5690051367128 -949.5494317895863 L 1037.5690051367128 -923.5494317895863 L 967.5690051367129 -923.5494317895863" style="stroke-dasharray:3 2;"/>
        <path fill="none" stroke="DarkGray" stroke-opacity="0.7843137254901961" stroke-width="1" d="M 710.935223995368 -878.4486480774115 L 754.935223995368 -878.4486480774115 A 3,3 0 0 0 757.935223995368 -881.4486480774115 L 757.935223995368 -897.4486480774115 A 3,3 0 0 0 754.935223995368 -900.4486480774115 L 710.935223995368 -900.4486480774115 A 3,3 0 0 0 707.935223995368 -897.4486480774115 L 707.935223995368 -881.4486480774115 A 3,3 0 0 0 710.935223995368 -878.4486480774115"/>
        <path fill="none" stroke="Silver" stroke-opacity="0.5882352941176471" stroke-width="0.5" d="M 705.935223995368 -876.4486480774115 L 705.935223995368 -902.4486480774115 L 759.935223995368 -902.4486480774115 L 759.935223995368 -876.4486480774115 L 705.935223995368 -876.4486480774115" style="stroke-dasharray:3 2;"/>
        <path fill="none" stroke="DarkGray" stroke-opacity="0.7843137254901961" stroke-width="1" d="M 582.7999458028944 -989.3195267659224 L 642.7999458028944 -989.3195267659224 A 3,3 0 0 0 645.7999458028944 -992.3195267659224 L 645.7999458028944 -1008.3195267659224 A 3,3 0 0 0 642.7999458028944 -1011.3195267659224 L 582.7999458028944 -1011.3195267659224 A 3,3 0 0 0 579.7999458028944 -1008.3195267659224 L 579.7999458028944 -992.3195267659224 A 3,3 0 0 0 582.7999458028944 -989.3195267659224"/>
        <path fill="none" stroke="Silver" stroke-opacity="0.5882352941176471" stroke-width="0.5" d="M 577.7999458028944 -987.3195267659224 L 577.7999458028944 -1013.3195267659224 L 647.7999458028944 -1013.3195267659224 L 647.7999458028944 -987.3195267659224 L 577.7999458028944 -987.3195267659224" style="stroke-dasharray:3 2;"/>
        <path fill="none" stroke="DarkGray" stroke-opacity="0.7843137254901961" stroke-width="1" d="M 606.2348475399915 -1022.6088452951002 L 650.2348475399915 -1022.6088452951002 A 3,3 0 0 0 653.2348475399915 -1025.6088452951003 L 653.2348475399915 -1041.6088452951003 A 3,3 0 0 0 650.2348475399915 -1044.6088452951003 L 606.2348475399915 -1044.6088452951003 A 3,3 0 0 0 603.2348475399915 -1041.6088452951003 L 603.2348475399915 -1025.6088452951003 A 3,3 0 0 0 606.2348475399915 -1022.6088452951003"/>
        <path fill="none" stroke="Silver" stroke-opacity="0.5882352941176471" stroke-width="0.5" d="M 601.2348475399915 -1020.6088452951003 L 601.2348475399915 -1046.6088452951003 L 655.2348475399915 -1046.6088452951003 L 655.2348475399915 -1020.6088452951003 L 601.2348475399915 -1020.6088452951003" style="stroke-dasharray:3 2;"/>
        <path fill="none" stroke="DarkGray" stroke-opacity="0.7843137254901961" stroke-width="1" d="M 709.0079775448178 -980.9866545708375 L 793.0079775448178 -980.9866545708375 A 3,3 0 0 0 796.0079775448178 -983.9866545708375 L 796.0079775448178 -999.9866545708375 A 3,3 0 0 0 793.0079775448178 -1002.9866545708375 L 709.0079775448178 -1002.9866545708375 A 3,3 0 0 0 706.0079775448178 -999.9866545708375 L 706.0079775448178 -983.9866545708375 A 3,3 0 0 0 709.0079775448178 -980.9866545708375"/>
        <path fill="none" stroke="Silver" stroke-opacity="0.5882352941176471" stroke-width="0.5" d="M 704.0079775448178 -978.9866545708375 L 704.0079775448178 -1004.9866545708375 L 798.0079775448178 -1004.9866545708375 L 798.0079775448178 -978.9866545708375 L 704.0079775448178 -978.9866545708375" style="stroke-dasharray:3 2;"/>
        <path fill="none" stroke="DarkGray" stroke-opacity="0.7843137254901961" stroke-width="1" d="M 967.5623203880756 -998.4311531465204 L 1027.5623203880755 -998.4311531465204 A 3,3 0 0 0 1030.5623203880755 -1001.4311531465204 L 1030.5623203880755 -1017.4311531465204 A 3,3 0 0 0 1027.5623203880755 -1020.4311531465204 L 967.5623203880756 -1020.4311531465204 A 3,3 0 0 0 964.5623203880756 -1017.4311531465204 L 964.5623203880756 -1001.4311531465204 A 3,3 0 0 0 967.5623203880756 -998.4311531465204"/>
        <path fill="none" stroke="Silver" stroke-opacity="0.5882352941176471" stroke-width="0.5" d="M 962.5623203880756 -996.4311531465204 L 962.5623203880756 -1022.4311531465204 L 1032.5623203880755 -1022.4311531465204 L 1032.5623203880755 -996.4311531465204 L 962.5623203880756 -996.4311531465204" style="stroke-dasharray:3 2;"/>
        <path fill="none" stroke="DarkGray" stroke-opacity="0.7843137254901961" stroke-width="1" d="M 726.1559890549006 -1014.1807861304371 L 810.1559890549006 -1014.1807861304371 A 3,3 0 0 0 813.1559890549006 -1017.1807861304371 L 813.1559890549006 -1033.1807861304374 A 3,3 0 0 0 810.1559890549006 -1036.1807861304374 L 726.1559890549006 -1036.1807861304374 A 3,3 0 0 0 723.1559890549006 -1033.1807861304374 L 723.1559890549006 -1017.1807861304371 A 3,3 0 0 0 726.1559890549006 -1014.1807861304371"/>
        <path fill="none" stroke="Silver" stroke-opacity="0.5882352941176471" stroke-width="0.5" d="M 721.1559890549006 -1012.1807861304374 L 721.1559890549006 -1038.1807861304374 L 815.1559890549006 -1038.1807861304374 L 815.1559890549006 -1012.1807861304374 L 721.1559890549006 -1012.1807861304374" style="stroke-dasharray:3 2;"/>
        <path fill="none" stroke="DarkGray" stroke-opacity="0.7843137254901961" stroke-width="1" d="M 909.9466181638995 -895.1242405184082 L 953.9466181638995 -895.1242405184082 A 3,3 0 0 0 956.9466181638995 -898.1242405184082 L 956.9466181638995 -914.1242405184082 A 3,3 0 0 0 953.9466181638995 -917.1242405184082 L 909.9466181638995 -917.1242405184082 A 3,3 0 0 0 906.9466181638995 -914.1242405184082 L 906.9466181638995 -898.1242405184082 A 3,3 0 0 0 909.9466181638995 -895.1242405184082"/>
        <path fill="none" stroke="Silver" stroke-opacity="0.5882352941176471" stroke-width="0.5" d="M 904.9466181638995 -893.1242405184082 L 904.9466181638995 -919.1242405184082 L 958.9466181638995 -919.1242405184082 L 958.9466181638995 -893.1242405184082 L 904.9466181638995 -893.1242405184082" style="stroke-dasharray:3 2;"/>
        <path fill="none" stroke="DarkGray" stroke-opacity="0.7843137254901961" stroke-width="1" d="M 819.1855681913289 -969.2101307823838 L 903.1855681913289 -969.2101307823838 A 3,3 0 0 0 906.1855681913289 -972.2101307823838 L 906.1855681913289 -988.2101307823838 A 3,3 0 0 0 903.1855681913289 -991.2101307823838 L 819.1855681913289 -991.2101307823838 A 3,3 0 0 0 816.1855681913289 -988.2101307823838 L 816.1855681913289 -972.2101307823838 A 3,3 0 0 0 819.1855681913289 -969.2101307823838"/>
        <path fill="none" stroke="Silver" stroke-opacity="0.5882352941176471" stroke-width="0.5" d="M 814.1855681913289 -967.2101307823838 L 814.1855681913289 -993.2101307823838 L 908.1855681913289 -993.2101307823838 L 908.1855681913289 -967.2101307823838 L 814.1855681913289 -967.2101307823838" style="stroke-dasharray:3 2;"/>
        <path fill="none" stroke="DarkGray" stroke-opacity="0.7843137254901961" stroke-width="1" d="M 775.1618088315515 -902.4516457847882 L 891.1618088315515 -902.4516457847882 A 3,3 0 0 0 894.1618088315515 -905.4516457847882 L 894.1618088315515 -921.4516457847882 A 3,3 0 0 0 891.1618088315515 -924.4516457847882 L 775.1618088315515 -924.4516457847882 A 3,3 0 0 0 772.1618088315515 -921.4516457847882 L 772.1618088315515 -905.4516457847882 A 3,3 0 0 0 775.1618088315515 -902.4516457847882"/>
        <path fill="none" stroke="Silver" stroke-opacity="0.5882352941176471" stroke-width="0.5" d="M 770.1618088315515 -900.4516457847882 L 770.1618088315515 -926.4516457847882 L 896.1618088315515 -926.4516457847882 L 896.1618088315515 -900.4516457847882 L 770.1618088315515 -900.4516457847882" style="stroke-dasharray:3 2;"/>
        <path fill="none" stroke="DarkGray" stroke-opacity="0.7843137254901961" stroke-width="1" d="M 853.1070027693886 -935.9337384071528 L 905.1070027693886 -935.9337384071528 A 3,3 0 0 0 908.1070027693886 -938.9337384071528 L 908.1070027693886 -954.9337384071528 A 3,3 0 0 0 905.1070027693886 -957.9337384071528 L 853.1070027693886 -957.9337384071528 A 3,3 0 0 0 850.1070027693886 -954.9337384071528 L 850.1070027693886 -938.9337384071528 A 3,3 0 0 0 853.1070027693886 -935.9337384071528"/>
        <path fill="none" stroke="Silver" stroke-opacity="0.5882352941176471" stroke-width="0.5" d="M 848.1070027693886 -933.9337384071528 L 848.1070027693886 -959.9337384071528 L 910.1070027693886 -959.9337384071528 L 910.1070027693886 -933.9337384071528 L 848.1070027693886 -933.9337384071528" style="stroke-dasharray:3 2;"/>
        <path fill="none" stroke="DarkGray" stroke-opacity="0.7843137254901961" stroke-width="1" d="M 815.8603069149394 -1095.1076646766983 L 851.8603069149394 -1095.1076646766983 A 3,3 0 0 0 854.8603069149394 -1098.1076646766983 L 854.8603069149394 -1114.1076646766983 A 3,3 0 0 0 851.8603069149394 -1117.1076646766983 L 815.8603069149394 -1117.1076646766983 A 3,3 0 0 0 812.8603069149394 -1114.1076646766983 L 812.8603069149394 -1098.1076646766983 A 3,3 0 0 0 815.8603069149394 -1095.1076646766983"/>
        <path fill="none" stroke="Silver" stroke-opacity="0.5882352941176471" stroke-width="0.5" d="M 810.8603069149394 -1093.1076646766983 L 810.8603069149394 -1119.1076646766983 L 856.8603069149394 -1119.1076646766983 L 856.8603069149394 -1093.1076646766983 L 810.8603069149394 -1093.1076646766983" style="stroke-dasharray:3 2;"/>
        <path fill="none" stroke="DarkGray" stroke-opacity="0.7843137254901961" stroke-width="1" d="M 875.0964741691129 -807.8981553167561 L 951.0964741691129 -807.8981553167561 A 3,3 0 0 0 954.0964741691129 -810.8981553167561 L 954.0964741691129 -826.8981553167561 A 3,3 0 0 0 951.0964741691129 -829.8981553167561 L 875.0964741691129 -829.8981553167561 A 3,3 0 0 0 872.0964741691129 -826.8981553167561 L 872.0964741691129 -810.8981553167561 A 3,3 0 0 0 875.0964741691129 -807.8981553167561"/>
        <path fill="none" stroke="Silver" stroke-opacity="0.5882352941176471" stroke-width="0.5" d="M 870.0964741691129 -805.8981553167561 L 870.0964741691129 -831.8981553167561 L 956.0964741691129 -831.8981553167561 L 956.0964741691129 -805.8981553167561 L 870.0964741691129 -805.8981553167561" style="stroke-dasharray:3 2;"/>
        <path fill="none" stroke="IndianRed" stroke-opacity="0.7843137254901961" stroke-width="1.2" d="M 895.6232269450331 -1020.9029343861398 L 895.6232269450331 -1046.9029343861398 L 941.6232269450331 -1046.9029343861398 L 941.6232269450331 -1020.9029343861398 L 895.6232269450331 -1020.9029343861398" style="stroke-dasharray:4 2;"/>
        <path fill="none" stroke="SteelBlue" stroke-opacity="0.7843137254901961" stroke-width="1.2" d="M 625.7770682579564 -876.5990499547709 L 625.7770682579564 -902.5990499547709 L 695.7770682579564 -902.5990499547709 L 695.7770682579564 -876.5990499547709 L 625.7770682579564 -876.5990499547709" style="stroke-dasharray:4 2;"/>
        <path fill="none" stroke="CornflowerBlue" stroke-opacity="0.3137254901960784" stroke-width="0.5" d="M 895.6232269450331 -1046.9029343861398 L 895.6232269450331 -1020.9029343861398 L 941.6232269450331 -1046.9029343861398 L 895.6232269450331 -1046.9029343861398"/>
        <path fill="none" stroke="CornflowerBlue" stroke-opacity="0.3137254901960784" stroke-width="0.5" d="M 887.2017211990682 -1042.9408776944483 L 895.6232269450331 -1020.9029343861398 L 895.6232269450331 -1046.9029343861398 L 887.2017211990682 -1042.9408776944483"/>
        <path fill="none" stroke="CornflowerBlue" stroke-opacity="0.3137254901960784" stroke-width="0.5" d="M 895.6232269450331 -1020.9029343861398 L 887.2017211990682 -1042.9408776944483 L 887.2017211990682 -1016.9408776944483 L 895.6232269450331 -1020.9029343861398"/>
        <path fill="none" stroke="CornflowerBlue" stroke-opacity="0.3137254901960784" stroke-width="0.5" d="M 887.2017211990682 -1016.9408776944483 L 908.1855681913289 -993.2101307823838 L 895.6232269450331 -1020.9029343861398 L 887.2017211990682 -1016.9408776944483"/>
        <path fill="none" stroke="CornflowerBlue" stroke-opacity="0.3137254901960784" stroke-width="0.5" d="M 887.2017211990682 -1016.9408776944483 L 814.1855681913289 -993.2101307823838 L 908.1855681913289 -993.2101307823838 L 887.2017211990682 -1016.9408776944483"/>
        <path fill="none" stroke="CornflowerBlue" stroke-opacity="0.3137254901960784" stroke-width="0.5" d="M 825.2017211990683 -1016.9408776944483 L 814.1855681913289 -993.2101307823838 L 887.2017211990682 -1016.9408776944483 L 825.2017211990683 -1016.9408776944483"/>
        <path fill="none" stroke="CornflowerBlue" stroke-opacity="0.3137254901960784" stroke-width="0.5" d="M 815.1559890549006 -1012.1807861304374 L 814.1855681913289 -993.2101307823838 L 825.2017211990683 -1016.9408776944483 L 815.1559890549006 -1012.1807861304374"/>
        <path fill="none" stroke="CornflowerBlue" stroke-opacity="0.3137254901960784" stroke-width="0.5" d="M 798.0079775448178 -1004.9866545708375 L 814.1855681913289 -993.2101307823838 L 815.1559890549006 -1012.1807861304374 L 798.0079775448178 -1004.9866545708375"/>
        <path fill="none" stroke="CornflowerBlue" stroke-opacity="0.3137254901960784" stroke-width="0.5" d="M 798.0079775448178 -978.9866545708375 L 814.1855681913289 -993.2101307823838 L 798.0079775448178 -1004.9866545708375 L 798.0079775448178 -978.9866545708375"/>
        <path fill="none" stroke="CornflowerBlue" stroke-opacity="0.3137254901960784" stroke-width="0.5" d="M 798.0079775448178 -978.9866545708375 L 814.1855681913289 -967.2101307823838 L 814.1855681913289 -993.2101307823838 L 798.0079775448178 -978.9866545708375"/>
        <path fill="none" stroke="CornflowerBlue" stroke-opacity="0.3137254901960784" stroke-width="0.5" d="M 770.1618088315515 -926.4516457847882 L 814.1855681913289 -967.2101307823838 L 798.0079775448178 -978.9866545708375 L 770.1618088315515 -926.4516457847882"/>
        <path fill="none" stroke="CornflowerBlue" stroke-opacity="0.3137254901960784" stroke-width="0.5" d="M 704.0079775448178 -978.9866545708375 L 770.1618088315515 -926.4516457847882 L 798.0079775448178 -978.9866545708375 L 704.0079775448178 -978.9866545708375"/>
        <path fill="none" stroke="CornflowerBlue" stroke-opacity="0.3137254901960784" stroke-width="0.5" d="M 696.1830087635047 -945.5666604851801 L 770.1618088315515 -926.4516457847882 L 704.0079775448178 -978.9866545708375 L 696.1830087635047 -945.5666604851801"/>
        <path fill="none" stroke="CornflowerBlue" stroke-opacity="0.3137254901960784" stroke-width="0.5" d="M 770.1618088315515 -926.4516457847882 L 696.1830087635047 -945.5666604851801 L 705.935223995368 -902.4486480774115 L 770.1618088315515 -926.4516457847882"/>
        <path fill="none" stroke="CornflowerBlue" stroke-opacity="0.3137254901960784" stroke-width="0.5" d="M 696.1830087635047 -945.5666604851801 L 695.7770682579564 -902.5990499547709 L 705.935223995368 -902.4486480774115 L 696.1830087635047 -945.5666604851801"/>
        <path fill="none" stroke="CornflowerBlue" stroke-opacity="0.3137254901960784" stroke-width="0.5" d="M 695.7770682579564 -902.5990499547709 L 695.7770682579564 -876.5990499547709 L 705.935223995368 -902.4486480774115 L 695.7770682579564 -902.5990499547709"/>
        <path fill="none" stroke="CornflowerBlue" stroke-opacity="0.3137254901960784" stroke-width="0.5" d="M 625.7770682579564 -876.5990499547709 L 695.7770682579564 -876.5990499547709 L 695.7770682579564 -902.5990499547709 L 625.7770682579564 -876.5990499547709"/>
        <path fill="none" stroke="Red" stroke-opacity="1" stroke-width="2.5" d="M 899.0601317942284 -1023.3423224378877 L 887.2017211990682 -1016.9408776944482 L 814.1855681913289 -993.2101307823838 L 798.0079775448178 -978.9866545708375 L 677.6646446578295 -900.5990499547709"/>
        <path fill="none" stroke="Red" stroke-opacity="1" stroke-width="2" d="M 915.6232269450331 -1033.9029343861398 L 921.6232269450331 -1033.9029343861398"/>
        <path fill="none" stroke="Red" stroke-opacity="1" stroke-width="2" d="M 918.6232269450331 -1030.9029343861398 L 918.6232269450331 -1036.9029343861398"/>
        <path fill="none" stroke="Blue" stroke-opacity="1" stroke-width="2" d="M 657.7770682579564 -889.5990499547709 L 663.7770682579564 -889.5990499547709"/>
        <path fill="none" stroke="Blue" stroke-opacity="1" stroke-width="2" d="M 660.7770682579564 -886.5990499547709 L 660.7770682579564 -892.5990499547709"/>
        <path fill="none" stroke="DarkRed" stroke-opacity="1" stroke-width="1.5" d="M 900.6232269450331 -1022.9029343861397 L 936.6232269450331 -1022.9029343861397 A 3,3 0 0 0 939.6232269450331 -1025.9029343861398 L 939.6232269450331 -1041.9029343861398 A 3,3 0 0 0 936.6232269450331 -1044.9029343861398 L 900.6232269450331 -1044.9029343861398 A 3,3 0 0 0 897.6232269450331 -1041.9029343861398 L 897.6232269450331 -1025.9029343861398 A 3,3 0 0 0 900.6232269450331 -1022.9029343861398"/>
        <path fill="none" stroke="DarkBlue" stroke-opacity="1" stroke-width="1.5" d="M 630.7770682579564 -878.5990499547709 L 690.7770682579564 -878.5990499547709 A 3,3 0 0 0 693.7770682579564 -881.5990499547709 L 693.7770682579564 -897.5990499547709 A 3,3 0 0 0 690.7770682579564 -900.5990499547709 L 630.7770682579564 -900.5990499547709 A 3,3 0 0 0 627.7770682579564 -897.5990499547709 L 627.7770682579564 -881.5990499547709 A 3,3 0 0 0 630.7770682579564 -878.5990499547709"/>
    </g>
</svg>