<svg xmlns:svg="http://www.w3.org/2000/svg" xmlns="http://www.w3.org/2000/svg" version="1.1" width="484.6521372639512" height="476.429151627878">
    <g transform="translate(-640.4824502621663,1293.6914278048496)">
        <path fill="none" stroke="DarkGray" stroke-opacity="0.7843137254901961" stroke-width="1" d="M 904.4360345513759 -1056.1289866608658 L 948.4360345513759 -1056.1289866608658 A 3,3 0 0 0 951.4360345513759 -1059.1289866608658 L 951.4360345513759 -1075.1289866608658 A 3,3 0 0 0 948.4360345513759 -1078.1289866608658 L 904.4360345513759 -1078.1289866608658 A 3,3 0 0 0 901.4360345513759 -1075.1289866608658 L 901.4360345513759 -1059.1289866608658 A 3,3 0 0 0 904.4360345513759 -1056.1289866608658"/>
        <path fill="none" stroke="Silver" stroke-opacity="0.5882352941176471" stroke-width="0.5" d="M 899.4360345513759 -1054.1289866608658 L 899.4360345513759 -1080.1289866608658 L 953.4360345513759 -1080.1289866608658 L 953.4360345513759 -1054.1289866608658 L 899.4360345513759 -1054.1289866608658" style="stroke-dasharray:3 2;"/>
        <path fill="none" stroke="DarkGray" stroke-opacity="0.7843137254901961" stroke-width="1" d="M 900.6232269450331 -1022.9029343861397 L 936.6232269450331 -1022.9029343861397 A 3,3 0 0 0 939.6232269450331 -1025.9029343861398 L 939.6232269450331 -1041.9029343861398 A 3,3 0 0 0 936.6232269450331 -1044.9029343861398 L 900.6232269450331 -1044.9029343861398 A 3,3 0 0 0 897.6232269450331 -1041.9029343861398 L 897.6232269450331 -1025.9029343861398 A 3,3 0 0 0 900.6232269450331 -1022.9029343861398"/>
        <path fill="none" stroke="Silver" stroke-opacity="0.5882352941176471" stroke-width="0.5" d="M 895.6232269450331 -1020.9029343861398 L 895.6232269450331 -1046.9029343861398 L 941.6232269450331 -1046.9029343861398 L 941.6232269450331 -1020.9029343861398 L 895.6232269450331 -1020.9029343861398" style="stroke-dasharray:3 2;"/>
        <path fill="none" stroke="DarkGray" stroke-opacity="0.7843137254901961" stroke-width="1" d="M 1015.4497881622988 -1187.8393658996538 L 1091.4497881622988 -1187.8393658996538 A 3,3 0 0 0 1094.4497881622988 -1190.8393658996538 L 1094.4497881622988 -1206.8393658996538 A 3,3 0 0 0 1091.4497881622988 -1209.8393658996538 L 1015.4497881622988 -1209.8393658996538 A 3,3 0 0 0 1012.4497881622988 -1206.8393658996538 L 1012.4497881622988 -1190.8393658996538 A 3,3 0 0 0 1015.4497881622988 -1187.8393658996538"/>
        <path fill="none" stroke="Silver" stroke-opacity="0.5882352941176471" stroke-width="0.5" d="M 1010.4497881622988 -1185.8393658996538 L 1010.4497881622988 -1211.8393658996538 L 1096.4497881622988 -1211.8393658996538 L 1096.4497881622988 -1185.8393658996538 L 1010.4497881622988 -1185.8393658996538" style="stroke-dasharray:3 2;"/>
        <path fill="none" stroke="DarkGray" stroke-opacity="0.7843137254901961" stroke-width="1" d="M 870.3517496747087 -1089.2201504406908 L 914.3517496747087 -1089.2201504406908 A 3,3 0 0 0 917.3517496747087 -1092.2201504406908 L 917.3517496747087 -1108.2201504406908 A 3,3 0 0 0 914.3517496747087 -1111.2201504406908 L 870.3517496747087 -1111.2201504406908 A 3,3 0 0 0 867.3517496747087 -1108.2201504406908 L 867.3517496747087 -1092.2201504406908 A 3,3 0 0 0 870.3517496747087 -1089.2201504406908"/>
        <path fill="none" stroke="Silver" stroke-opacity="0.5882352941176471" stroke-width="0.5" d="M 865.3517496747087 -1087.2201504406908 L 865.3517496747087 -1113.2201504406908 L 919.3517496747087 -1113.2201504406908 L 919.3517496747087 -1087.2201504406908 L 865.3517496747087 -1087.2201504406908" style="stroke-dasharray:3 2;"/>
        <path fill="none" stroke="DarkGray" stroke-opacity="0.7843137254901961" stroke-width="1" d="M 852.885799536191 -841.2919187798784 L 888.885799536191 -841.2919187798784 A 3,3 0 0 0 891.885799536191 -844.2919187798784 L 891.885799536191 -860.2919187798784 A 3,3 0 0 0 888.885799536191 -863.2919187798784 L 852.885799536191 -863.2919187798784 A 3,3 0 0 0 849.885799536191 -860.2919187798784 L 849.885799536191 -844.2919187798784 A 3,3 0 0 0 852.885799536191 -841.2919187798784"/>
        <path fill="none" stroke="Silver" stroke-opacity="0.5882352941176471" stroke-width="0.5" d="M 847.885799536191 -839.2919187798784 L 847.885799536191 -865.2919187798784 L 893.885799536191 -865.2919187798784 L 893.885799536191 -839.2919187798784 L 847.885799536191 -839.2919187798784" style="stroke-dasharray:3 2;"/>
        <path fill="none" stroke="DarkGray" stroke-opacity="0.7843137254901961" stroke-width="1" d="M 918.6454742688253 -1220.389758719658 L 986.6454742688253 -1220.389758719658 A 3,3 0 0 0 989.6454742688253 -1223.389758719658 L 989.6454742688253 -1239.389758719658 A 3,3 0 0 0 986.6454742688253 -1242.389758719658 L 918.6454742688253 -1242.389758719658 A 3,3 0 0 0 915.6454742688253 -1239.389758719658 L 915.6454742688253 -1223.389758719658 A 3,3 0 0 0 918.6454742688253 -1220.389758719658"/>
        <path fill="none" stroke="Silver" stroke-opacity="0.5882352941176471" stroke-width="0.5" d="M 913.6454742688253 -1218.389758719658 L 913.6454742688253 -1244.389758719658 L 991.6454742688253 -1244.389758719658 L 991.6454742688253 -1218.389758719658 L 913.6454742688253 -1218.389758719658" style="stroke-dasharray:3 2;"/>
        <path fill="none" stroke="DarkGray" stroke-opacity="0.7843137254901961" stroke-width="1" d="M 830.2017211990683 -1018.9408776944482 L 882.2017211990682 -1018.9408776944482 A 3,3 0 0 0 885.2017211990682 -1021.9408776944482 L 885.2017211990682 -1037.9408776944483 A 3,3 0 0 0 882.2017211990682 -1040.9408776944483 L 830.2017211990683 -1040.9408776944483 A 3,3 0 0 0 827.2017211990683 -1037.9408776944483 L 827.2017211990683 -1021.9408776944482 A 3,3 0 0 0 830.2017211990683 -1018.9408776944482"/>
        <path fill="none" stroke="Silver" stroke-opacity="0.5882352941176471" stroke-width="0.5" d="M 825.2017211990683 -1016.9408776944483 L 825.2017211990683 -1042.9408776944483 L 887.2017211990682 -1042.9408776944483 L 887.2017211990682 -1016.9408776944483 L 825.2017211990683 -1016.9408776944483" style="stroke-dasharray:3 2;"/>
        <path fill="none" stroke="DarkGray" stroke-opacity="0.7843137254901961" stroke-width="1" d="M 966.3643527322959 -1045.7177363367764 L 1018.3643527322959 -1045.7177363367764 A 3,3 0 0 0 1021.3643527322959 -1048.7177363367764 L 1021.3643527322959 -1064.7177363367764 A 3,3 0 0 0 1018.3643527322959 -1067.7177363367764 L 966.3643527322959 -1067.7177363367764 A 3,3 0 0 0 963.3643527322959 -1064.7177363367764 L 963.3643527322959 -1048.7177363367764 A 3,3 0 0 0 966.3643527322959 -1045.7177363367764"/>
        <path fill="none" stroke="Silver" stroke-opacity="0.5882352941176471" stroke-width="0.5" d="M 961.3643527322959 -1043.7177363367764 L 961.3643527322959 -1069.7177363367764 L 1023.3643527322959 -1069.7177363367764 L 1023.3643527322959 -1043.7177363367764 L 961.3643527322959 -1043.7177363367764" style="stroke-dasharray:3 2;"/>
        <path fill="none" stroke="DarkGray" stroke-opacity="0.7843137254901961" stroke-width="1" d="M 855.333761535544 -1204.6852258146537 L 899.333761535544 -1204.6852258146537 A 3,3 0 0 0 902.333761535544 -1207.6852258146537 L 902.333761535544 -1223.6852258146537 A 3,3 0 0 0 899.333761535544 -1226.6852258146537 L 855.333761535544 -1226.6852258146537 A 3,3 0 0 0 852.333761535544 -1223.6852258146537 L 852.333761535544 -1207.6852258146537 A 3,3 0 0 0 855.333761535544 -1204.6852258146537"/>
        <path fill="none" stroke="Silver" stroke-opacity="0.5882352941176471" stroke-width="0.5" d="M 850.333761535544 -1202.6852258146537 L 850.333761535544 -1228.6852258146537 L 904.333761535544 -1228.6852258146537 L 904.333761535544 -1202.6852258146537 L 850.333761535544 -1202.6852258146537" style="stroke-dasharray:3 2;"/>
        <path fill="none" stroke="DarkGray" stroke-opacity="0.7843137254901961" stroke-width="1" d="M 673.21668229657 -1060.580380484584 L 725.21668229657 -1060.580380484584 A 3,3 0 0 0 728.21668229657 -1063.580380484584 L 728.21668229657 -1079.580380484584 A 3,3 0 0 0 725.21668229657 -1082.580380484584 L 673.21668229657 -1082.580380484584 A 3,3 0 0 0 670.21668229657 -1079.580380484584 L 670.21668229657 -1063.580380484584 A 3,3 0 0 0 673.21668229657 -1060.580380484584"/>
        <path fill="none" stroke="Silver" stroke-opacity="0.5882352941176471" stroke-width="0.5" d="M 668.21668229657 -1058.580380484584 L 668.21668229657 -1084.580380484584 L 730.21668229657 -1084.580380484584 L 730.21668229657 -1058.580380484584 L 668.21668229657 -1058.580380484584" style="stroke-dasharray:3 2;"/>
        <path fill="none" stroke="DarkGray" stroke-opacity="0.7843137254901961" stroke-width="1" d="M 1007.9709662263257 -964.9185279256566 L 1059.9709662263258 -964.9185279256566 A 3,3 0 0 0 1062.9709662263258 -967.9185279256566 L 1062.9709662263258 -983.9185279256566 A 3,3 0 0 0 1059.9709662263258 -986.9185279256566 L 1007.9709662263257 -986.9185279256566 A 3,3 0 0 0 1004.9709662263257 -983.9185279256566 L 1004.9709662263257 -967.9185279256566 A 3,3 0 0 0 1007.9709662263257 -964.9185279256566"/>
        <path fill="none" stroke="Silver" stroke-opacity="0.5882352941176471" stroke-width="0.5" d="M 1002.9709662263257 -962.9185279256566 L 1002.9709662263257 -988.9185279256566 L 1064.9709662263258 -988.9185279256566 L 1064.9709662263258 -962.9185279256566 L 1002.9709662263257 -962.9185279256566" style="stroke-dasharray:3 2;"/>
        <path fill="none" stroke="DarkGray" stroke-opacity="0.7843137254901961" stroke-width="1" d="M 1006.3854064514287 -1247.6617852019426 L 1066.3854064514287 -1247.6617852019426 A 3,3 0 0 0 1069.3854064514287 -1250.6617852019426 L 1069.3854064514287 -1266.6617852019426 A 3,3 0 0 0 1066.3854064514287 -1269.6617852019426 L 1006.3854064514287 -1269.6617852019426 A 3,3 0 0 0 1003.3854064514287 -1266.6617852019426 L 1003.3854064514287 -1250.6617852019426 A 3,3 0 0 0 1006.3854064514287 -1247.6617852019426"/>
        <path fill="none" stroke="Silver" stroke-opacity="0.5882352941176471" stroke-width="0.5" d="M 1001.3854064514287 -1245.6617852019426 L 1001.3854064514287 -1271.6617852019426 L 1071.3854064514287 -1271.6617852019426 L 1071.3854064514287 -1245.6617852019426 L 1001.3854064514287 -1245.6617852019426" style="stroke-dasharray:3 2;"/>
        <path fill="none" stroke="DarkGray" stroke-opacity="0.7843137254901961" stroke-width="1" d="M 936.7131769613329 -959.1181113377407 L 988.7131769613329 -959.1181113377407 A 3,3 0 0 0 991.7131769613329 -962.1181113377407 L 991.7131769613329 -978.1181113377407 A 3,3 0 0 0 988.7131769613329 -981.1181113377407 L 936.7131769613329 -981.1181113377407 A 3,3 0 0 0 933.7131769613329 -978.1181113377407 L 933.7131769613329 -962.1181113377407 A 3,3 0 0 0 936.7131769613329 -959.1181113377407"/>
        <path fill="none" stroke="Silver" stroke-opacity="0.5882352941176471" stroke-width="0.5" d="M 931.7131769613329 -957.1181113377407 L 931.7131769613329 -983.1181113377407 L 993.7131769613329 -983.1181113377407 L 993.7131769613329 -957.1181113377407 L 931.7131769613329 -957.1181113377407" style="stroke-dasharray:3 2;"/>
        <path fill="none" stroke="DarkGray" stroke-opacity="0.7843137254901961" stroke-width="1" d="M 1054.1049449232105 -850.6959489598543 L 1098.1049449232105 -850.6959489598543 A 3,3 0 0 0 1101.1049449232105 -853.6959489598543 L 1101.1049449232105 -869.6959489598543 A 3,3 0 0 0 1098.1049449232105 -872.6959489598543 L 1054.1049449232105 -872.6959489598543 A 3,3 0 0 0 1051.1049449232105 -869.6959489598543 L 1051.1049449232105 -853.6959489598543 A 3,3 0 0 0 1054.1049449232105 -850.6959489598543"/>
        <path fill="none" stroke="Silver" stroke-opacity="0.5882352941176471" stroke-width="0.5" d="M 1049.1049449232105 -848.6959489598543 L 1049.1049449232105 -874.6959489598543 L 1103.1049449232105 -874.6959489598543 L 1103.1049449232105 -848.6959489598543 L 1049.1049449232105 -848.6959489598543" style="stroke-dasharray:3 2;"/>
        <path fill="none" stroke="DarkGray" stroke-opacity="0.7843137254901961" stroke-width="1" d="M 1048.5033591459453 -1031.7889128881552 L 1092.5033591459453 -1031.7889128881552 A 3,3 0 0 0 1095.5033591459453 -1034.7889128881552 L 1095.5033591459453 -1050.7889128881552 A 3,3 0 0 0 1092.5033591459453 -1053.7889128881552 L 1048.5033591459453 -1053.7889128881552 A 3,3 0 0 0 1045.5033591459453 -1050.7889128881552 L 1045.5033591459453 -1034.7889128881552 A 3,3 0 0 0 1048.5033591459453 -1031.7889128881552"/>
        <path fill="none" stroke="Silver" stroke-opacity="0.5882352941176471" stroke-width="0.5" d="M 1043.5033591459453 -1029.7889128881552 L 1043.5033591459453 -1055.7889128881552 L 1097.5033591459453 -1055.7889128881552 L 1097.5033591459453 -1029.7889128881552 L 1043.5033591459453 -1029.7889128881552" style="stroke-dasharray:3 2;"/>
        <path fill="none" stroke="DarkGray" stroke-opacity="0.7843137254901961" stroke-width="1" d="M 972.5690051367129 -925.5494317895863 L 1032.5690051367128 -925.5494317895863 A 3,3 0 0 0 1035.5690051367128 -928.5494317895863 L 1035.5690051367128 -944.5494317895863 A 3,3 0 0 0 1032.5690051367128 -947.5494317895863 L 972.5690051367129 -947.5494317895863 A 3,3 0 0 0 969.5690051367129 -944.5494317895863 L 969.5690051367129 -928.5494317895863 A 3,3 0 0 0 972.5690051367129 -925.5494317895863"/>
        <path fill="none" stroke="Silver" stroke-opacity="0.5882352941176471" stroke-width="0.5" d="M 967.5690051367129 -923.5494317895863 L 967.5690051367129 -949.5494317895863 L 1037.5690051367128 -949.5494317895863 L 1037.5690051367128 -923.5494317895863 L 967.5690051367129 -923.5494317895863" style="stroke-dasharray:3 2;"/>
        <path fill="none" stroke="DarkGray" stroke-opacity="0.7843137254901961" stroke-width="1" d="M 710.935223995368 -878.4486480774115 L 754.935223995368 -878.4486480774115 A 3,3 0 0 0 757.935223995368 -881.4486480774115 L 757.935223995368 -897.4486480774115 A 3,3 0 0 0 754.935223995368 -900.4486480774115 L 710.935223995368 -900.4486480774115 A 3,3 0 0 0 707.935223995368 -897.4486480774115 L 707.935223995368 -881.4486480774115 A 3,3 0 0 0 710.935223995368 -878.4486480774115"/>
        <path fill="none" stroke="Silver" stroke-opacity="0.5882352941176471" stroke-width="0.5" d="M 705.935223995368 -876.4486480774115 L 705.935223995368 -902.4486480774115 L 759.935223995368 -902.4486480774115 L 759.935223995368 -876.4486480774115 L 705.935223995368 -876.4486480774115" style="stroke-dasharray:3 2;"/>
        <path fill="none" stroke="DarkGray" stroke-opacity="0.7843137254901961" stroke-width="1" d="M 709.0079775448178 -980.9866545708375 L 793.0079775448178 -980.9866545708375 A 3,3 0 0 0 796.0079775448178 -983.9866545708375 L 796.0079775448178 -999.9866545708375 A 3,3 0 0 0 793.0079775448178 -1002.9866545708375 L 709.0079775448178 -1002.9866545708375 A 3,3 0 0 0 706.0079775448178 -999.9866545708375 L 706.0079775448178 -983.9866545708375 A 3,3 0 0 0 709.0079775448178 -980.9866545708375"/>
        <path fill="none" stroke="Silver" stroke-opacity="0.5882352941176471" stroke-width="0.5" d="M 704.0079775448178 -978.9866545708375 L 704.0079775448178 -1004.9866545708375 L 798.0079775448178 -1004.9866545708375 L 798.0079775448178 -978.9866545708375 L 704.0079775448178 -978.9866545708375" style="stroke-dasharray:3 2;"/>
        <path fill="none" stroke="DarkGray" stroke-opacity="0.7843137254901961" stroke-width="1" d="M 967.5623203880756 -998.4311531465204 L 1027.5623203880755 -998.4311531465204 A 3,3 0 0 0 1030.5623203880755 -1001.4311531465204 L 1030.5623203880755 -1017.4311531465204 A 3,3 0 0 0 1027.5623203880755 -1020.4311531465204 L 967.5623203880756 -1020.4311531465204 A 3,3 0 0 0 964.5623203880756 -1017.4311531465204 L 964.5623203880756 -1001.4311531465204 A 3,3 0 0 0 967.5623203880756 -998.4311531465204"/>
        <path fill="none" stroke="Silver" stroke-opacity="0.5882352941176471" stroke-width="0.5" d="M 962.5623203880756 -996.4311531465204 L 962.5623203880756 -1022.4311531465204 L 1032.5623203880755 -1022.4311531465204 L 1032.5623203880755 -996.4311531465204 L 962.5623203880756 -996.4311531465204" style="stroke-dasharray:3 2;"/>
        <path fill="none" stroke="DarkGray" stroke-opacity="0.7843137254901961" stroke-width="1" d="M 727.79324996167 -1128.7217565567425 L 811.79324996167 -1128.7217565567425 A 3,3 0 0 0 814.79324996167 -1131.7217565567425 L 814.79324996167 -1147.7217565567425 A 3,3 0 0 0 811.79324996167 -1150.7217565567425 L 727.79324996167 -1150.7217565567425 A 3,3 0 0 0 724.79324996167 -1147.7217565567425 L 724.79324996167 -1131.7217565567425 A 3,3 0 0 0 727.79324996167 -1128.7217565567425"/>
        <path fill="none" stroke="Silver" stroke-opacity="0.5882352941176471" stroke-width="0.5" d="M 722.79324996167 -1126.7217565567425 L 722.79324996167 -1152.7217565567425 L 816.79324996167 -1152.7217565567425 L 816.79324996167 -1126.7217565567425 L 722.79324996167 -1126.7217565567425" style="stroke-dasharray:3 2;"/>
        <path fill="none" stroke="DarkGray" stroke-opacity="0.7843137254901961" stroke-width="1" d="M 921.0568224230173 -1136.3776441477594 L 997.0568224230173 -1136.3776441477594 A 3,3 0 0 0 1000.0568224230173 -1139.3776441477594 L 1000.0568224230173 -1155.3776441477594 A 3,3 0 0 0 997.0568224230173 -1158.3776441477594 L 921.0568224230173 -1158.3776441477594 A 3,3 0 0 0 918.0568224230173 -1155.3776441477594 L 918.0568224230173 -1139.3776441477594 A 3,3 0 0 0 921.0568224230173 -1136.3776441477594"/>
        <path fill="none" stroke="Silver" stroke-opacity="0.5882352941176471" stroke-width="0.5" d="M 916.0568224230173 -1134.3776441477594 L 916.0568224230173 -1160.3776441477594 L 1002.0568224230173 -1160.3776441477594 L 1002.0568224230173 -1134.3776441477594 L 916.0568224230173 -1134.3776441477594" style="stroke-dasharray:3 2;"/>
        <path fill="none" stroke="DarkGray" stroke-opacity="0.7843137254901961" stroke-width="1" d="M 726.5196131997109 -1162.243885994546 L 778.5196131997109 -1162.243885994546 A 3,3 0 0 0 781.5196131997109 -1165.243885994546 L 781.5196131997109 -1181.243885994546 A 3,3 0 0 0 778.5196131997109 -1184.243885994546 L 726.5196131997109 -1184.243885994546 A 3,3 0 0 0 723.5196131997109 -1181.243885994546 L 723.5196131997109 -1165.243885994546 A 3,3 0 0 0 726.5196131997109 -1162.243885994546"/>
        <path fill="none" stroke="Silver" stroke-opacity="0.5882352941176471" stroke-width="0.5" d="M 721.5196131997109 -1160.243885994546 L 721.5196131997109 -1186.243885994546 L 783.5196131997109 -1186.243885994546 L 783.5196131997109 -1160.243885994546 L 721.5196131997109 -1160.243885994546" style="stroke-dasharray:3 2;"/>
        <path fill="none" stroke="DarkGray" stroke-opacity="0.7843137254901961" stroke-width="1" d="M 726.1559890549006 -1014.1807861304371 L 810.1559890549006 -1014.1807861304371 A 3,3 0 0 0 813.1559890549006 -1017.1807861304371 L 813.1559890549006 -1033.1807861304374 A 3,3 0 0 0 810.1559890549006 -1036.1807861304374 L 726.1559890549006 -1036.1807861304374 A 3,3 0 0 0 723.1559890549006 -1033.1807861304374 L 723.1559890549006 -1017.1807861304371 A 3,3 0 0 0 726.1559890549006 -1014.1807861304371"/>
        <path fill="none" stroke="Silver" stroke-opacity="0.5882352941176471" stroke-width="0.5" d="M 721.1559890549006 -1012.1807861304374 L 721.1559890549006 -1038.1807861304374 L 815.1559890549006 -1038.1807861304374 L 815.1559890549006 -1012.1807861304374 L 721.1559890549006 -1012.1807861304374" style="stroke-dasharray:3 2;"/>
        <path fill="none" stroke="DarkGray" stroke-opacity="0.7843137254901961" stroke-width="1" d="M 909.9466181638995 -895.1242405184082 L 953.9466181638995 -895.1242405184082 A 3,3 0 0 0 956.9466181638995 -898.1242405184082 L 956.9466181638995 -914.1242405184082 A 3,3 0 0 0 953.9466181638995 -917.1242405184082 L 909.9466181638995 -917.1242405184082 A 3,3 0 0 0 906.9466181638995 -914.1242405184082 L 906.9466181638995 -898.1242405184082 A 3,3 0 0 0 909.9466181638995 -895.1242405184082"/>
        <path fill="none" stroke="Silver" stroke-opacity="0.5882352941176471" stroke-width="0.5" d="M 904.9466181638995 -893.1242405184082 L 904.9466181638995 -919.1242405184082 L 958.9466181638995 -919.1242405184082 L 958.9466181638995 -893.1242405184082 L 904.9466181638995 -893.1242405184082" style="stroke-dasharray:3 2;"/>
        <path fill="none" stroke="DarkGray" stroke-opacity="0.7843137254901961" stroke-width="1" d="M 819.1855681913289 -969.2101307823838 L 903.1855681913289 -969.2101307823838 A 3,3 0 0 0 906.1855681913289 -972.2101307823838 L 906.1855681913289 -988.2101307823838 A 3,3 0 0 0 903.1855681913289 -991.2101307823838 L 819.1855681913289 -991.2101307823838 A 3,3 0 0 0 816.1855681913289 -988.2101307823838 L 816.1855681913289 -972.2101307823838 A 3,3 0 0 0 819.1855681913289 -969.2101307823838"/>
        <path fill="none" stroke="Silver" stroke-opacity="0.5882352941176471" stroke-width="0.5" d="M 814.1855681913289 -967.2101307823838 L 814.1855681913289 -993.2101307823838 L 908.1855681913289 -993.2101307823838 L 908.1855681913289 -967.2101307823838 L 814.1855681913289 -967.2101307823838" style="stroke-dasharray:3 2;"/>
        <path fill="none" stroke="DarkGray" stroke-opacity="0.7843137254901961" stroke-width="1" d="M 1037.3099646585274 -1086.0239320486266 L 1081.3099646585274 -1086.0239320486266 A 3,3 0 0 0 1084.3099646585274 -1089.0239320486266 L 1084.3099646585274 -1105.0239320486266 A 3,3 0 0 0 1081.3099646585274 -1108.0239320486266 L 1037.3099646585274 -1108.0239320486266 A 3,3 0 0 0 1034.3099646585274 -1105.0239320486266 L 1034.3099646585274 -1089.0239320486266 A 3,3 0 0 0 1037.3099646585274 -1086.0239320486266"/>
        <path fill="none" stroke="Silver" stroke-opacity="0.5882352941176471" stroke-width="0.5" d="M 1032.3099646585274 -1084.0239320486266 L 1032.3099646585274 -1110.0239320486266 L 1086.3099646585274 -1110.0239320486266 L 1086.3099646585274 -1084.0239320486266 L 1032.3099646585274 -1084.0239320486266" style="stroke-dasharray:3 2;"/>
        <path fill="none" stroke="DarkGray" stroke-opacity="0.7843137254901961" stroke-width="1" d="M 853.1070027693886 -935.9337384071528 L 905.1070027693886 -935.9337384071528 A 3,3 0 0 0 908.1070027693886 -938.9337384071528 L 908.1070027693886 -954.9337384071528 A 3,3 0 0 0 905.1070027693886 -957.9337384071528 L 853.1070027693886 -957.9337384071528 A 3,3 0 0 0 850.1070027693886 -954.9337384071528 L 850.1070027693886 -938.9337384071528 A 3,3 0 0 0 853.1070027693886 -935.9337384071528"/>
        <path fill="none" stroke="Silver" stroke-opacity="0.5882352941176471" stroke-width="0.5" d="M 848.1070027693886 -933.9337384071528 L 848.1070027693886 -959.9337384071528 L 910.1070027693886 -959.9337384071528 L 910.1070027693886 -933.9337384071528 L 848.1070027693886 -933.9337384071528" style="stroke-dasharray:3 2;"/>
        <path fill="none" stroke="DarkGray" stroke-opacity="0.7843137254901961" stroke-width="1" d="M 815.8603069149394 -1095.1076646766983 L 851.8603069149394 -1095.1076646766983 A 3,3 0 0 0 854.8603069149394 -1098.1076646766983 L 854.8603069149394 -1114.1076646766983 A 3,3 0 0 0 851.8603069149394 -1117.1076646766983 L 815.8603069149394 -1117.1076646766983 A 3,3 0 0 0 812.8603069149394 -1114.1076646766983 L 812.8603069149394 -1098.1076646766983 A 3,3 0 0 0 815.8603069149394 -1095.1076646766983"/>
        <path fill="none" stroke="Silver" stroke-opacity="0.5882352941176471" stroke-width="0.5" d="M 810.8603069149394 -1093.1076646766983 L 810.8603069149394 -1119.1076646766983 L 856.8603069149394 -1119.1076646766983 L 856.8603069149394 -1093.1076646766983 L 810.8603069149394 -1093.1076646766983" style="stroke-dasharray:3 2;"/>
        <path fill="none" stroke="DarkGray" stroke-opacity="0.7843137254901961" stroke-width="1" d="M 857.484216862791 -1128.5810793703467 L 901.484216862791 -1128.5810793703467 A 3,3 0 0 0 904.484216862791 -1131.5810793703467 L 904.484216862791 -1147.5810793703467 A 3,3 0 0 0 901.484216862791 -1150.5810793703467 L 857.484216862791 -1150.5810793703467 A 3,3 0 0 0 854.484216862791 -1147.5810793703467 L 854.484216862791 -1131.5810793703467 A 3,3 0 0 0 857.484216862791 -1128.5810793703467"/>
        <path fill="none" stroke="Silver" stroke-opacity="0.5882352941176471" stroke-width="0.5" d="M 852.484216862791 -1126.5810793703467 L 852.484216862791 -1152.5810793703467 L 906.484216862791 -1152.5810793703467 L 906.484216862791 -1126.5810793703467 L 852.484216862791 -1126.5810793703467" style="stroke-dasharray:3 2;"/>
        <path fill="none" stroke="DarkGray" stroke-opacity="0.7843137254901961" stroke-width="1" d="M 667.5120928650731 -1194.8457866323174 L 711.5120928650731 -1194.8457866323174 A 3,3 0 0 0 714.5120928650731 -1197.8457866323174 L 714.5120928650731 -1213.8457866323174 A 3,3 0 0 0 711.5120928650731 -1216.8457866323174 L 667.5120928650731 -1216.8457866323174 A 3,3 0 0 0 664.5120928650731 -1213.8457866323174 L 664.5120928650731 -1197.8457866323174 A 3,3 0 0 0 667.5120928650731 -1194.8457866323174"/>
        <path fill="none" stroke="Silver" stroke-opacity="0.5882352941176471" stroke-width="0.5" d="M 662.5120928650731 -1192.8457866323174 L 662.5120928650731 -1218.8457866323174 L 716.5120928650731 -1218.8457866323174 L 716.5120928650731 -1192.8457866323174 L 662.5120928650731 -1192.8457866323174" style="stroke-dasharray:3 2;"/>
        <path fill="none" stroke="IndianRed" stroke-opacity="0.7843137254901961" stroke-width="1.2" d="M 770.1618088315515 -900.4516457847882 L 770.1618088315515 -926.4516457847882 L 896.1618088315515 -926.4516457847882 L 896.1618088315515 -900.4516457847882 L 770.1618088315515 -900.4516457847882" style="stroke-dasharray:4 2;"/>
        <path fill="none" stroke="SteelBlue" stroke-opacity="0.7843137254901961" stroke-width="1.2" d="M 913.7825095057917 -1169.119560467077 L 913.7825095057917 -1195.119560467077 L 999.7825095057917 -1195.119560467077 L 999.7825095057917 -1169.119560467077 L 913.7825095057917 -1169.119560467077" style="stroke-dasharray:4 2;"/>
        <path fill="none" stroke="CornflowerBlue" stroke-opacity="0.3137254901960784" stroke-width="0.5" d="M 896.1618088315515 -926.4516457847882 L 770.1618088315515 -926.4516457847882 L 770.1618088315515 -900.4516457847882 L 896.1618088315515 -926.4516457847882"/>
        <path fill="none" stroke="CornflowerBlue" stroke-opacity="0.3137254901960784" stroke-width="0.5" d="M 770.1618088315515 -926.4516457847882 L 896.1618088315515 -926.4516457847882 L 848.1070027693886 -933.9337384071528 L 770.1618088315515 -926.4516457847882"/>
        <path fill="none" stroke="CornflowerBlue" stroke-opacity="0.3137254901960784" stroke-width="0.5" d="M 770.1618088315515 -926.4516457847882 L 848.1070027693886 -933.9337384071528 L 814.1855681913289 -967.2101307823838 L 770.1618088315515 -926.4516457847882"/>
        <path fill="none" stroke="CornflowerBlue" stroke-opacity="0.3137254901960784" stroke-width="0.5" d="M 770.1618088315515 -926.4516457847882 L 814.1855681913289 -967.2101307823838 L 798.0079775448178 -978.9866545708375 L 770.1618088315515 -926.4516457847882"/>
        <path fill="none" stroke="CornflowerBlue" stroke-opacity="0.3137254901960784" stroke-width="0.5" d="M 798.0079775448178 -978.9866545708375 L 814.1855681913289 -967.2101307823838 L 814.1855681913289 -993.2101307823838 L 798.0079775448178 -978.9866545708375"/>
        <path fill="none" stroke="CornflowerBlue" stroke-opacity="0.3137254901960784" stroke-width="0.5" d="M 798.0079775448178 -978.9866545708375 L 814.1855681913289 -993.2101307823838 L 798.0079775448178 -1004.9866545708375 L 798.0079775448178 -978.9866545708375"/>
        <path fill="none" stroke="CornflowerBlue" stroke-opacity="0.3137254901960784" stroke-width="0.5" d="M 798.0079775448178 -1004.9866545708375 L 814.1855681913289 -993.2101307823838 L 815.1559890549006 -1012.1807861304374 L 798.0079775448178 -1004.9866545708375"/>
        <path fill="none" stroke="CornflowerBlue" stroke-opacity="0.3137254901960784" stroke-width="0.5" d="M 815.1559890549006 -1012.1807861304374 L 814.1855681913289 -993.2101307823838 L 825.2017211990683 -1016.9408776944483 L 815.1559890549006 -1012.1807861304374"/>
        <path fill="none" stroke="CornflowerBlue" stroke-opacity="0.3137254901960784" stroke-width="0.5" d="M 815.1559890549006 -1038.1807861304374 L 815.1559890549006 -1012.1807861304374 L 825.2017211990683 -1016.9408776944483 L 815.1559890549006 -1038.1807861304374"/>
        <path fill="none" stroke="CornflowerBlue" stroke-opacity="0.3137254901960784" stroke-width="0.5" d="M 815.1559890549006 -1038.1807861304374 L 825.2017211990683 -1016.9408776944483 L 825.2017211990683 -1042.9408776944483 L 815.1559890549006 -1038.1807861304374"/>
        <path fill="none" stroke="CornflowerBlue" stroke-opacity="0.3137254901960784" stroke-width="0.5" d="M 810.8603069149394 -1093.1076646766983 L 815.1559890549006 -1038.1807861304374 L 825.2017211990683 -1042.9408776944483 L 810.8603069149394 -1093.1076646766983"/>
        <path fill="none" stroke="CornflowerBlue" stroke-opacity="0.3137254901960784" stroke-width="0.5" d="M 810.8603069149394 -1093.1076646766983 L 825.2017211990683 -1042.9408776944483 L 856.8603069149394 -1093.1076646766983 L 810.8603069149394 -1093.1076646766983"/>
        <path fill="none" stroke="CornflowerBlue" stroke-opacity="0.3137254901960784" stroke-width="0.5" d="M 856.8603069149394 -1093.1076646766983 L 825.2017211990683 -1042.9408776944483 L 865.3517496747087 -1087.2201504406908 L 856.8603069149394 -1093.1076646766983"/>
        <path fill="none" stroke="CornflowerBlue" stroke-opacity="0.3137254901960784" stroke-width="0.5" d="M 856.8603069149394 -1093.1076646766983 L 865.3517496747087 -1087.2201504406908 L 865.3517496747087 -1113.2201504406908 L 856.8603069149394 -1093.1076646766983"/>
        <path fill="none" stroke="CornflowerBlue" stroke-opacity="0.3137254901960784" stroke-width="0.5" d="M 856.8603069149394 -1119.1076646766983 L 856.8603069149394 -1093.1076646766983 L 865.3517496747087 -1113.2201504406908 L 856.8603069149394 -1119.1076646766983"/>
        <path fill="none" stroke="CornflowerBlue" stroke-opacity="0.3137254901960784" stroke-width="0.5" d="M 852.484216862791 -1126.5810793703467 L 856.8603069149394 -1119.1076646766983 L 865.3517496747087 -1113.2201504406908 L 852.484216862791 -1126.5810793703467"/>
        <path fill="none" stroke="CornflowerBlue" stroke-opacity="0.3137254901960784" stroke-width="0.5" d="M 852.484216862791 -1126.5810793703467 L 865.3517496747087 -1113.2201504406908 L 906.484216862791 -1126.5810793703467 L 852.484216862791 -1126.5810793703467"/>
        <path fill="none" stroke="CornflowerBlue" stroke-opacity="0.3137254901960784" stroke-width="0.5" d="M 865.3517496747087 -1113.2201504406908 L 919.3517496747087 -1113.2201504406908 L 906.484216862791 -1126.5810793703467 L 865.3517496747087 -1113.2201504406908"/>
        <path fill="none" stroke="CornflowerBlue" stroke-opacity="0.3137254901960784" stroke-width="0.5" d="M 906.484216862791 -1126.5810793703467 L 919.3517496747087 -1113.2201504406908 L 916.0568224230173 -1134.3776441477594 L 906.484216862791 -1126.5810793703467"/>
        <path fill="none" stroke="CornflowerBlue" stroke-opacity="0.3137254901960784" stroke-width="0.5" d="M 906.484216862791 -1126.5810793703467 L 916.0568224230173 -1134.3776441477594 L 906.484216862791 -1152.5810793703467 L 906.484216862791 -1126.5810793703467"/>
        <path fill="none" stroke="CornflowerBlue" stroke-opacity="0.3137254901960784" stroke-width="0.5" d="M 906.484216862791 -1152.5810793703467 L 916.0568224230173 -1134.3776441477594 L 916.0568224230173 -1160.3776441477594 L 906.484216862791 -1152.5810793703467"/>
        <path fill="none" stroke="CornflowerBlue" stroke-opacity="0.3137254901960784" stroke-width="0.5" d="M 906.484216862791 -1152.5810793703467 L 916.0568224230173 -1160.3776441477594 L 913.7825095057917 -1169.119560467077 L 906.484216862791 -1152.5810793703467"/>
        <path fill="none" stroke="CornflowerBlue" stroke-opacity="0.3137254901960784" stroke-width="0.5" d="M 913.7825095057917 -1169.119560467077 L 916.0568224230173 -1160.3776441477594 L 999.7825095057917 -1169.119560467077 L 913.7825095057917 -1169.119560467077"/>
        <path fill="none" stroke="CornflowerBlue" stroke-opacity="0.3137254901960784" stroke-width="0.5" d="M 913.7825095057917 -1169.119560467077 L 999.7825095057917 -1169.119560467077 L 999.7825095057917 -1195.119560467077 L 913.7825095057917 -1169.119560467077"/>
        <path fill="none" stroke="Red" stroke-opacity="1" stroke-width="2.5" d="M 829.2789120748482 -924.4516457847882 L 814.1855681913289 -967.2101307823838 L 814.1855681913289 -993.2101307823838 L 825.2017211990683 -1042.9408776944483 L 856.8603069149394 -1093.1076646766983 L 865.3517496747087 -1113.2201504406908 L 906.484216862791 -1126.5810793703467 L 916.0568224230173 -1160.3776441477594 L 936.1779523300986 -1171.119560467077"/>
        <path fill="none" stroke="Red" stroke-opacity="1" stroke-width="2" d="M 830.1618088315515 -913.4516457847882 L 836.1618088315515 -913.4516457847882"/>
        <path fill="none" stroke="Red" stroke-opacity="1" stroke-width="2" d="M 833.1618088315515 -910.4516457847882 L 833.1618088315515 -916.4516457847882"/>
        <path fill="none" stroke="Blue" stroke-opacity="1" stroke-width="2" d="M 953.7825095057917 -1182.119560467077 L 959.7825095057917 -1182.119560467077"/>
        <path fill="none" stroke="Blue" stroke-opacity="1" stroke-width="2" d="M 956.7825095057917 -1179.119560467077 L 956.7825095057917 -1185.119560467077"/>
        <path fill="none" stroke="DarkRed" stroke-opacity="1" stroke-width="1.5" d="M 775.1618088315515 -902.4516457847882 L 891.1618088315515 -902.4516457847882 A 3,3 0 0 0 894.1618088315515 -905.4516457847882 L 894.1618088315515 -921.4516457847882 A 3,3 0 0 0 891.1618088315515 -924.4516457847882 L 775.1618088315515 -924.4516457847882 A 3,3 0 0 0 772.1618088315515 -921.4516457847882 L 772.1618088315515 -905.4516457847882 A 3,3 0 0 0 775.1618088315515 -902.4516457847882"/>
        <path fill="none" stroke="DarkBlue" stroke-opacity="1" stroke-width="1.5" d="M 918.7825095057917 -1171.119560467077 L 994.7825095057917 -1171.119560467077 A 3,3 0 0 0 997.7825095057917 -1174.119560467077 L 997.7825095057917 -1190.119560467077 A 3,3 0 0 0 994.7825095057917 -1193.119560467077 L 918.7825095057917 -1193.119560467077 A 3,3 0 0 0 915.7825095057917 -1190.119560467077 L 915.7825095057917 -1174.119560467077 A 3,3 0 0 0 918.7825095057917 -1171.119560467077"/>
    </g>
</svg>