<?xml version="1.0" encoding="UTF-8"?>
<svg xmlns="http://www.w3.org/2000/svg" viewBox="-53.88376522692069 -2192.154464611986 2801.955791799876 2246.038229838907" width="640" font-family="sans-serif">
  <g transform="scale(1,-1)">
    <rect x="-53.88376522692069" y="-53.88376522692069" width="2801.955791799876" height="2246.038229838907" fill="none" stroke="#999" stroke-width="0.5"/>
    <path d="M 959.35 1224.57 L 959.74 1224.18 L 960.12 1223.79 L 960.50 1223.40 L 960.89 1223.01 L 961.27 1222.62 L 961.65 1222.23 L 962.04 1221.84 L 962.42 1221.45 L 962.80 1221.06 L 963.19 1220.67 L 963.57 1220.28 L 963.95 1219.89 L 964.34 1219.50 L 964.72 1219.11 L 965.11 1218.72 L 965.49 1218.33 L 965.87 1217.94 L 966.26 1217.55 L 966.64 1217.16 L 967.02 1216.77 L 967.41 1216.38 L 967.79 1215.99 L 968.17 1215.60 L 968.56 1215.21 L 968.94 1214.82 L 969.32 1214.43 L 969.71 1214.04 L 970.09 1213.65 L 970.47 1213.26 L 970.86 1212.87 L 971.24 1212.48 L 971.62 1212.09 L 972.01 1211.70 L 972.39 1211.31 L 972.77 1210.92 L 973.16 1210.53 L 973.54 1210.14 L 973.93 1209.75 L 974.31 1209.36 L 974.69 1208.97 L 975.08 1208.58 L 975.46 1208.19 L 975.84 1207.80 L 976.23 1207.41 L 976.61 1207.02 L 976.99 1206.63 L 977.38 1206.24 L 977.76 1205.85 L 978.14 1205.46 L 978.53 1205.07 L 978.91 1204.68 L 979.29 1204.29 L 979.68 1203.90 L 980.06 1203.51 L 980.44 1203.12 L 980.83 1202.73 L 981.21 1202.34 L 981.59 1201.95 L 981.98 1201.56 L 982.36 1201.17 L 982.75 1200.78 L 983.13 1200.39 L 983.51 1200.00 L 983.90 1199.61" fill="none" stroke="#2b8a3e" stroke-width="1.2"/>
    <path d="M 929.70 1228.97 L 926.07 1228.59 L 922.44 1228.21 L 918.82 1227.83 L 915.19 1227.44 L 911.56 1227.06 L 907.93 1226.68 L 904.31 1226.30 L 900.68 1225.91 L 897.05 1225.53 L 893.42 1225.15 L 889.79 1224.77 L 886.17 1224.39 L 882.54 1224.00 L 878.91 1223.62 L 875.28 1223.24 L 871.66 1222.86 L 868.03 1222.47 L 864.40 1222.09 L 860.77 1221.71 L 857.14 1221.33 L 853.52 1220.95 L 849.89 1220.56 L 846.26 1220.18 L 842.63 1219.80 L 839.01 1219.42 L 835.38 1219.03 L 831.75 1218.65 L 828.12 1218.27 L 824.49 1217.89 L 820.87 1217.51 L 817.24 1217.12 L 813.61 1216.74 L 809.98 1216.36 L 806.36 1215.98 L 802.73 1215.60 L 799.10 1215.21 L 795.47 1214.83 L 791.85 1214.45 L 788.22 1214.07 L 784.59 1213.68 L 780.96 1213.30 L 777.33 1212.92 L 773.71 1212.54 L 770.08 1212.16 L 766.45 1211.77 L 762.82 1211.39 L 759.20 1211.01 L 755.57 1210.63 L 751.94 1210.24 L 748.31 1209.86 L 744.68 1209.48 L 741.06 1209.10 L 737.43 1208.72 L 733.80 1208.33 L 730.17 1207.95 L 726.55 1207.57 L 722.92 1207.19 L 719.29 1206.80 L 715.66 1206.42 L 712.03 1206.04 L 708.41 1205.66 L 704.78 1205.28 L 701.15 1204.89 L 697.52 1204.51" fill="none" stroke="#2b8a3e" stroke-width="1.2"/>
    <path d="M 697.52 1204.51 L 697.26 1204.48 L 697.00 1204.45 L 696.74 1204.42 L 696.49 1204.38 L 696.24 1204.34 L 695.99 1204.30 L 695.75 1204.25 L 695.51 1204.21 L 695.28 1204.16 L 695.05 1204.11 L 694.83 1204.05 L 694.61 1204.00 L 694.39 1203.94 L 694.18 1203.88 L 693.98 1203.82 L 693.77 1203.75 L 693.57 1203.68 L 693.38 1203.61 L 693.19 1203.54 L 693.00 1203.46 L 692.82 1203.39 L 692.64 1203.31 L 692.47 1203.22 L 692.30 1203.14 L 692.13 1203.05 L 691.97 1202.96 L 691.81 1202.87 L 691.66 1202.77 L 691.51 1202.68 L 691.37 1202.58 L 691.23 1202.47 L 691.09 1202.37 L 690.96 1202.26 L 690.83 1202.15 L 690.71 1202.04 L 690.59 1201.93 L 690.48 1201.81 L 690.36 1201.69 L 690.26 1201.57 L 690.15 1201.45 L 690.06 1201.32 L 689.96 1201.19 L 689.87 1201.06 L 689.79 1200.93 L 689.70 1200.79 L 689.63 1200.66 L 689.55 1200.51 L 689.49 1200.37 L 689.42 1200.23 L 689.36 1200.08 L 689.30 1199.93 L 689.25 1199.78 L 689.20 1199.62 L 689.16 1199.46 L 689.12 1199.30 L 689.08 1199.14 L 689.05 1198.98 L 689.02 1198.81 L 689.00 1198.64 L 688.98 1198.47 L 688.97 1198.29 L 688.96 1198.12 L 688.95 1197.94 L 688.95 1197.75" fill="none" stroke="#2b8a3e" stroke-width="1.2"/>
    <path d="M 688.95 1197.75 L 688.95 1192.31 L 688.95 1186.87 L 688.95 1181.43 L 688.95 1175.99 L 688.95 1170.54 L 688.95 1165.10 L 688.95 1159.66 L 688.95 1154.22 L 688.95 1148.78 L 688.95 1143.33 L 688.95 1137.89 L 688.95 1132.45 L 688.95 1127.01 L 688.95 1121.57 L 688.95 1116.12 L 688.95 1110.68 L 688.95 1105.24 L 688.95 1099.80 L 688.95 1094.35 L 688.95 1088.91 L 688.95 1083.47 L 688.95 1078.03 L 688.95 1072.59 L 688.95 1067.14 L 688.95 1061.70 L 688.95 1056.26 L 688.95 1050.82 L 688.95 1045.38 L 688.95 1039.93 L 688.95 1034.49 L 688.95 1029.05 L 688.95 1023.61 L 688.95 1018.17 L 688.95 1012.72 L 688.95 1007.28 L 688.95 1001.84 L 688.95 996.40 L 688.95 990.96 L 688.95 985.51 L 688.95 980.07 L 688.95 974.63 L 688.95 969.19 L 688.95 963.74 L 688.95 958.30 L 688.95 952.86 L 688.95 947.42 L 688.95 941.98 L 688.95 936.53 L 688.95 931.09 L 688.95 925.65 L 688.95 920.21 L 688.95 914.77 L 688.95 909.32 L 688.95 903.88 L 688.95 898.44 L 688.95 893.00 L 688.95 887.56 L 688.95 882.11 L 688.95 876.67 L 688.95 871.23 L 688.95 865.79 L 688.95 860.34 L 688.95 854.90 L 688.95 849.46" fill="none" stroke="#2b8a3e" stroke-width="1.2"/>
    <path d="M 688.95 849.46 L 688.95 849.28 L 688.96 849.10 L 688.98 848.92 L 689.01 848.74 L 689.04 848.57 L 689.08 848.39 L 689.13 848.22 L 689.18 848.05 L 689.24 847.88 L 689.31 847.71 L 689.38 847.55 L 689.47 847.38 L 689.56 847.22 L 689.65 847.06 L 689.76 846.90 L 689.87 846.74 L 689.99 846.58 L 690.11 846.43 L 690.25 846.27 L 690.39 846.12 L 690.54 845.97 L 690.69 845.82 L 690.85 845.68 L 691.02 845.53 L 691.20 845.39 L 691.38 845.25 L 691.57 845.11 L 691.77 844.97 L 691.97 844.83 L 692.19 844.69 L 692.41 844.56 L 692.63 844.43 L 692.87 844.30 L 693.11 844.17 L 693.36 844.04 L 693.61 843.91 L 693.87 843.79 L 694.14 843.67 L 694.42 843.54 L 694.70 843.42 L 695.00 843.31 L 695.29 843.19 L 695.60 843.07 L 695.91 842.96 L 696.23 842.85 L 696.56 842.74 L 696.89 842.63 L 697.24 842.52 L 697.58 842.42 L 697.94 842.32 L 698.30 842.21 L 698.67 842.11 L 699.05 842.01 L 699.44 841.92 L 699.83 841.82 L 700.23 841.73 L 700.63 841.63 L 701.05 841.54 L 701.47 841.45 L 701.90 841.37 L 702.33 841.28 L 702.78 841.20 L 703.22 841.11 L 703.68 841.03" fill="none" stroke="#2b8a3e" stroke-width="1.2"/>
    <path d="M 703.68 841.03 L 710.29 839.88 L 716.90 838.72 L 723.50 837.56 L 730.11 836.41 L 736.72 835.25 L 743.32 834.10 L 749.93 832.94 L 756.54 831.79 L 763.14 830.63 L 769.75 829.48 L 776.36 828.32 L 782.97 827.17 L 789.57 826.01 L 796.18 824.86 L 802.79 823.70 L 809.39 822.54 L 816.00 821.39 L 822.61 820.23 L 829.22 819.08 L 835.82 817.92 L 842.43 816.77 L 849.04 815.61 L 855.64 814.46 L 862.25 813.30 L 868.86 812.15 L 875.46 810.99 L 882.07 809.83 L 888.68 808.68 L 895.29 807.52 L 901.89 806.37 L 908.50 805.21 L 915.11 804.06 L 921.71 802.90 L 928.32 801.75 L 934.93 800.59 L 941.53 799.44 L 948.14 798.28 L 954.75 797.12 L 961.36 795.97 L 967.96 794.81 L 974.57 793.66 L 981.18 792.50 L 987.78 791.35 L 994.39 790.19 L 1001.00 789.04 L 1007.61 787.88 L 1014.21 786.73 L 1020.82 785.57 L 1027.43 784.41 L 1034.03 783.26 L 1040.64 782.10 L 1047.25 780.95 L 1053.85 779.79 L 1060.46 778.64 L 1067.07 777.48 L 1073.68 776.33 L 1080.28 775.17 L 1086.89 774.02 L 1093.50 772.86 L 1100.10 771.71 L 1106.71 770.55 L 1113.32 769.39 L 1119.92 768.24 L 1126.53 767.08" fill="none" stroke="#2b8a3e" stroke-width="1.2"/>
    <path d="M 1443.14 794.82 L 1442.11 795.65 L 1441.08 796.47 L 1440.05 797.30 L 1439.02 798.12 L 1437.99 798.94 L 1436.95 799.77 L 1435.92 800.59 L 1434.89 801.42 L 1433.86 802.24 L 1432.83 803.07 L 1431.80 803.89 L 1430.76 804.72 L 1429.73 805.54 L 1428.70 806.37 L 1427.67 807.19 L 1426.64 808.02 L 1425.60 808.84 L 1424.57 809.67 L 1423.54 810.49 L 1422.51 811.32 L 1421.48 812.14 L 1420.45 812.97 L 1419.41 813.79 L 1418.38 814.62 L 1417.35 815.44 L 1416.32 816.27 L 1415.29 817.09 L 1414.26 817.92 L 1413.22 818.74 L 1412.19 819.56 L 1411.16 820.39 L 1410.13 821.21 L 1409.10 822.04 L 1408.07 822.86 L 1407.03 823.69 L 1406.00 824.51 L 1404.97 825.34 L 1403.94 826.16 L 1402.91 826.99 L 1401.87 827.81 L 1400.84 828.64 L 1399.81 829.46 L 1398.78 830.29 L 1397.75 831.11 L 1396.72 831.94 L 1395.68 832.76 L 1394.65 833.59 L 1393.62 834.41 L 1392.59 835.24 L 1391.56 836.06 L 1390.53 836.89 L 1389.49 837.71 L 1388.46 838.53 L 1387.43 839.36 L 1386.40 840.18 L 1385.37 841.01 L 1384.33 841.83 L 1383.30 842.66 L 1382.27 843.48 L 1381.24 844.31 L 1380.21 845.13 L 1379.18 845.96 L 1378.14 846.78 L 1377.11 847.61" fill="none" stroke="#2b8a3e" stroke-width="1.2"/>
    <path d="M 1442.03 781.18 L 1439.29 779.24 L 1436.55 777.30 L 1433.81 775.37 L 1431.07 773.43 L 1428.33 771.49 L 1425.59 769.56 L 1422.85 767.62 L 1420.11 765.68 L 1417.38 763.75 L 1414.64 761.81 L 1411.90 759.87 L 1409.16 757.94 L 1406.42 756.00 L 1403.68 754.06 L 1400.94 752.13 L 1398.20 750.19 L 1395.46 748.25 L 1392.72 746.32 L 1389.98 744.38 L 1387.24 742.44 L 1384.50 740.50 L 1381.76 738.57 L 1379.02 736.63 L 1376.28 734.69 L 1373.55 732.76 L 1370.81 730.82 L 1368.07 728.88 L 1365.33 726.95 L 1362.59 725.01 L 1359.85 723.07 L 1357.11 721.14 L 1354.37 719.20 L 1351.63 717.26 L 1348.89 715.33 L 1346.15 713.39 L 1343.41 711.45 L 1340.67 709.52 L 1337.93 707.58 L 1335.19 705.64 L 1332.46 703.71 L 1329.72 701.77 L 1326.98 699.83 L 1324.24 697.90 L 1321.50 695.96 L 1318.76 694.02 L 1316.02 692.09 L 1313.28 690.15 L 1310.54 688.21 L 1307.80 686.27 L 1305.06 684.34 L 1302.32 682.40 L 1299.58 680.46 L 1296.84 678.53 L 1294.10 676.59 L 1291.36 674.65 L 1288.63 672.72 L 1285.89 670.78 L 1283.15 668.84 L 1280.41 666.91 L 1277.67 664.97 L 1274.93 663.03 L 1272.19 661.10 L 1269.45 659.16 L 1266.71 657.22" fill="none" stroke="#2b8a3e" stroke-width="1.2"/>
    <path d="M 1250.18 657.22 L 1248.59 658.79 L 1247.01 660.36 L 1245.43 661.93 L 1243.85 663.49 L 1242.27 665.06 L 1240.68 666.63 L 1239.10 668.20 L 1237.52 669.76 L 1235.94 671.33 L 1234.36 672.90 L 1232.77 674.47 L 1231.19 676.03 L 1229.61 677.60 L 1228.03 679.17 L 1226.44 680.74 L 1224.86 682.30 L 1223.28 683.87 L 1221.70 685.44 L 1220.12 687.01 L 1218.53 688.58 L 1216.95 690.14 L 1215.37 691.71 L 1213.79 693.28 L 1212.21 694.85 L 1210.62 696.41 L 1209.04 697.98 L 1207.46 699.55 L 1205.88 701.12 L 1204.30 702.68 L 1202.71 704.25 L 1201.13 705.82 L 1199.55 707.39 L 1197.97 708.95 L 1196.38 710.52 L 1194.80 712.09 L 1193.22 713.66 L 1191.64 715.22 L 1190.06 716.79 L 1188.47 718.36 L 1186.89 719.93 L 1185.31 721.50 L 1183.73 723.06 L 1182.15 724.63 L 1180.56 726.20 L 1178.98 727.77 L 1177.40 729.33 L 1175.82 730.90 L 1174.23 732.47 L 1172.65 734.04 L 1171.07 735.60 L 1169.49 737.17 L 1167.91 738.74 L 1166.32 740.31 L 1164.74 741.87 L 1163.16 743.44 L 1161.58 745.01 L 1160.00 746.58 L 1158.41 748.14 L 1156.83 749.71 L 1155.25 751.28 L 1153.67 752.85 L 1152.08 754.42 L 1150.50 755.98 L 1148.92 757.55" fill="none" stroke="#2b8a3e" stroke-width="1.2"/>
    <path d="M 1255.23 657.22 L 1254.43 660.20 L 1253.64 663.17 L 1252.84 666.15 L 1252.04 669.12 L 1251.24 672.10 L 1250.44 675.07 L 1249.65 678.05 L 1248.85 681.02 L 1248.05 684.00 L 1247.25 686.97 L 1246.45 689.95 L 1245.66 692.92 L 1244.86 695.89 L 1244.06 698.87 L 1243.26 701.84 L 1242.46 704.82 L 1241.67 707.79 L 1240.87 710.77 L 1240.07 713.74 L 1239.27 716.72 L 1238.47 719.69 L 1237.68 722.67 L 1236.88 725.64 L 1236.08 728.62 L 1235.28 731.59 L 1234.48 734.57 L 1233.69 737.54 L 1232.89 740.52 L 1232.09 743.49 L 1231.29 746.47 L 1230.49 749.44 L 1229.70 752.42 L 1228.90 755.39 L 1228.10 758.36 L 1227.30 761.34 L 1226.50 764.31 L 1225.71 767.29 L 1224.91 770.26 L 1224.11 773.24 L 1223.31 776.21 L 1222.51 779.19 L 1221.72 782.16 L 1220.92 785.14 L 1220.12 788.11 L 1219.32 791.09 L 1218.52 794.06 L 1217.73 797.04 L 1216.93 800.01 L 1216.13 802.99 L 1215.33 805.96 L 1214.53 808.94 L 1213.74 811.91 L 1212.94 814.89 L 1212.14 817.86 L 1211.34 820.83 L 1210.54 823.81 L 1209.75 826.78 L 1208.95 829.76 L 1208.15 832.73 L 1207.35 835.71 L 1206.56 838.68 L 1205.76 841.66 L 1204.96 844.63 L 1204.16 847.61" fill="none" stroke="#2b8a3e" stroke-width="1.2"/>
    <path d="M 1142.43 771.19 L 1142.50 772.39 L 1142.57 773.58 L 1142.63 774.78 L 1142.70 775.97 L 1142.77 777.16 L 1142.84 778.36 L 1142.91 779.55 L 1142.98 780.75 L 1143.05 781.94 L 1143.11 783.13 L 1143.18 784.33 L 1143.25 785.52 L 1143.32 786.72 L 1143.39 787.91 L 1143.46 789.10 L 1143.53 790.30 L 1143.60 791.49 L 1143.66 792.69 L 1143.73 793.88 L 1143.80 795.07 L 1143.87 796.27 L 1143.94 797.46 L 1144.01 798.65 L 1144.08 799.85 L 1144.15 801.04 L 1144.21 802.24 L 1144.28 803.43 L 1144.35 804.62 L 1144.42 805.82 L 1144.49 807.01 L 1144.56 808.21 L 1144.63 809.40 L 1144.69 810.59 L 1144.76 811.79 L 1144.83 812.98 L 1144.90 814.18 L 1144.97 815.37 L 1145.04 816.56 L 1145.11 817.76 L 1145.18 818.95 L 1145.24 820.15 L 1145.31 821.34 L 1145.38 822.53 L 1145.45 823.73 L 1145.52 824.92 L 1145.59 826.12 L 1145.66 827.31 L 1145.72 828.50 L 1145.79 829.70 L 1145.86 830.89 L 1145.93 832.09 L 1146.00 833.28 L 1146.07 834.47 L 1146.14 835.67 L 1146.21 836.86 L 1146.27 838.06 L 1146.34 839.25 L 1146.41 840.44 L 1146.48 841.64 L 1146.55 842.83 L 1146.62 844.03 L 1146.69 845.22 L 1146.76 846.41 L 1146.82 847.61" fill="none" stroke="#2b8a3e" stroke-width="1.2"/>
    <path d="M 643.74 1033.32 L 644.51 1033.30 L 645.28 1033.29 L 646.05 1033.27 L 646.81 1033.26 L 647.58 1033.24 L 648.35 1033.23 L 649.12 1033.21 L 649.89 1033.20 L 650.66 1033.18 L 651.43 1033.17 L 652.20 1033.16 L 652.97 1033.14 L 653.73 1033.13 L 654.50 1033.11 L 655.27 1033.10 L 656.04 1033.08 L 656.81 1033.07 L 657.58 1033.05 L 658.35 1033.04 L 659.12 1033.02 L 659.89 1033.01 L 660.65 1033.00 L 661.42 1032.98 L 662.19 1032.97 L 662.96 1032.95 L 663.73 1032.94 L 664.50 1032.92 L 665.27 1032.91 L 666.04 1032.89 L 666.81 1032.88 L 667.57 1032.86 L 668.34 1032.85 L 669.11 1032.84 L 669.88 1032.82 L 670.65 1032.81 L 671.42 1032.79 L 672.19 1032.78 L 672.96 1032.76 L 673.73 1032.75 L 674.50 1032.73 L 675.26 1032.72 L 676.03 1032.70 L 676.80 1032.69 L 677.57 1032.68 L 678.34 1032.66 L 679.11 1032.65 L 679.88 1032.63 L 680.65 1032.62 L 681.42 1032.60 L 682.18 1032.59 L 682.95 1032.57 L 683.72 1032.56 L 684.49 1032.54 L 685.26 1032.53 L 686.03 1032.52 L 686.80 1032.50 L 687.57 1032.49 L 688.34 1032.47 L 689.10 1032.46 L 689.87 1032.44 L 690.64 1032.43 L 691.41 1032.41 L 692.18 1032.40 L 692.95 1032.38" fill="none" stroke="#2b8a3e" stroke-width="1.2"/>
    <path d="M 854.09 502.87 L 858.47 506.85 L 862.85 510.83 L 867.23 514.81 L 871.61 518.79 L 876.00 522.77 L 880.38 526.74 L 884.76 530.72 L 889.14 534.70 L 893.52 538.68 L 897.91 542.66 L 902.29 546.64 L 906.67 550.62 L 911.05 554.60 L 915.43 558.58 L 919.81 562.56 L 924.20 566.54 L 928.58 570.52 L 932.96 574.50 L 937.34 578.48 L 941.72 582.46 L 946.11 586.44 L 950.49 590.42 L 954.87 594.39 L 959.25 598.37 L 963.63 602.35 L 968.01 606.33 L 972.40 610.31 L 976.78 614.29 L 981.16 618.27 L 985.54 622.25 L 989.92 626.23 L 994.31 630.21 L 998.69 634.19 L 1003.07 638.17 L 1007.45 642.15 L 1011.83 646.13 L 1016.21 650.11 L 1020.60 654.09 L 1024.98 658.07 L 1029.36 662.04 L 1033.74 666.02 L 1038.12 670.00 L 1042.51 673.98 L 1046.89 677.96 L 1051.27 681.94 L 1055.65 685.92 L 1060.03 689.90 L 1064.41 693.88 L 1068.80 697.86 L 1073.18 701.84 L 1077.56 705.82 L 1081.94 709.80 L 1086.32 713.78 L 1090.71 717.76 L 1095.09 721.74 L 1099.47 725.72 L 1103.85 729.69 L 1108.23 733.67 L 1112.61 737.65 L 1117.00 741.63 L 1121.38 745.61 L 1125.76 749.59 L 1130.14 753.57 L 1134.52 757.55" fill="none" stroke="#2b8a3e" stroke-width="1.2"/>
    <path d="M 863.79 502.52 L 869.73 504.75 L 875.67 506.99 L 881.61 509.22 L 887.55 511.45 L 893.49 513.69 L 899.43 515.92 L 905.38 518.16 L 911.32 520.39 L 917.26 522.63 L 923.20 524.86 L 929.14 527.09 L 935.08 529.33 L 941.02 531.56 L 946.97 533.80 L 952.91 536.03 L 958.85 538.26 L 964.79 540.50 L 970.73 542.73 L 976.67 544.97 L 982.62 547.20 L 988.56 549.44 L 994.50 551.67 L 1000.44 553.90 L 1006.38 556.14 L 1012.32 558.37 L 1018.26 560.61 L 1024.21 562.84 L 1030.15 565.07 L 1036.09 567.31 L 1042.03 569.54 L 1047.97 571.78 L 1053.91 574.01 L 1059.85 576.25 L 1065.80 578.48 L 1071.74 580.71 L 1077.68 582.95 L 1083.62 585.18 L 1089.56 587.42 L 1095.50 589.65 L 1101.44 591.88 L 1107.39 594.12 L 1113.33 596.35 L 1119.27 598.59 L 1125.21 600.82 L 1131.15 603.05 L 1137.09 605.29 L 1143.03 607.52 L 1148.98 609.76 L 1154.92 611.99 L 1160.86 614.23 L 1166.80 616.46 L 1172.74 618.69 L 1178.68 620.93 L 1184.62 623.16 L 1190.57 625.40 L 1196.51 627.63 L 1202.45 629.86 L 1208.39 632.10 L 1214.33 634.33 L 1220.27 636.57 L 1226.21 638.80 L 1232.16 641.04 L 1238.10 643.27 L 1244.04 645.50" fill="none" stroke="#2b8a3e" stroke-width="1.2"/>
    <path d="M 1270.62 731.11 L 1270.43 729.95 L 1270.24 728.80 L 1270.04 727.65 L 1269.85 726.49 L 1269.65 725.34 L 1269.46 724.18 L 1269.27 723.03 L 1269.07 721.87 L 1268.88 720.72 L 1268.68 719.56 L 1268.49 718.41 L 1268.30 717.26 L 1268.10 716.10 L 1267.91 714.95 L 1267.71 713.79 L 1267.52 712.64 L 1267.33 711.48 L 1267.13 710.33 L 1266.94 709.17 L 1266.74 708.02 L 1266.55 706.87 L 1266.36 705.71 L 1266.16 704.56 L 1265.97 703.40 L 1265.77 702.25 L 1265.58 701.09 L 1265.39 699.94 L 1265.19 698.78 L 1265.00 697.63 L 1264.80 696.47 L 1264.61 695.32 L 1264.42 694.17 L 1264.22 693.01 L 1264.03 691.86 L 1263.83 690.70 L 1263.64 689.55 L 1263.45 688.39 L 1263.25 687.24 L 1263.06 686.08 L 1262.86 684.93 L 1262.67 683.78 L 1262.48 682.62 L 1262.28 681.47 L 1262.09 680.31 L 1261.89 679.16 L 1261.70 678.00 L 1261.51 676.85 L 1261.31 675.69 L 1261.12 674.54 L 1260.92 673.39 L 1260.73 672.23 L 1260.54 671.08 L 1260.34 669.92 L 1260.15 668.77 L 1259.95 667.61 L 1259.76 666.46 L 1259.57 665.30 L 1259.37 664.15 L 1259.18 663.00 L 1258.98 661.84 L 1258.79 660.69 L 1258.60 659.53 L 1258.40 658.38 L 1258.21 657.22" fill="none" stroke="#2b8a3e" stroke-width="1.2"/>
    <path d="M 1269.03 744.75 L 1268.38 746.36 L 1267.74 747.97 L 1267.09 749.57 L 1266.45 751.18 L 1265.80 752.79 L 1265.15 754.40 L 1264.51 756.00 L 1263.86 757.61 L 1263.22 759.22 L 1262.57 760.82 L 1261.92 762.43 L 1261.28 764.04 L 1260.63 765.65 L 1259.99 767.25 L 1259.34 768.86 L 1258.69 770.47 L 1258.05 772.07 L 1257.40 773.68 L 1256.76 775.29 L 1256.11 776.89 L 1255.46 778.50 L 1254.82 780.11 L 1254.17 781.72 L 1253.53 783.32 L 1252.88 784.93 L 1252.23 786.54 L 1251.59 788.14 L 1250.94 789.75 L 1250.30 791.36 L 1249.65 792.97 L 1249.00 794.57 L 1248.36 796.18 L 1247.71 797.79 L 1247.07 799.39 L 1246.42 801.00 L 1245.78 802.61 L 1245.13 804.22 L 1244.48 805.82 L 1243.84 807.43 L 1243.19 809.04 L 1242.55 810.64 L 1241.90 812.25 L 1241.25 813.86 L 1240.61 815.47 L 1239.96 817.07 L 1239.32 818.68 L 1238.67 820.29 L 1238.02 821.89 L 1237.38 823.50 L 1236.73 825.11 L 1236.09 826.72 L 1235.44 828.32 L 1234.79 829.93 L 1234.15 831.54 L 1233.50 833.14 L 1232.86 834.75 L 1232.21 836.36 L 1231.56 837.96 L 1230.92 839.57 L 1230.27 841.18 L 1229.63 842.79 L 1228.98 844.39 L 1228.33 846.00 L 1227.69 847.61" fill="none" stroke="#2b8a3e" stroke-width="1.2"/>
    <path d="M 931.56 1224.57 L 938.34 1224.57 L 945.11 1224.57 L 951.89 1224.57 L 958.66 1224.57 L 965.44 1224.57 L 972.21 1224.57 L 973.96 1224.58 L 974.25 1224.64 L 974.53 1224.75 L 974.79 1224.90 L 975.02 1225.09 L 975.22 1225.31 L 975.38 1225.57 L 975.50 1225.84 L 975.57 1226.13 L 975.59 1226.43 L 975.59 1228.02 L 975.59 1229.62 L 975.59 1231.21 L 975.59 1232.81 L 975.59 1234.40 L 975.59 1235.99 L 975.58 1236.58 L 975.52 1236.87 L 975.41 1237.15 L 975.26 1237.41 L 975.07 1237.64 L 974.85 1237.84 L 974.59 1238.00 L 974.32 1238.12 L 974.03 1238.19 L 973.73 1238.21 L 966.95 1238.21 L 960.18 1238.21 L 953.40 1238.21 L 946.63 1238.21 L 939.85 1238.21 L 933.08 1238.21 L 931.33 1238.20 L 931.04 1238.14 L 930.76 1238.03 L 930.50 1237.88 L 930.27 1237.69 L 930.07 1237.47 L 929.91 1237.21 L 929.80 1236.94 L 929.72 1236.65 L 929.70 1236.35 L 929.70 1234.76 L 929.70 1233.16 L 929.70 1231.57 L 929.70 1229.97 L 929.70 1228.38 L 929.70 1226.79 L 929.71 1226.20 L 929.78 1225.90 L 929.88 1225.63 L 930.03 1225.37 L 930.22 1225.14 L 930.45 1224.94 L 930.70 1224.78 L 930.97 1224.66 L 931.26 1224.59 L 931.56 1224.57 Z" fill="#e0f2fe" stroke="#0369a1" stroke-width="1"/>
    <path d="M 1438.03 781.18 L 1442.42 781.18 L 1446.80 781.18 L 1451.19 781.18 L 1455.57 781.18 L 1459.96 781.18 L 1464.34 781.18 L 1465.55 781.19 L 1465.85 781.25 L 1466.12 781.36 L 1466.38 781.51 L 1466.61 781.70 L 1466.81 781.92 L 1466.97 782.18 L 1467.09 782.45 L 1467.16 782.74 L 1467.18 783.04 L 1467.18 784.63 L 1467.18 786.23 L 1467.18 787.82 L 1467.18 789.42 L 1467.18 791.01 L 1467.18 792.60 L 1467.17 793.19 L 1467.11 793.48 L 1467.00 793.76 L 1466.85 794.02 L 1466.66 794.25 L 1466.44 794.45 L 1466.18 794.61 L 1465.91 794.73 L 1465.62 794.80 L 1465.32 794.82 L 1460.94 794.82 L 1456.55 794.82 L 1452.17 794.82 L 1447.78 794.82 L 1443.40 794.82 L 1439.02 794.82 L 1437.80 794.81 L 1437.51 794.75 L 1437.23 794.64 L 1436.97 794.49 L 1436.74 794.30 L 1436.55 794.08 L 1436.39 793.82 L 1436.27 793.55 L 1436.20 793.26 L 1436.17 792.96 L 1436.17 791.37 L 1436.17 789.77 L 1436.17 788.18 L 1436.17 786.58 L 1436.17 784.99 L 1436.17 783.39 L 1436.19 782.81 L 1436.25 782.51 L 1436.36 782.24 L 1436.51 781.98 L 1436.70 781.75 L 1436.92 781.55 L 1437.17 781.39 L 1437.45 781.27 L 1437.74 781.20 L 1438.03 781.18 Z" fill="#e0f2fe" stroke="#0369a1" stroke-width="1"/>
    <path d="M 1245.90 643.58 L 1249.49 643.58 L 1253.07 643.58 L 1256.66 643.58 L 1260.25 643.58 L 1263.83 643.58 L 1267.42 643.58 L 1268.46 643.59 L 1268.75 643.65 L 1269.03 643.76 L 1269.29 643.91 L 1269.52 644.10 L 1269.71 644.32 L 1269.87 644.58 L 1269.99 644.85 L 1270.06 645.14 L 1270.08 645.44 L 1270.08 647.03 L 1270.08 648.63 L 1270.08 650.22 L 1270.08 651.82 L 1270.08 653.41 L 1270.08 655.01 L 1270.07 655.59 L 1270.01 655.89 L 1269.90 656.16 L 1269.75 656.42 L 1269.56 656.65 L 1269.34 656.85 L 1269.09 657.01 L 1268.81 657.13 L 1268.52 657.20 L 1268.22 657.22 L 1264.64 657.22 L 1261.05 657.22 L 1257.46 657.22 L 1253.88 657.22 L 1250.29 657.22 L 1246.70 657.22 L 1245.67 657.21 L 1245.38 657.15 L 1245.10 657.04 L 1244.84 656.89 L 1244.61 656.70 L 1244.41 656.48 L 1244.25 656.22 L 1244.13 655.95 L 1244.06 655.66 L 1244.04 655.36 L 1244.04 653.77 L 1244.04 652.17 L 1244.04 650.58 L 1244.04 648.99 L 1244.04 647.39 L 1244.04 645.80 L 1244.05 645.21 L 1244.11 644.92 L 1244.22 644.64 L 1244.37 644.38 L 1244.56 644.15 L 1244.78 643.95 L 1245.04 643.79 L 1245.31 643.67 L 1245.60 643.60 L 1245.90 643.58 Z" fill="#e0f2fe" stroke="#0369a1" stroke-width="1"/>
    <path d="M 1128.39 757.55 L 1132.78 757.55 L 1137.16 757.55 L 1141.55 757.55 L 1145.93 757.55 L 1150.31 757.55 L 1154.70 757.55 L 1155.91 757.56 L 1156.20 757.63 L 1156.48 757.73 L 1156.74 757.88 L 1156.97 758.07 L 1157.17 758.30 L 1157.33 758.55 L 1157.44 758.82 L 1157.52 759.11 L 1157.54 759.41 L 1157.54 761.01 L 1157.54 762.60 L 1157.54 764.19 L 1157.54 765.79 L 1157.54 767.38 L 1157.54 768.98 L 1157.52 769.56 L 1157.46 769.86 L 1157.36 770.14 L 1157.21 770.39 L 1157.02 770.62 L 1156.79 770.82 L 1156.54 770.98 L 1156.27 771.10 L 1155.98 771.17 L 1155.68 771.19 L 1151.29 771.19 L 1146.91 771.19 L 1142.53 771.19 L 1138.14 771.19 L 1133.76 771.19 L 1129.37 771.19 L 1128.16 771.18 L 1127.87 771.12 L 1127.59 771.01 L 1127.33 770.86 L 1127.10 770.67 L 1126.90 770.45 L 1126.74 770.20 L 1126.63 769.92 L 1126.56 769.63 L 1126.53 769.33 L 1126.53 767.74 L 1126.53 766.14 L 1126.53 764.55 L 1126.53 762.96 L 1126.53 761.36 L 1126.53 759.77 L 1126.55 759.18 L 1126.61 758.89 L 1126.71 758.61 L 1126.86 758.35 L 1127.05 758.12 L 1127.28 757.92 L 1127.53 757.76 L 1127.80 757.65 L 1128.09 757.57 L 1128.39 757.55 Z" fill="#e0f2fe" stroke="#0369a1" stroke-width="1"/>
    <path d="M 740.95 847.61 L 874.63 847.61 L 1008.31 847.61 L 1141.99 847.61 L 1275.67 847.61 L 1409.36 847.61 L 1543.04 847.61 L 1578.92 847.98 L 1586.46 849.55 L 1593.66 852.30 L 1600.32 856.18 L 1606.27 861.06 L 1611.37 866.84 L 1615.48 873.36 L 1618.49 880.45 L 1620.33 887.93 L 1620.95 895.61 L 1620.95 936.74 L 1620.95 977.87 L 1620.95 1019.01 L 1620.95 1060.14 L 1620.95 1101.27 L 1620.95 1142.40 L 1620.58 1157.58 L 1619.01 1165.12 L 1616.25 1172.32 L 1612.38 1178.98 L 1607.49 1184.93 L 1601.72 1190.03 L 1595.20 1194.14 L 1588.11 1197.15 L 1580.63 1198.99 L 1572.95 1199.61 L 1439.27 1199.61 L 1305.59 1199.61 L 1171.90 1199.61 L 1038.22 1199.61 L 904.54 1199.61 L 770.86 1199.61 L 734.98 1199.23 L 727.44 1197.67 L 720.24 1194.91 L 713.58 1191.04 L 707.62 1186.15 L 702.53 1180.38 L 698.42 1173.86 L 695.41 1166.77 L 693.57 1159.29 L 692.95 1151.61 L 692.95 1110.47 L 692.95 1069.34 L 692.95 1028.21 L 692.95 987.08 L 692.95 945.94 L 692.95 904.81 L 693.32 889.64 L 694.89 882.09 L 697.65 874.90 L 701.52 868.24 L 706.40 862.28 L 712.18 857.18 L 718.70 853.08 L 725.79 850.06 L 733.27 848.23 L 740.95 847.61 Z" fill="#fde68a" stroke="#b45309" stroke-width="1"/>
    <g transform="translate(1156.9491393438666,-1023.6076255295225) scale(1,-1)"><text x="0" y="4" text-anchor="middle" font-size="128.0" fill="#111">TYRION</text></g>
    <path d="M 614.59 1026.79 L 618.98 1026.79 L 623.36 1026.79 L 627.74 1026.79 L 632.13 1026.79 L 636.51 1026.79 L 640.90 1026.79 L 642.11 1026.80 L 642.40 1026.86 L 642.68 1026.97 L 642.94 1027.12 L 643.17 1027.31 L 643.37 1027.53 L 643.53 1027.79 L 643.64 1028.06 L 643.71 1028.35 L 643.74 1028.65 L 643.74 1030.24 L 643.74 1031.84 L 643.74 1033.43 L 643.74 1035.02 L 643.74 1036.62 L 643.74 1038.21 L 643.72 1038.80 L 643.66 1039.09 L 643.56 1039.37 L 643.41 1039.63 L 643.22 1039.86 L 642.99 1040.06 L 642.74 1040.22 L 642.47 1040.34 L 642.18 1040.41 L 641.88 1040.43 L 637.49 1040.43 L 633.11 1040.43 L 628.73 1040.43 L 624.34 1040.43 L 619.96 1040.43 L 615.57 1040.43 L 614.36 1040.42 L 614.07 1040.36 L 613.79 1040.25 L 613.53 1040.10 L 613.30 1039.91 L 613.10 1039.69 L 612.94 1039.43 L 612.83 1039.16 L 612.75 1038.87 L 612.73 1038.57 L 612.73 1036.98 L 612.73 1035.38 L 612.73 1033.79 L 612.73 1032.19 L 612.73 1030.60 L 612.73 1029.00 L 612.75 1028.42 L 612.81 1028.12 L 612.91 1027.84 L 613.06 1027.59 L 613.25 1027.36 L 613.48 1027.16 L 613.73 1027.00 L 614.00 1026.88 L 614.29 1026.81 L 614.59 1026.79 Z" fill="#e0f2fe" stroke="#0369a1" stroke-width="1"/>
    <path d="M 830.45 489.22 L 835.63 489.22 L 840.81 489.22 L 846.00 489.22 L 851.18 489.22 L 856.36 489.22 L 861.54 489.22 L 862.93 489.24 L 863.22 489.30 L 863.50 489.41 L 863.76 489.56 L 863.99 489.75 L 864.19 489.97 L 864.35 490.22 L 864.47 490.50 L 864.54 490.79 L 864.56 491.09 L 864.56 492.68 L 864.56 494.27 L 864.56 495.87 L 864.56 497.46 L 864.56 499.06 L 864.56 500.65 L 864.55 501.24 L 864.49 501.53 L 864.38 501.81 L 864.23 502.07 L 864.04 502.30 L 863.81 502.50 L 863.56 502.66 L 863.29 502.77 L 863.00 502.84 L 862.70 502.87 L 857.52 502.87 L 852.34 502.87 L 847.16 502.87 L 841.97 502.87 L 836.79 502.87 L 831.61 502.87 L 830.22 502.85 L 829.93 502.79 L 829.65 502.69 L 829.39 502.54 L 829.16 502.35 L 828.96 502.12 L 828.80 501.87 L 828.69 501.60 L 828.62 501.31 L 828.59 501.01 L 828.59 499.41 L 828.59 497.82 L 828.59 496.22 L 828.59 494.63 L 828.59 493.04 L 828.59 491.44 L 828.61 490.85 L 828.67 490.56 L 828.77 490.28 L 828.92 490.02 L 829.11 489.79 L 829.34 489.60 L 829.59 489.44 L 829.86 489.32 L 830.15 489.25 L 830.45 489.22 Z" fill="#e0f2fe" stroke="#0369a1" stroke-width="1"/>
    <path d="M 1255.65 731.11 L 1260.83 731.11 L 1266.01 731.11 L 1271.19 731.11 L 1276.37 731.11 L 1281.55 731.11 L 1286.74 731.11 L 1288.13 731.12 L 1288.42 731.18 L 1288.70 731.29 L 1288.96 731.44 L 1289.19 731.63 L 1289.38 731.85 L 1289.54 732.11 L 1289.66 732.38 L 1289.73 732.67 L 1289.76 732.97 L 1289.76 734.56 L 1289.76 736.16 L 1289.76 737.75 L 1289.76 739.35 L 1289.76 740.94 L 1289.76 742.54 L 1289.74 743.12 L 1289.68 743.42 L 1289.57 743.69 L 1289.42 743.95 L 1289.23 744.18 L 1289.01 744.38 L 1288.76 744.54 L 1288.48 744.66 L 1288.19 744.73 L 1287.89 744.75 L 1282.71 744.75 L 1277.53 744.75 L 1272.35 744.75 L 1267.17 744.75 L 1261.99 744.75 L 1256.81 744.75 L 1255.42 744.74 L 1255.12 744.68 L 1254.84 744.57 L 1254.59 744.42 L 1254.36 744.23 L 1254.16 744.01 L 1254.00 743.75 L 1253.88 743.48 L 1253.81 743.19 L 1253.79 742.89 L 1253.79 741.30 L 1253.79 739.70 L 1253.79 738.11 L 1253.79 736.52 L 1253.79 734.92 L 1253.79 733.33 L 1253.80 732.74 L 1253.86 732.45 L 1253.97 732.17 L 1254.12 731.91 L 1254.31 731.68 L 1254.53 731.48 L 1254.78 731.32 L 1255.06 731.20 L 1255.35 731.13 L 1255.65 731.11 Z" fill="#e0f2fe" stroke="#0369a1" stroke-width="1"/>
  </g>
  <text x="10" y="22" font-size="16" fill="#111">level 0  (8 nodes, 16 edge clips)</text>
</svg>
