<svg xmlns:svg="http://www.w3.org/2000/svg" xmlns="http://www.w3.org/2000/svg" version="1.1" width="469.0980401526913" height="160.09841635605721">
    <g transform="translate(-1968.8546223210597,1042.9300752652698)">
        <path fill="none" stroke="Cyan" stroke-opacity="0.39215686274509803" stroke-width="0.5" d="M 2416.622284540871 -940.1220332752647 L 2374.4617106475043 -929.4989110261537"/>
        <path fill="none" stroke="Cyan" stroke-opacity="0.39215686274509803" stroke-width="0.5" d="M 2374.4617106475043 -929.4989110261537 L 2416.630024284992 -918.8947128790248"/>
        <path fill="none" stroke="Cyan" stroke-opacity="0.39215686274509803" stroke-width="1.5" d="M 2416.622284540871 -940.1220332752647 L 2416.630024284992 -918.8947128790248"/>
        <path fill="none" stroke="Cyan" stroke-opacity="0.39215686274509803" stroke-width="1.5" d="M 2374.4602277062286 -940.1092845982793 L 2374.4617106475043 -929.4989110261537"/>
        <path fill="none" stroke="Cyan" stroke-opacity="0.39215686274509803" stroke-width="0.5" d="M 2416.622284540871 -940.1220332752647 L 2374.4617106475043 -929.4989110261537"/>
        <path fill="none" stroke="Cyan" stroke-opacity="0.39215686274509803" stroke-width="1.5" d="M 2416.622284540871 -940.1220332752647 L 2374.4602277062286 -940.1092845982793"/>
        <path fill="none" stroke="Cyan" stroke-opacity="0.39215686274509803" stroke-width="0.5" d="M 2374.4617106475043 -929.4989110261537 L 2352.164709385741 -925.3790807135493"/>
        <path fill="none" stroke="Cyan" stroke-opacity="0.39215686274509803" stroke-width="1.5" d="M 2374.4602277062286 -940.1092845982793 L 2374.4617106475043 -929.4989110261537"/>
        <path fill="none" stroke="Cyan" stroke-opacity="0.39215686274509803" stroke-width="0.5" d="M 2374.4602277062286 -940.1092845982793 L 2352.164709385741 -925.3790807135493"/>
        <path fill="none" stroke="Cyan" stroke-opacity="0.39215686274509803" stroke-width="0.5" d="M 2411.2026007456548 -960.0437764750659 L 2416.622284540871 -940.1220332752647"/>
        <path fill="none" stroke="Cyan" stroke-opacity="0.39215686274509803" stroke-width="0.5" d="M 2411.2026007456548 -960.0437764750659 L 2374.4602277062286 -940.1092845982793"/>
        <path fill="none" stroke="Cyan" stroke-opacity="0.39215686274509803" stroke-width="1.5" d="M 2416.622284540871 -940.1220332752647 L 2374.4602277062286 -940.1092845982793"/>
        <path fill="none" stroke="Cyan" stroke-opacity="0.39215686274509803" stroke-width="0.5" d="M 2306.9328444487974 -964.3873501400078 L 2352.164709385741 -925.3790807135493"/>
        <path fill="none" stroke="Cyan" stroke-opacity="0.39215686274509803" stroke-width="0.5" d="M 2374.4602277062286 -940.1092845982793 L 2352.164709385741 -925.3790807135493"/>
        <path fill="none" stroke="Cyan" stroke-opacity="0.39215686274509803" stroke-width="0.5" d="M 2306.9328444487974 -964.3873501400078 L 2374.4602277062286 -940.1092845982793"/>
        <path fill="none" stroke="Cyan" stroke-opacity="0.39215686274509803" stroke-width="1.5" d="M 2411.193550851632 -981.2754522302203 L 2411.2026007456548 -960.0437764750659"/>
        <path fill="none" stroke="Cyan" stroke-opacity="0.39215686274509803" stroke-width="0.5" d="M 2411.193550851632 -981.2754522302203 L 2374.4602277062286 -940.1092845982793"/>
        <path fill="none" stroke="Cyan" stroke-opacity="0.39215686274509803" stroke-width="0.5" d="M 2411.2026007456548 -960.0437764750659 L 2374.4602277062286 -940.1092845982793"/>
        <path fill="none" stroke="Cyan" stroke-opacity="0.39215686274509803" stroke-width="0.5" d="M 2306.9328444487974 -964.3873501400078 L 2374.4602277062286 -940.1092845982793"/>
        <path fill="none" stroke="Cyan" stroke-opacity="0.39215686274509803" stroke-width="0.5" d="M 2411.193550851632 -981.2754522302203 L 2374.4602277062286 -940.1092845982793"/>
        <path fill="none" stroke="Cyan" stroke-opacity="0.39215686274509803" stroke-width="0.5" d="M 2411.193550851632 -981.2754522302203 L 2306.9328444487974 -964.3873501400078"/>
        <path fill="none" stroke="Cyan" stroke-opacity="0.39215686274509803" stroke-width="0.5" d="M 2306.929256568789 -943.1538874184597 L 2352.164709385741 -925.3790807135493"/>
        <path fill="none" stroke="Cyan" stroke-opacity="0.39215686274509803" stroke-width="0.5" d="M 2306.9328444487974 -964.3873501400078 L 2352.164709385741 -925.3790807135493"/>
        <path fill="none" stroke="Cyan" stroke-opacity="0.39215686274509803" stroke-width="1.5" d="M 2306.9328444487974 -964.3873501400078 L 2306.929256568789 -943.1538874184597"/>
        <path fill="none" stroke="Cyan" stroke-opacity="0.39215686274509803" stroke-width="0.5" d="M 2306.929256568789 -943.1538874184597 L 2314.6678669667244 -925.3834361094326"/>
        <path fill="none" stroke="Cyan" stroke-opacity="0.39215686274509803" stroke-width="1.5" d="M 2314.6678669667244 -925.3834361094326 L 2352.164709385741 -925.3790807135493"/>
        <path fill="none" stroke="Cyan" stroke-opacity="0.39215686274509803" stroke-width="0.5" d="M 2306.929256568789 -943.1538874184597 L 2352.164709385741 -925.3790807135493"/>
        <path fill="none" stroke="Cyan" stroke-opacity="0.39215686274509803" stroke-width="0.5" d="M 2275.3108463087733 -943.1629839026009 L 2314.6678669667244 -925.3834361094326"/>
        <path fill="none" stroke="Cyan" stroke-opacity="0.39215686274509803" stroke-width="0.5" d="M 2306.929256568789 -943.1538874184597 L 2314.6678669667244 -925.3834361094326"/>
        <path fill="none" stroke="Cyan" stroke-opacity="0.39215686274509803" stroke-width="1.5" d="M 2275.3108463087733 -943.1629839026009 L 2306.929256568789 -943.1538874184597"/>
        <path fill="none" stroke="Cyan" stroke-opacity="0.39215686274509803" stroke-width="1.5" d="M 2314.6678669667244 -925.3834361094326 L 2314.6662351582804 -904.1542970979713"/>
        <path fill="none" stroke="Cyan" stroke-opacity="0.39215686274509803" stroke-width="0.5" d="M 2275.3108463087733 -943.1629839026009 L 2314.6678669667244 -925.3834361094326"/>
        <path fill="none" stroke="Cyan" stroke-opacity="0.39215686274509803" stroke-width="0.5" d="M 2275.3108463087733 -943.1629839026009 L 2314.6662351582804 -904.1542970979713"/>
        <path fill="none" stroke="Cyan" stroke-opacity="0.39215686274509803" stroke-width="0.5" d="M 2243.2608953442736 -927.038998270909 L 2314.6662351582804 -904.1542970979713"/>
        <path fill="none" stroke="Cyan" stroke-opacity="0.39215686274509803" stroke-width="0.5" d="M 2275.3108463087733 -943.1629839026009 L 2314.6662351582804 -904.1542970979713"/>
        <path fill="none" stroke="Cyan" stroke-opacity="0.39215686274509803" stroke-width="0.5" d="M 2275.3108463087733 -943.1629839026009 L 2243.2608953442736 -927.038998270909"/>
        <path fill="none" stroke="Cyan" stroke-opacity="0.39215686274509803" stroke-width="0.5" d="M 2275.3108463087733 -943.1629839026009 L 2243.2608953442736 -927.038998270909"/>
        <path fill="none" stroke="Cyan" stroke-opacity="0.39215686274509803" stroke-width="1.5" d="M 2264.7713762221015 -943.1660160639814 L 2275.3108463087733 -943.1629839026009"/>
        <path fill="none" stroke="Cyan" stroke-opacity="0.39215686274509803" stroke-width="0.5" d="M 2264.7713762221015 -943.1660160639814 L 2243.2608953442736 -927.038998270909"/>
        <path fill="none" stroke="Cyan" stroke-opacity="0.39215686274509803" stroke-width="1.5" d="M 2264.777075622761 -964.393187835369 L 2264.7713762221015 -943.1660160639814"/>
        <path fill="none" stroke="Cyan" stroke-opacity="0.39215686274509803" stroke-width="0.5" d="M 2264.777075622761 -964.393187835369 L 2243.264554444806 -948.2706744868259"/>
        <path fill="none" stroke="Cyan" stroke-opacity="0.39215686274509803" stroke-width="0.5" d="M 2243.264554444806 -948.2706744868259 L 2264.7713762221015 -943.1660160639814"/>
        <path fill="none" stroke="Cyan" stroke-opacity="0.39215686274509803" stroke-width="0.5" d="M 2264.7713762221015 -943.1660160639814 L 2243.2608953442736 -927.038998270909"/>
        <path fill="none" stroke="Cyan" stroke-opacity="0.39215686274509803" stroke-width="0.5" d="M 2243.264554444806 -948.2706744868259 L 2264.7713762221015 -943.1660160639814"/>
        <path fill="none" stroke="Cyan" stroke-opacity="0.39215686274509803" stroke-width="1.5" d="M 2243.264554444806 -948.2706744868259 L 2243.2608953442736 -927.038998270909"/>
        <path fill="none" stroke="Cyan" stroke-opacity="0.39215686274509803" stroke-width="0.5" d="M 2235.0107899773375 -1012.6052578746933 L 2264.777075622761 -964.393187835369"/>
        <path fill="none" stroke="Cyan" stroke-opacity="0.39215686274509803" stroke-width="0.5" d="M 2235.0107899773375 -1012.6052578746933 L 2243.264554444806 -948.2706744868259"/>
        <path fill="none" stroke="Cyan" stroke-opacity="0.39215686274509803" stroke-width="0.5" d="M 2264.777075622761 -964.393187835369 L 2243.264554444806 -948.2706744868259"/>
        <path fill="none" stroke="Cyan" stroke-opacity="0.39215686274509803" stroke-width="1.5" d="M 2226.183178703404 -1012.6054303689147 L 2235.0107899773375 -1012.6052578746933"/>
        <path fill="none" stroke="Cyan" stroke-opacity="0.39215686274509803" stroke-width="0.5" d="M 2226.183178703404 -1012.6054303689147 L 2243.264554444806 -948.2706744868259"/>
        <path fill="none" stroke="Cyan" stroke-opacity="0.39215686274509803" stroke-width="0.5" d="M 2235.0107899773375 -1012.6052578746933 L 2243.264554444806 -948.2706744868259"/>
        <path fill="none" stroke="Cyan" stroke-opacity="0.39215686274509803" stroke-width="0.5" d="M 2226.183178703404 -1012.6054303689147 L 2217.1027476354993 -948.257331371363"/>
        <path fill="none" stroke="Cyan" stroke-opacity="0.39215686274509803" stroke-width="1.5" d="M 2243.264554444806 -948.2706744868259 L 2217.1027476354993 -948.257331371363"/>
        <path fill="none" stroke="Cyan" stroke-opacity="0.39215686274509803" stroke-width="0.5" d="M 2226.183178703404 -1012.6054303689147 L 2243.264554444806 -948.2706744868259"/>
        <path fill="none" stroke="Cyan" stroke-opacity="0.39215686274509803" stroke-width="0.5" d="M 2204.280616408735 -1012.2819476100875 L 2217.1027476354993 -948.257331371363"/>
        <path fill="none" stroke="Cyan" stroke-opacity="0.39215686274509803" stroke-width="0.5" d="M 2226.183178703404 -1012.6054303689147 L 2217.1027476354993 -948.257331371363"/>
        <path fill="none" stroke="Cyan" stroke-opacity="0.39215686274509803" stroke-width="0.5" d="M 2226.183178703404 -1012.6054303689147 L 2204.280616408735 -1012.2819476100875"/>
        <path fill="none" stroke="Cyan" stroke-opacity="0.39215686274509803" stroke-width="0.5" d="M 2204.280616408735 -1012.2819476100875 L 2217.1027476354993 -948.257331371363"/>
        <path fill="none" stroke="Cyan" stroke-opacity="0.39215686274509803" stroke-width="0.5" d="M 2204.280616408735 -1012.2819476100875 L 2193.6753366475077 -939.2990203379846"/>
        <path fill="none" stroke="Cyan" stroke-opacity="0.39215686274509803" stroke-width="0.5" d="M 2217.1027476354993 -948.257331371363 L 2193.6753366475077 -939.2990203379846"/>
        <path fill="none" stroke="Cyan" stroke-opacity="0.39215686274509803" stroke-width="0.5" d="M 2193.6753366475077 -939.2990203379846 L 2217.0979313470825 -937.6471281451398"/>
        <path fill="none" stroke="Cyan" stroke-opacity="0.39215686274509803" stroke-width="1.5" d="M 2217.1027476354993 -948.257331371363 L 2217.0979313470825 -937.6471281451398"/>
        <path fill="none" stroke="Cyan" stroke-opacity="0.39215686274509803" stroke-width="0.5" d="M 2217.1027476354993 -948.257331371363 L 2193.6753366475077 -939.2990203379846"/>
        <path fill="none" stroke="Cyan" stroke-opacity="0.39215686274509803" stroke-width="0.5" d="M 2175.4813544376975 -1012.2852369625241 L 2193.6753366475077 -939.2990203379846"/>
        <path fill="none" stroke="Cyan" stroke-opacity="0.39215686274509803" stroke-width="0.5" d="M 2204.280616408735 -1012.2819476100875 L 2193.6753366475077 -939.2990203379846"/>
        <path fill="none" stroke="Cyan" stroke-opacity="0.39215686274509803" stroke-width="1.5" d="M 2175.4813544376975 -1012.2852369625241 L 2204.280616408735 -1012.2819476100875"/>
        <path fill="none" stroke="Cyan" stroke-opacity="0.39215686274509803" stroke-width="0.5" d="M 2143.7005661395356 -994.5309806283233 L 2193.6753366475077 -939.2990203379846"/>
        <path fill="none" stroke="Cyan" stroke-opacity="0.39215686274509803" stroke-width="0.5" d="M 2175.4813544376975 -1012.2852369625241 L 2193.6753366475077 -939.2990203379846"/>
        <path fill="none" stroke="Cyan" stroke-opacity="0.39215686274509803" stroke-width="0.5" d="M 2175.4813544376975 -1012.2852369625241 L 2143.7005661395356 -994.5309806283233"/>
        <path fill="none" stroke="Cyan" stroke-opacity="0.39215686274509803" stroke-width="0.5" d="M 2143.7005661395356 -994.5309806283233 L 2121.0184308724743 -939.3078587015585"/>
        <path fill="none" stroke="Cyan" stroke-opacity="0.39215686274509803" stroke-width="1.5" d="M 2121.0184308724743 -939.3078587015585 L 2193.6753366475077 -939.2990203379846"/>
        <path fill="none" stroke="Cyan" stroke-opacity="0.39215686274509803" stroke-width="0.5" d="M 2143.7005661395356 -994.5309806283233 L 2193.6753366475077 -939.2990203379846"/>
        <path fill="none" stroke="Cyan" stroke-opacity="0.39215686274509803" stroke-width="0.5" d="M 2143.7005661395356 -994.5309806283233 L 2096.979107926188 -968.2626181711246"/>
        <path fill="none" stroke="Cyan" stroke-opacity="0.39215686274509803" stroke-width="0.5" d="M 2096.979107926188 -968.2626181711246 L 2121.0184308724743 -939.3078587015585"/>
        <path fill="none" stroke="Cyan" stroke-opacity="0.39215686274509803" stroke-width="0.5" d="M 2143.7005661395356 -994.5309806283233 L 2121.0184308724743 -939.3078587015585"/>
        <path fill="none" stroke="Cyan" stroke-opacity="0.39215686274509803" stroke-width="0.5" d="M 2103.544214432814 -994.5153002986586 L 2096.979107926188 -968.2626181711246"/>
        <path fill="none" stroke="Cyan" stroke-opacity="0.39215686274509803" stroke-width="0.5" d="M 2143.7005661395356 -994.5309806283233 L 2096.979107926188 -968.2626181711246"/>
        <path fill="none" stroke="Cyan" stroke-opacity="0.39215686274509803" stroke-width="1.5" d="M 2143.7005661395356 -994.5309806283233 L 2103.544214432814 -994.5153002986586"/>
        <path fill="none" stroke="Cyan" stroke-opacity="0.39215686274509803" stroke-width="1.5" d="M 2096.979107926188 -968.2626181711246 L 2096.9756341535444 -947.0306784476179"/>
        <path fill="none" stroke="Cyan" stroke-opacity="0.39215686274509803" stroke-width="0.5" d="M 2096.9756341535444 -947.0306784476179 L 2121.0184308724743 -939.3078587015585"/>
        <path fill="none" stroke="Cyan" stroke-opacity="0.39215686274509803" stroke-width="0.5" d="M 2096.979107926188 -968.2626181711246 L 2121.0184308724743 -939.3078587015585"/>
        <path fill="none" stroke="Cyan" stroke-opacity="0.39215686274509803" stroke-width="0.5" d="M 2103.544214432814 -994.5153002986586 L 2050.1513700544765 -968.2600766505849"/>
        <path fill="none" stroke="Cyan" stroke-opacity="0.39215686274509803" stroke-width="1.5" d="M 2096.979107926188 -968.2626181711246 L 2050.1513700544765 -968.2600766505849"/>
        <path fill="none" stroke="Cyan" stroke-opacity="0.39215686274509803" stroke-width="0.5" d="M 2103.544214432814 -994.5153002986586 L 2096.979107926188 -968.2626181711246"/>
        <path fill="none" stroke="Cyan" stroke-opacity="0.39215686274509803" stroke-width="0.5" d="M 2081.9903377503674 -1021.607437076511 L 2050.1513700544765 -968.2600766505849"/>
        <path fill="none" stroke="Cyan" stroke-opacity="0.39215686274509803" stroke-width="0.5" d="M 2103.544214432814 -994.5153002986586 L 2050.1513700544765 -968.2600766505849"/>
        <path fill="none" stroke="Cyan" stroke-opacity="0.39215686274509803" stroke-width="0.5" d="M 2081.9903377503674 -1021.607437076511 L 2103.544214432814 -994.5153002986586"/>
        <path fill="none" stroke="Cyan" stroke-opacity="0.39215686274509803" stroke-width="0.5" d="M 2041.847702906737 -1021.5930519031576 L 2050.1513700544765 -968.2600766505849"/>
        <path fill="none" stroke="Cyan" stroke-opacity="0.39215686274509803" stroke-width="0.5" d="M 2081.9903377503674 -1021.607437076511 L 2050.1513700544765 -968.2600766505849"/>
        <path fill="none" stroke="Cyan" stroke-opacity="0.39215686274509803" stroke-width="1.5" d="M 2081.9903377503674 -1021.607437076511 L 2041.847702906737 -1021.5930519031576"/>
        <path fill="none" stroke="Cyan" stroke-opacity="0.39215686274509803" stroke-width="0.5" d="M 2041.847702906737 -1021.5930519031576 L 2028.3199642970544 -1001.7608180191713"/>
        <path fill="none" stroke="Cyan" stroke-opacity="0.39215686274509803" stroke-width="0.5" d="M 2028.3199642970544 -1001.7608180191713 L 2050.1513700544765 -968.2600766505849"/>
        <path fill="none" stroke="Cyan" stroke-opacity="0.39215686274509803" stroke-width="0.5" d="M 2041.847702906737 -1021.5930519031576 L 2050.1513700544765 -968.2600766505849"/>
        <path fill="none" stroke="Cyan" stroke-opacity="0.39215686274509803" stroke-width="1.5" d="M 2028.3199642970544 -1001.7608180191713 L 2028.3213491766194 -980.5324907923313"/>
        <path fill="none" stroke="Cyan" stroke-opacity="0.39215686274509803" stroke-width="0.5" d="M 2028.3213491766194 -980.5324907923313 L 2050.1513700544765 -968.2600766505849"/>
        <path fill="none" stroke="Cyan" stroke-opacity="0.39215686274509803" stroke-width="0.5" d="M 2028.3199642970544 -1001.7608180191713 L 2050.1513700544765 -968.2600766505849"/>
        <path fill="none" stroke="Cyan" stroke-opacity="0.39215686274509803" stroke-width="0.5" d="M 1990.1772605098183 -991.1427047273601 L 2028.3213491766194 -980.5324907923313"/>
        <path fill="none" stroke="Cyan" stroke-opacity="0.39215686274509803" stroke-width="1.5" d="M 2028.3199642970544 -1001.7608180191713 L 2028.3213491766194 -980.5324907923313"/>
        <path fill="none" stroke="Cyan" stroke-opacity="0.39215686274509803" stroke-width="0.5" d="M 2028.3199642970544 -1001.7608180191713 L 1990.1772605098183 -991.1427047273601"/>
        <path fill="none" stroke="Blue" stroke-opacity="1" stroke-width="1" d="M 2416.630024284992 -918.8947128790248 L 2374.4617106475043 -929.4989110261537"/>
        <path fill="none" stroke="Blue" stroke-opacity="1" stroke-width="1" d="M 2416.630024284992 -918.8947128790248 L 2416.622284540871 -940.1220332752647"/>
        <path fill="none" stroke="Blue" stroke-opacity="1" stroke-width="1" d="M 2352.164709385741 -925.3790807135493 L 2374.4617106475043 -929.4989110261537"/>
        <path fill="none" stroke="Blue" stroke-opacity="1" stroke-width="1" d="M 2416.622284540871 -940.1220332752647 L 2411.2026007456548 -960.0437764750659"/>
        <path fill="none" stroke="Blue" stroke-opacity="1" stroke-width="1" d="M 2411.2026007456548 -960.0437764750659 L 2411.193550851632 -981.2754522302203"/>
        <path fill="none" stroke="Blue" stroke-opacity="1" stroke-width="1" d="M 2306.9328444487974 -964.3873501400078 L 2411.193550851632 -981.2754522302203"/>
        <path fill="none" stroke="Blue" stroke-opacity="1" stroke-width="1" d="M 2306.929256568789 -943.1538874184597 L 2306.9328444487974 -964.3873501400078"/>
        <path fill="none" stroke="Blue" stroke-opacity="1" stroke-width="1" d="M 2352.164709385741 -925.3790807135493 L 2314.6678669667244 -925.3834361094326"/>
        <path fill="none" stroke="Blue" stroke-opacity="1" stroke-width="1" d="M 2306.929256568789 -943.1538874184597 L 2275.3108463087733 -943.1629839026009"/>
        <path fill="none" stroke="Blue" stroke-opacity="1" stroke-width="1" d="M 2314.6662351582804 -904.1542970979713 L 2314.6678669667244 -925.3834361094326"/>
        <path fill="none" stroke="Blue" stroke-opacity="1" stroke-width="1" d="M 2314.6662351582804 -904.1542970979713 L 2243.2608953442736 -927.038998270909"/>
        <path fill="none" stroke="Blue" stroke-opacity="1" stroke-width="1" d="M 2275.3108463087733 -943.1629839026009 L 2264.7713762221015 -943.1660160639814"/>
        <path fill="none" stroke="Blue" stroke-opacity="1" stroke-width="1" d="M 2264.7713762221015 -943.1660160639814 L 2264.777075622761 -964.393187835369"/>
        <path fill="none" stroke="Blue" stroke-opacity="1" stroke-width="1" d="M 2243.2608953442736 -927.038998270909 L 2243.264554444806 -948.2706744868259"/>
        <path fill="none" stroke="Blue" stroke-opacity="1" stroke-width="1" d="M 2264.777075622761 -964.393187835369 L 2235.0107899773375 -1012.6052578746933"/>
        <path fill="none" stroke="Blue" stroke-opacity="1" stroke-width="1" d="M 2235.0107899773375 -1012.6052578746933 L 2226.183178703404 -1012.6054303689147"/>
        <path fill="none" stroke="Blue" stroke-opacity="1" stroke-width="1" d="M 2217.1027476354993 -948.257331371363 L 2243.264554444806 -948.2706744868259"/>
        <path fill="none" stroke="Blue" stroke-opacity="1" stroke-width="1" d="M 2204.280616408735 -1012.2819476100875 L 2226.183178703404 -1012.6054303689147"/>
        <path fill="none" stroke="Blue" stroke-opacity="1" stroke-width="1" d="M 2217.0979313470825 -937.6471281451398 L 2193.6753366475077 -939.2990203379846"/>
        <path fill="none" stroke="Blue" stroke-opacity="1" stroke-width="1" d="M 2217.0979313470825 -937.6471281451398 L 2217.1027476354993 -948.257331371363"/>
        <path fill="none" stroke="Blue" stroke-opacity="1" stroke-width="1" d="M 2204.280616408735 -1012.2819476100875 L 2175.4813544376975 -1012.2852369625241"/>
        <path fill="none" stroke="Blue" stroke-opacity="1" stroke-width="1" d="M 2143.7005661395356 -994.5309806283233 L 2175.4813544376975 -1012.2852369625241"/>
        <path fill="none" stroke="Blue" stroke-opacity="1" stroke-width="1" d="M 2193.6753366475077 -939.2990203379846 L 2121.0184308724743 -939.3078587015585"/>
        <path fill="none" stroke="Blue" stroke-opacity="1" stroke-width="1" d="M 2103.544214432814 -994.5153002986586 L 2143.7005661395356 -994.5309806283233"/>
        <path fill="none" stroke="Blue" stroke-opacity="1" stroke-width="1" d="M 2096.9756341535444 -947.0306784476179 L 2096.979107926188 -968.2626181711246"/>
        <path fill="none" stroke="Blue" stroke-opacity="1" stroke-width="1" d="M 2121.0184308724743 -939.3078587015585 L 2096.9756341535444 -947.0306784476179"/>
        <path fill="none" stroke="Blue" stroke-opacity="1" stroke-width="1" d="M 2050.1513700544765 -968.2600766505849 L 2096.979107926188 -968.2626181711246"/>
        <path fill="none" stroke="Blue" stroke-opacity="1" stroke-width="1" d="M 2103.544214432814 -994.5153002986586 L 2081.9903377503674 -1021.607437076511"/>
        <path fill="none" stroke="Blue" stroke-opacity="1" stroke-width="1" d="M 2041.847702906737 -1021.5930519031576 L 2081.9903377503674 -1021.607437076511"/>
        <path fill="none" stroke="Blue" stroke-opacity="1" stroke-width="1" d="M 2028.3199642970544 -1001.7608180191713 L 2041.847702906737 -1021.5930519031576"/>
        <path fill="none" stroke="Blue" stroke-opacity="1" stroke-width="1" d="M 2050.1513700544765 -968.2600766505849 L 2028.3213491766194 -980.5324907923313"/>
        <path fill="none" stroke="Blue" stroke-opacity="1" stroke-width="1" d="M 2028.3213491766194 -980.5324907923313 L 1990.1772605098183 -991.1427047273601"/>
        <path fill="none" stroke="Blue" stroke-opacity="1" stroke-width="1" d="M 1990.1772605098183 -991.1427047273601 L 2028.3199642970544 -1001.7608180191713"/>
        <path fill="none" stroke="Brown" stroke-opacity="1" stroke-width="1" d="M 2395.544126358506 -929.4993876567421 L 2374.4602277062286 -940.1092845982793 L 2306.929256568789 -943.1538874184597 L 2264.7713762221015 -943.1660160639814 L 2243.264554444806 -948.2706744868259 L 2217.1027476354993 -948.257331371363 L 2166.42899698187 -939.3023347243249 L 2096.979107926188 -968.2626181711246 L 2028.320656736837 -991.1466544057513 L 2009.248048670549 -991.1380062144847"/>
    </g>
</svg>