<svg xmlns:svg="http://www.w3.org/2000/svg" xmlns="http://www.w3.org/2000/svg" version="1.1" width="568.5228032423764" height="567.8838983429442">
    <g transform="translate(-884.0830315587456,559.621968524856)">
        <path fill="none" stroke="Cyan" stroke-opacity="0.39215686274509803" stroke-width="0.5" d="M 1042.2236394465506 -119.36570885827614 L 1138.3540530727291 -17.580015783837972"/>
        <path fill="none" stroke="Cyan" stroke-opacity="0.39215686274509803" stroke-width="1.5" d="M 1138.3534988675221 -38.80600016126211 L 1138.3540530727291 -17.580015783837972"/>
        <path fill="none" stroke="Cyan" stroke-opacity="0.39215686274509803" stroke-width="0.5" d="M 1042.2236394465506 -119.36570885827614 L 1138.3534988675221 -38.80600016126211"/>
        <path fill="none" stroke="Cyan" stroke-opacity="0.39215686274509803" stroke-width="1.5" d="M 960.3530747120163 -78.22226563564153 L 1138.3540530727291 -17.580015783837972"/>
        <path fill="none" stroke="Cyan" stroke-opacity="0.39215686274509803" stroke-width="0.5" d="M 1042.2236394465506 -119.36570885827614 L 1138.3540530727291 -17.580015783837972"/>
        <path fill="none" stroke="Cyan" stroke-opacity="0.39215686274509803" stroke-width="0.5" d="M 1042.2236394465506 -119.36570885827614 L 960.3530747120163 -78.22226563564153"/>
        <path fill="none" stroke="Cyan" stroke-opacity="0.39215686274509803" stroke-width="0.5" d="M 1042.2236394465506 -119.36570885827614 L 960.3530747120163 -78.22226563564153"/>
        <path fill="none" stroke="Cyan" stroke-opacity="0.39215686274509803" stroke-width="1.5" d="M 976.8905994700843 -119.36835921394488 L 1042.2236394465506 -119.36570885827614"/>
        <path fill="none" stroke="Cyan" stroke-opacity="0.39215686274509803" stroke-width="0.5" d="M 976.8905994700843 -119.36835921394488 L 960.3530747120163 -78.22226563564153"/>
        <path fill="none" stroke="Cyan" stroke-opacity="0.39215686274509803" stroke-width="0.5" d="M 915.5255604303932 -99.4605065681668 L 960.3530747120163 -78.22226563564153"/>
        <path fill="none" stroke="Cyan" stroke-opacity="0.39215686274509803" stroke-width="0.5" d="M 976.8905994700843 -119.36835921394488 L 960.3530747120163 -78.22226563564153"/>
        <path fill="none" stroke="Cyan" stroke-opacity="0.39215686274509803" stroke-width="0.5" d="M 976.8905994700843 -119.36835921394488 L 915.5255604303932 -99.4605065681668"/>
        <path fill="none" stroke="Cyan" stroke-opacity="0.39215686274509803" stroke-width="1.5" d="M 915.5255604303932 -99.4605065681668 L 932.3392738124186 -78.22703382868612"/>
        <path fill="none" stroke="Cyan" stroke-opacity="0.39215686274509803" stroke-width="1.5" d="M 932.3392738124186 -78.22703382868612 L 960.3530747120163 -78.22226563564153"/>
        <path fill="none" stroke="Cyan" stroke-opacity="0.39215686274509803" stroke-width="0.5" d="M 915.5255604303932 -99.4605065681668 L 960.3530747120163 -78.22226563564153"/>
        <path fill="none" stroke="Cyan" stroke-opacity="0.39215686274509803" stroke-width="1.5" d="M 909.9368213946773 -119.46989427048935 L 915.5255604303932 -99.4605065681668"/>
        <path fill="none" stroke="Cyan" stroke-opacity="0.39215686274509803" stroke-width="0.5" d="M 976.8905994700843 -119.36835921394488 L 915.5255604303932 -99.4605065681668"/>
        <path fill="none" stroke="Cyan" stroke-opacity="0.39215686274509803" stroke-width="0.5" d="M 909.9368213946773 -119.46989427048935 L 976.8905994700843 -119.36835921394488"/>
        <path fill="none" stroke="Cyan" stroke-opacity="0.39215686274509803" stroke-width="0.5" d="M 1042.2236394465506 -119.36570885827614 L 1138.3534988675221 -38.80600016126211"/>
        <path fill="none" stroke="Cyan" stroke-opacity="0.39215686274509803" stroke-width="1.5" d="M 1069.9058508203925 -140.30682875366287 L 1138.3534988675221 -38.80600016126211"/>
        <path fill="none" stroke="Cyan" stroke-opacity="0.39215686274509803" stroke-width="0.5" d="M 1069.9058508203925 -140.30682875366287 L 1042.2236394465506 -119.36570885827614"/>
        <path fill="none" stroke="Cyan" stroke-opacity="0.39215686274509803" stroke-width="1.5" d="M 976.8905994700843 -119.36835921394488 L 1042.2236394465506 -119.36570885827614"/>
        <path fill="none" stroke="Cyan" stroke-opacity="0.39215686274509803" stroke-width="1.5" d="M 1042.216409362124 -140.5893996520895 L 1042.2236394465506 -119.36570885827614"/>
        <path fill="none" stroke="Cyan" stroke-opacity="0.39215686274509803" stroke-width="0.5" d="M 1042.216409362124 -140.5893996520895 L 976.8905994700843 -119.36835921394488"/>
        <path fill="none" stroke="Cyan" stroke-opacity="0.39215686274509803" stroke-width="1.5" d="M 1042.216409362124 -140.5893996520895 L 1042.2236394465506 -119.36570885827614"/>
        <path fill="none" stroke="Cyan" stroke-opacity="0.39215686274509803" stroke-width="0.5" d="M 1069.9058508203925 -140.30682875366287 L 1042.2236394465506 -119.36570885827614"/>
        <path fill="none" stroke="Cyan" stroke-opacity="0.39215686274509803" stroke-width="0.5" d="M 1042.216409362124 -140.5893996520895 L 1069.9058508203925 -140.30682875366287"/>
        <path fill="none" stroke="Cyan" stroke-opacity="0.39215686274509803" stroke-width="0.5" d="M 909.9368213946773 -119.46989427048935 L 976.8905994700843 -119.36835921394488"/>
        <path fill="none" stroke="Cyan" stroke-opacity="0.39215686274509803" stroke-width="1.5" d="M 976.8823182894121 -140.5956505658799 L 976.8905994700843 -119.36835921394488"/>
        <path fill="none" stroke="Cyan" stroke-opacity="0.39215686274509803" stroke-width="0.5" d="M 976.8823182894121 -140.5956505658799 L 909.9368213946773 -119.46989427048935"/>
        <path fill="none" stroke="Cyan" stroke-opacity="0.39215686274509803" stroke-width="1.5" d="M 976.8823182894121 -140.5956505658799 L 976.8905994700843 -119.36835921394488"/>
        <path fill="none" stroke="Cyan" stroke-opacity="0.39215686274509803" stroke-width="0.5" d="M 1042.216409362124 -140.5893996520895 L 976.8905994700843 -119.36835921394488"/>
        <path fill="none" stroke="Cyan" stroke-opacity="0.39215686274509803" stroke-width="1.5" d="M 976.8823182894121 -140.5956505658799 L 1042.216409362124 -140.5893996520895"/>
        <path fill="none" stroke="Cyan" stroke-opacity="0.39215686274509803" stroke-width="1.5" d="M 909.9249771606718 -140.7018804195137 L 909.9368213946773 -119.46989427048935"/>
        <path fill="none" stroke="Cyan" stroke-opacity="0.39215686274509803" stroke-width="0.5" d="M 976.8823182894121 -140.5956505658799 L 909.9368213946773 -119.46989427048935"/>
        <path fill="none" stroke="Cyan" stroke-opacity="0.39215686274509803" stroke-width="1.5" d="M 909.9249771606718 -140.7018804195137 L 976.8823182894121 -140.5956505658799"/>
        <path fill="none" stroke="Cyan" stroke-opacity="0.39215686274509803" stroke-width="1.5" d="M 1069.9058508203925 -140.30682875366287 L 1138.3534988675221 -38.80600016126211"/>
        <path fill="none" stroke="Cyan" stroke-opacity="0.39215686274509803" stroke-width="0.5" d="M 1168.5361368916238 -161.52546066651567 L 1138.3534988675221 -38.80600016126211"/>
        <path fill="none" stroke="Cyan" stroke-opacity="0.39215686274509803" stroke-width="0.5" d="M 1168.5361368916238 -161.52546066651567 L 1069.9058508203925 -140.30682875366287"/>
        <path fill="none" stroke="Cyan" stroke-opacity="0.39215686274509803" stroke-width="0.5" d="M 1168.5361368916238 -161.52546066651567 L 1069.9058508203925 -140.30682875366287"/>
        <path fill="none" stroke="Cyan" stroke-opacity="0.39215686274509803" stroke-width="1.5" d="M 1069.9084883709206 -161.53817201588282 L 1168.5361368916238 -161.52546066651567"/>
        <path fill="none" stroke="Cyan" stroke-opacity="0.39215686274509803" stroke-width="1.5" d="M 1069.9084883709206 -161.53817201588282 L 1069.9058508203925 -140.30682875366287"/>
        <path fill="none" stroke="Cyan" stroke-opacity="0.39215686274509803" stroke-width="0.5" d="M 1042.216409362124 -140.5893996520895 L 1069.9058508203925 -140.30682875366287"/>
        <path fill="none" stroke="Cyan" stroke-opacity="0.39215686274509803" stroke-width="1.5" d="M 1069.9084883709206 -161.53817201588282 L 1069.9058508203925 -140.30682875366287"/>
        <path fill="none" stroke="Cyan" stroke-opacity="0.39215686274509803" stroke-width="0.5" d="M 1069.9084883709206 -161.53817201588282 L 1042.216409362124 -140.5893996520895"/>
        <path fill="none" stroke="Cyan" stroke-opacity="0.39215686274509803" stroke-width="0.5" d="M 1084.1491926151318 -345.6218641729427 L 1217.631510292806 -252.3795924721503"/>
        <path fill="none" stroke="Cyan" stroke-opacity="0.39215686274509803" stroke-width="1.5" d="M 1217.6293268428437 -273.60020174196876 L 1217.631510292806 -252.3795924721503"/>
        <path fill="none" stroke="Cyan" stroke-opacity="0.39215686274509803" stroke-width="0.5" d="M 1084.1491926151318 -345.6218641729427 L 1217.6293268428437 -273.60020174196876"/>
        <path fill="none" stroke="Cyan" stroke-opacity="0.39215686274509803" stroke-width="1.5" d="M 1069.9084883709206 -161.53817201588282 L 1168.5361368916238 -161.52546066651567"/>
        <path fill="none" stroke="Cyan" stroke-opacity="0.39215686274509803" stroke-width="1.5" d="M 1217.631510292806 -252.3795924721503 L 1168.5361368916238 -161.52546066651567"/>
        <path fill="none" stroke="Cyan" stroke-opacity="0.39215686274509803" stroke-width="0.5" d="M 1217.631510292806 -252.3795924721503 L 1069.9084883709206 -161.53817201588282"/>
        <path fill="none" stroke="Cyan" stroke-opacity="0.39215686274509803" stroke-width="0.5" d="M 1084.1491926151318 -345.6218641729427 L 1069.9084883709206 -161.53817201588282"/>
        <path fill="none" stroke="Cyan" stroke-opacity="0.39215686274509803" stroke-width="0.5" d="M 1217.631510292806 -252.3795924721503 L 1069.9084883709206 -161.53817201588282"/>
        <path fill="none" stroke="Cyan" stroke-opacity="0.39215686274509803" stroke-width="0.5" d="M 1084.1491926151318 -345.6218641729427 L 1217.631510292806 -252.3795924721503"/>
        <path fill="none" stroke="Cyan" stroke-opacity="0.39215686274509803" stroke-width="1.5" d="M 976.8823182894121 -140.5956505658799 L 1042.216409362124 -140.5893996520895"/>
        <path fill="none" stroke="Cyan" stroke-opacity="0.39215686274509803" stroke-width="0.5" d="M 1069.9084883709206 -161.53817201588282 L 1042.216409362124 -140.5893996520895"/>
        <path fill="none" stroke="Cyan" stroke-opacity="0.39215686274509803" stroke-width="0.5" d="M 1069.9084883709206 -161.53817201588282 L 976.8823182894121 -140.5956505658799"/>
        <path fill="none" stroke="Cyan" stroke-opacity="0.39215686274509803" stroke-width="1.5" d="M 993.6050830766025 -304.45317422512966 L 1026.4138519458972 -304.44887709282386"/>
        <path fill="none" stroke="Cyan" stroke-opacity="0.39215686274509803" stroke-width="0.5" d="M 993.6050830766025 -304.45317422512966 L 1069.9084883709206 -161.53817201588282"/>
        <path fill="none" stroke="Cyan" stroke-opacity="0.39215686274509803" stroke-width="0.5" d="M 1026.4138519458972 -304.44887709282386 L 1069.9084883709206 -161.53817201588282"/>
        <path fill="none" stroke="Cyan" stroke-opacity="0.39215686274509803" stroke-width="1.5" d="M 993.6050830766025 -304.45317422512966 L 976.8823182894121 -140.5956505658799"/>
        <path fill="none" stroke="Cyan" stroke-opacity="0.39215686274509803" stroke-width="0.5" d="M 1069.9084883709206 -161.53817201588282 L 976.8823182894121 -140.5956505658799"/>
        <path fill="none" stroke="Cyan" stroke-opacity="0.39215686274509803" stroke-width="0.5" d="M 993.6050830766025 -304.45317422512966 L 1069.9084883709206 -161.53817201588282"/>
        <path fill="none" stroke="Cyan" stroke-opacity="0.39215686274509803" stroke-width="1.5" d="M 909.9249771606718 -140.7018804195137 L 976.8823182894121 -140.5956505658799"/>
        <path fill="none" stroke="Cyan" stroke-opacity="0.39215686274509803" stroke-width="1.5" d="M 993.6050830766025 -304.45317422512966 L 976.8823182894121 -140.5956505658799"/>
        <path fill="none" stroke="Cyan" stroke-opacity="0.39215686274509803" stroke-width="0.5" d="M 993.6050830766025 -304.45317422512966 L 909.9249771606718 -140.7018804195137"/>
        <path fill="none" stroke="Cyan" stroke-opacity="0.39215686274509803" stroke-width="1.5" d="M 1217.6293268428437 -273.60020174196876 L 1217.631510292806 -252.3795924721503"/>
        <path fill="none" stroke="Cyan" stroke-opacity="0.39215686274509803" stroke-width="0.5" d="M 1238.0278546575964 -307.4518194104175 L 1217.631510292806 -252.3795924721503"/>
        <path fill="none" stroke="Cyan" stroke-opacity="0.39215686274509803" stroke-width="1.5" d="M 1238.0278546575964 -307.4518194104175 L 1217.6293268428437 -273.60020174196876"/>
        <path fill="none" stroke="Cyan" stroke-opacity="0.39215686274509803" stroke-width="0.5" d="M 1238.0278546575964 -307.4518194104175 L 1217.631510292806 -252.3795924721503"/>
        <path fill="none" stroke="Cyan" stroke-opacity="0.39215686274509803" stroke-width="0.5" d="M 1308.4910110685514 -328.69044668213115 L 1217.631510292806 -252.3795924721503"/>
        <path fill="none" stroke="Cyan" stroke-opacity="0.39215686274509803" stroke-width="0.5" d="M 1308.4910110685514 -328.69044668213115 L 1238.0278546575964 -307.4518194104175"/>
        <path fill="none" stroke="Cyan" stroke-opacity="0.39215686274509803" stroke-width="1.5" d="M 1238.0278546575964 -307.4518194104175 L 1217.6293268428437 -273.60020174196876"/>
        <path fill="none" stroke="Cyan" stroke-opacity="0.39215686274509803" stroke-width="1.5" d="M 1238.0409476697162 -328.6793515949196 L 1238.0278546575964 -307.4518194104175"/>
        <path fill="none" stroke="Cyan" stroke-opacity="0.39215686274509803" stroke-width="0.5" d="M 1238.0409476697162 -328.6793515949196 L 1217.6293268428437 -273.60020174196876"/>
        <path fill="none" stroke="Cyan" stroke-opacity="0.39215686274509803" stroke-width="0.5" d="M 1167.8532325464016 -392.86848545736376 L 1217.6293268428437 -273.60020174196876"/>
        <path fill="none" stroke="Cyan" stroke-opacity="0.39215686274509803" stroke-width="0.5" d="M 1238.0409476697162 -328.6793515949196 L 1217.6293268428437 -273.60020174196876"/>
        <path fill="none" stroke="Cyan" stroke-opacity="0.39215686274509803" stroke-width="0.5" d="M 1167.8532325464016 -392.86848545736376 L 1238.0409476697162 -328.6793515949196"/>
        <path fill="none" stroke="Cyan" stroke-opacity="0.39215686274509803" stroke-width="1.5" d="M 1084.1491926151318 -345.6218641729427 L 1026.4138519458972 -304.44887709282386"/>
        <path fill="none" stroke="Cyan" stroke-opacity="0.39215686274509803" stroke-width="0.5" d="M 1026.4138519458972 -304.44887709282386 L 1069.9084883709206 -161.53817201588282"/>
        <path fill="none" stroke="Cyan" stroke-opacity="0.39215686274509803" stroke-width="0.5" d="M 1084.1491926151318 -345.6218641729427 L 1069.9084883709206 -161.53817201588282"/>
        <path fill="none" stroke="Cyan" stroke-opacity="0.39215686274509803" stroke-width="1.5" d="M 1238.0409476697162 -328.6793515949196 L 1238.0278546575964 -307.4518194104175"/>
        <path fill="none" stroke="Cyan" stroke-opacity="0.39215686274509803" stroke-width="0.5" d="M 1308.4910110685514 -328.69044668213115 L 1238.0278546575964 -307.4518194104175"/>
        <path fill="none" stroke="Cyan" stroke-opacity="0.39215686274509803" stroke-width="1.5" d="M 1308.4910110685514 -328.69044668213115 L 1238.0409476697162 -328.6793515949196"/>
        <path fill="none" stroke="Cyan" stroke-opacity="0.39215686274509803" stroke-width="1.5" d="M 993.6050830766025 -304.45317422512966 L 1026.4138519458972 -304.44887709282386"/>
        <path fill="none" stroke="Cyan" stroke-opacity="0.39215686274509803" stroke-width="1.5" d="M 1084.1491926151318 -345.6218641729427 L 1026.4138519458972 -304.44887709282386"/>
        <path fill="none" stroke="Cyan" stroke-opacity="0.39215686274509803" stroke-width="0.5" d="M 1084.1491926151318 -345.6218641729427 L 993.6050830766025 -304.45317422512966"/>
        <path fill="none" stroke="Cyan" stroke-opacity="0.39215686274509803" stroke-width="0.5" d="M 1084.1491926151318 -345.6218641729427 L 1217.6293268428437 -273.60020174196876"/>
        <path fill="none" stroke="Cyan" stroke-opacity="0.39215686274509803" stroke-width="0.5" d="M 1167.8532325464016 -392.86848545736376 L 1217.6293268428437 -273.60020174196876"/>
        <path fill="none" stroke="Cyan" stroke-opacity="0.39215686274509803" stroke-width="1.5" d="M 1167.8532325464016 -392.86848545736376 L 1084.1491926151318 -345.6218641729427"/>
        <path fill="none" stroke="Cyan" stroke-opacity="0.39215686274509803" stroke-width="0.5" d="M 1167.8532325464016 -392.86848545736376 L 1238.0409476697162 -328.6793515949196"/>
        <path fill="none" stroke="Cyan" stroke-opacity="0.39215686274509803" stroke-width="0.5" d="M 1205.037683059136 -392.87265717513134 L 1238.0409476697162 -328.6793515949196"/>
        <path fill="none" stroke="Cyan" stroke-opacity="0.39215686274509803" stroke-width="1.5" d="M 1205.037683059136 -392.87265717513134 L 1167.8532325464016 -392.86848545736376"/>
        <path fill="none" stroke="Cyan" stroke-opacity="0.39215686274509803" stroke-width="1.5" d="M 1331.6034409456583 -367.11132130170193 L 1308.4910110685514 -328.69044668213115"/>
        <path fill="none" stroke="Cyan" stroke-opacity="0.39215686274509803" stroke-width="0.5" d="M 1391.5575073553869 -395.5337420121423 L 1308.4910110685514 -328.69044668213115"/>
        <path fill="none" stroke="Cyan" stroke-opacity="0.39215686274509803" stroke-width="1.5" d="M 1391.5575073553869 -395.5337420121423 L 1331.6034409456583 -367.11132130170193"/>
        <path fill="none" stroke="Cyan" stroke-opacity="0.39215686274509803" stroke-width="1.5" d="M 1308.4910110685514 -328.69044668213115 L 1238.0409476697162 -328.6793515949196"/>
        <path fill="none" stroke="Cyan" stroke-opacity="0.39215686274509803" stroke-width="1.5" d="M 1331.6034409456583 -367.11132130170193 L 1308.4910110685514 -328.69044668213115"/>
        <path fill="none" stroke="Cyan" stroke-opacity="0.39215686274509803" stroke-width="0.5" d="M 1331.6034409456583 -367.11132130170193 L 1238.0409476697162 -328.6793515949196"/>
        <path fill="none" stroke="Cyan" stroke-opacity="0.39215686274509803" stroke-width="0.5" d="M 1254.2944446791644 -433.713114442256 L 1238.0409476697162 -328.6793515949196"/>
        <path fill="none" stroke="Cyan" stroke-opacity="0.39215686274509803" stroke-width="0.5" d="M 1331.6034409456583 -367.11132130170193 L 1238.0409476697162 -328.6793515949196"/>
        <path fill="none" stroke="Cyan" stroke-opacity="0.39215686274509803" stroke-width="0.5" d="M 1254.2944446791644 -433.713114442256 L 1331.6034409456583 -367.11132130170193"/>
        <path fill="none" stroke="Cyan" stroke-opacity="0.39215686274509803" stroke-width="0.5" d="M 1205.037683059136 -392.87265717513134 L 1238.0409476697162 -328.6793515949196"/>
        <path fill="none" stroke="Cyan" stroke-opacity="0.39215686274509803" stroke-width="0.5" d="M 1254.2944446791644 -433.713114442256 L 1238.0409476697162 -328.6793515949196"/>
        <path fill="none" stroke="Cyan" stroke-opacity="0.39215686274509803" stroke-width="1.5" d="M 1254.2944446791644 -433.713114442256 L 1205.037683059136 -392.87265717513134"/>
        <path fill="none" stroke="Cyan" stroke-opacity="0.39215686274509803" stroke-width="0.5" d="M 1319.5190031433058 -474.5000886544969 L 1426.7638891991958 -436.39456223119356"/>
        <path fill="none" stroke="Cyan" stroke-opacity="0.39215686274509803" stroke-width="1.5" d="M 1424.853225199851 -471.18413363519176 L 1426.7638891991958 -436.39456223119356"/>
        <path fill="none" stroke="Cyan" stroke-opacity="0.39215686274509803" stroke-width="0.5" d="M 1319.5190031433058 -474.5000886544969 L 1424.853225199851 -471.18413363519176"/>
        <path fill="none" stroke="Cyan" stroke-opacity="0.39215686274509803" stroke-width="0.5" d="M 1319.5190031433058 -474.5000886544969 L 1391.5575073553869 -395.5337420121423"/>
        <path fill="none" stroke="Cyan" stroke-opacity="0.39215686274509803" stroke-width="1.5" d="M 1426.7638891991958 -436.39456223119356 L 1391.5575073553869 -395.5337420121423"/>
        <path fill="none" stroke="Cyan" stroke-opacity="0.39215686274509803" stroke-width="0.5" d="M 1319.5190031433058 -474.5000886544969 L 1426.7638891991958 -436.39456223119356"/>
        <path fill="none" stroke="Cyan" stroke-opacity="0.39215686274509803" stroke-width="0.5" d="M 1319.5190031433058 -474.5000886544969 L 1331.6034409456583 -367.11132130170193"/>
        <path fill="none" stroke="Cyan" stroke-opacity="0.39215686274509803" stroke-width="1.5" d="M 1391.5575073553869 -395.5337420121423 L 1331.6034409456583 -367.11132130170193"/>
        <path fill="none" stroke="Cyan" stroke-opacity="0.39215686274509803" stroke-width="0.5" d="M 1319.5190031433058 -474.5000886544969 L 1391.5575073553869 -395.5337420121423"/>
        <path fill="none" stroke="Cyan" stroke-opacity="0.39215686274509803" stroke-width="0.5" d="M 1254.2944446791644 -433.713114442256 L 1331.6034409456583 -367.11132130170193"/>
        <path fill="none" stroke="Cyan" stroke-opacity="0.39215686274509803" stroke-width="0.5" d="M 1319.5190031433058 -474.5000886544969 L 1331.6034409456583 -367.11132130170193"/>
        <path fill="none" stroke="Cyan" stroke-opacity="0.39215686274509803" stroke-width="0.5" d="M 1319.5190031433058 -474.5000886544969 L 1254.2944446791644 -433.713114442256"/>
        <path fill="none" stroke="Cyan" stroke-opacity="0.39215686274509803" stroke-width="0.5" d="M 1319.5190031433058 -474.5000886544969 L 1254.2944446791644 -433.713114442256"/>
        <path fill="none" stroke="Cyan" stroke-opacity="0.39215686274509803" stroke-width="1.5" d="M 1275.5459566583286 -474.50019438954183 L 1319.5190031433058 -474.5000886544969"/>
        <path fill="none" stroke="Cyan" stroke-opacity="0.39215686274509803" stroke-width="1.5" d="M 1275.5459566583286 -474.50019438954183 L 1254.2944446791644 -433.713114442256"/>
        <path fill="none" stroke="Cyan" stroke-opacity="0.39215686274509803" stroke-width="0.5" d="M 1319.5190031433058 -474.5000886544969 L 1424.853225199851 -471.18413363519176"/>
        <path fill="none" stroke="Cyan" stroke-opacity="0.39215686274509803" stroke-width="1.5" d="M 1387.538502963304 -512.5430474040398 L 1424.853225199851 -471.18413363519176"/>
        <path fill="none" stroke="Cyan" stroke-opacity="0.39215686274509803" stroke-width="0.5" d="M 1387.538502963304 -512.5430474040398 L 1319.5190031433058 -474.5000886544969"/>
        <path fill="none" stroke="Cyan" stroke-opacity="0.39215686274509803" stroke-width="1.5" d="M 1275.5459566583286 -474.50019438954183 L 1319.5190031433058 -474.5000886544969"/>
        <path fill="none" stroke="Cyan" stroke-opacity="0.39215686274509803" stroke-width="1.5" d="M 1319.5326867657898 -495.7238280517488 L 1319.5190031433058 -474.5000886544969"/>
        <path fill="none" stroke="Cyan" stroke-opacity="0.39215686274509803" stroke-width="0.5" d="M 1319.5326867657898 -495.7238280517488 L 1275.5459566583286 -474.50019438954183"/>
        <path fill="none" stroke="Cyan" stroke-opacity="0.39215686274509803" stroke-width="1.5" d="M 1319.5326867657898 -495.7238280517488 L 1319.5190031433058 -474.5000886544969"/>
        <path fill="none" stroke="Cyan" stroke-opacity="0.39215686274509803" stroke-width="0.5" d="M 1342.0592010606047 -512.5362172566421 L 1319.5190031433058 -474.5000886544969"/>
        <path fill="none" stroke="Cyan" stroke-opacity="0.39215686274509803" stroke-width="1.5" d="M 1342.0592010606047 -512.5362172566421 L 1319.5326867657898 -495.7238280517488"/>
        <path fill="none" stroke="Cyan" stroke-opacity="0.39215686274509803" stroke-width="0.5" d="M 1342.0592010606047 -512.5362172566421 L 1319.5190031433058 -474.5000886544969"/>
        <path fill="none" stroke="Cyan" stroke-opacity="0.39215686274509803" stroke-width="0.5" d="M 1387.538502963304 -512.5430474040398 L 1319.5190031433058 -474.5000886544969"/>
        <path fill="none" stroke="Cyan" stroke-opacity="0.39215686274509803" stroke-width="0.5" d="M 1387.538502963304 -512.5430474040398 L 1342.0592010606047 -512.5362172566421"/>
        <path fill="none" stroke="Cyan" stroke-opacity="0.39215686274509803" stroke-width="0.5" d="M 1387.538502963304 -512.5430474040398 L 1342.0592010606047 -512.5362172566421"/>
        <path fill="none" stroke="Cyan" stroke-opacity="0.39215686274509803" stroke-width="0.5" d="M 1342.0597765528146 -523.1500794657276 L 1387.538502963304 -512.5430474040398"/>
        <path fill="none" stroke="Cyan" stroke-opacity="0.39215686274509803" stroke-width="1.5" d="M 1342.0597765528146 -523.1500794657276 L 1342.0592010606047 -512.5362172566421"/>
        <path fill="none" stroke="Cyan" stroke-opacity="0.39215686274509803" stroke-width="1.5" d="M 1342.0592010606047 -512.5362172566421 L 1319.5326867657898 -495.7238280517488"/>
        <path fill="none" stroke="Cyan" stroke-opacity="0.39215686274509803" stroke-width="1.5" d="M 1342.0597765528146 -523.1500794657276 L 1342.0592010606047 -512.5362172566421"/>
        <path fill="none" stroke="Cyan" stroke-opacity="0.39215686274509803" stroke-width="0.5" d="M 1342.0597765528146 -523.1500794657276 L 1319.5326867657898 -495.7238280517488"/>
        <path fill="none" stroke="Cyan" stroke-opacity="0.39215686274509803" stroke-width="0.5" d="M 1319.5326867657898 -495.7238280517488 L 1275.5459566583286 -474.50019438954183"/>
        <path fill="none" stroke="Cyan" stroke-opacity="0.39215686274509803" stroke-width="0.5" d="M 1342.0597765528146 -523.1500794657276 L 1319.5326867657898 -495.7238280517488"/>
        <path fill="none" stroke="Cyan" stroke-opacity="0.39215686274509803" stroke-width="0.5" d="M 1342.0597765528146 -523.1500794657276 L 1275.5459566583286 -474.50019438954183"/>
        <path fill="none" stroke="Cyan" stroke-opacity="0.39215686274509803" stroke-width="1.5" d="M 1387.538502963304 -512.5430474040398 L 1424.853225199851 -471.18413363519176"/>
        <path fill="none" stroke="Cyan" stroke-opacity="0.39215686274509803" stroke-width="0.5" d="M 1387.5445967740775 -533.7800229229298 L 1424.853225199851 -471.18413363519176"/>
        <path fill="none" stroke="Cyan" stroke-opacity="0.39215686274509803" stroke-width="1.5" d="M 1387.5445967740775 -533.7800229229298 L 1387.538502963304 -512.5430474040398"/>
        <path fill="none" stroke="Cyan" stroke-opacity="0.39215686274509803" stroke-width="0.5" d="M 1342.0597765528146 -523.1500794657276 L 1387.538502963304 -512.5430474040398"/>
        <path fill="none" stroke="Cyan" stroke-opacity="0.39215686274509803" stroke-width="1.5" d="M 1387.5445967740775 -533.7800229229298 L 1387.538502963304 -512.5430474040398"/>
        <path fill="none" stroke="Cyan" stroke-opacity="0.39215686274509803" stroke-width="1.5" d="M 1387.5445967740775 -533.7800229229298 L 1342.0597765528146 -523.1500794657276"/>
        <path fill="none" stroke="Cyan" stroke-opacity="0.39215686274509803" stroke-width="1.5" d="M 960.3530747120163 -78.22226563564153 L 1138.3540530727291 -17.580015783837972"/>
        <path fill="none" stroke="Cyan" stroke-opacity="0.39215686274509803" stroke-width="1.5" d="M 932.3392738124186 -78.22703382868612 L 960.3530747120163 -78.22226563564153"/>
        <path fill="none" stroke="Cyan" stroke-opacity="0.39215686274509803" stroke-width="0.5" d="M 932.3392738124186 -78.22703382868612 L 1138.3540530727291 -17.580015783837972"/>
        <path fill="none" stroke="Cyan" stroke-opacity="0.39215686274509803" stroke-width="0.5" d="M 1275.5459566583286 -474.50019438954183 L 1084.1491926151318 -345.6218641729427"/>
        <path fill="none" stroke="Cyan" stroke-opacity="0.39215686274509803" stroke-width="1.5" d="M 1167.8532325464016 -392.86848545736376 L 1084.1491926151318 -345.6218641729427"/>
        <path fill="none" stroke="Cyan" stroke-opacity="0.39215686274509803" stroke-width="0.5" d="M 1275.5459566583286 -474.50019438954183 L 1167.8532325464016 -392.86848545736376"/>
        <path fill="none" stroke="Cyan" stroke-opacity="0.39215686274509803" stroke-width="1.5" d="M 1205.037683059136 -392.87265717513134 L 1167.8532325464016 -392.86848545736376"/>
        <path fill="none" stroke="Cyan" stroke-opacity="0.39215686274509803" stroke-width="1.5" d="M 1254.2944446791644 -433.713114442256 L 1205.037683059136 -392.87265717513134"/>
        <path fill="none" stroke="Cyan" stroke-opacity="0.39215686274509803" stroke-width="0.5" d="M 1254.2944446791644 -433.713114442256 L 1167.8532325464016 -392.86848545736376"/>
        <path fill="none" stroke="Cyan" stroke-opacity="0.39215686274509803" stroke-width="0.5" d="M 1254.2944446791644 -433.713114442256 L 1167.8532325464016 -392.86848545736376"/>
        <path fill="none" stroke="Cyan" stroke-opacity="0.39215686274509803" stroke-width="1.5" d="M 1275.5459566583286 -474.50019438954183 L 1254.2944446791644 -433.713114442256"/>
        <path fill="none" stroke="Cyan" stroke-opacity="0.39215686274509803" stroke-width="0.5" d="M 1275.5459566583286 -474.50019438954183 L 1167.8532325464016 -392.86848545736376"/>
        <path fill="none" stroke="Cyan" stroke-opacity="0.39215686274509803" stroke-width="0.5" d="M 1308.4910110685514 -328.69044668213115 L 1168.5361368916238 -161.52546066651567"/>
        <path fill="none" stroke="Cyan" stroke-opacity="0.39215686274509803" stroke-width="0.5" d="M 1308.4910110685514 -328.69044668213115 L 1217.631510292806 -252.3795924721503"/>
        <path fill="none" stroke="Cyan" stroke-opacity="0.39215686274509803" stroke-width="1.5" d="M 1217.631510292806 -252.3795924721503 L 1168.5361368916238 -161.52546066651567"/>
        <path fill="none" stroke="Cyan" stroke-opacity="0.39215686274509803" stroke-width="1.5" d="M 1138.3534988675221 -38.80600016126211 L 1138.3540530727291 -17.580015783837972"/>
        <path fill="none" stroke="Cyan" stroke-opacity="0.39215686274509803" stroke-width="0.5" d="M 1168.5361368916238 -161.52546066651567 L 1138.3540530727291 -17.580015783837972"/>
        <path fill="none" stroke="Cyan" stroke-opacity="0.39215686274509803" stroke-width="0.5" d="M 1168.5361368916238 -161.52546066651567 L 1138.3534988675221 -38.80600016126211"/>
        <path fill="none" stroke="Cyan" stroke-opacity="0.39215686274509803" stroke-width="0.5" d="M 1308.4910110685514 -328.69044668213115 L 1138.3540530727291 -17.580015783837972"/>
        <path fill="none" stroke="Cyan" stroke-opacity="0.39215686274509803" stroke-width="0.5" d="M 1308.4910110685514 -328.69044668213115 L 1168.5361368916238 -161.52546066651567"/>
        <path fill="none" stroke="Cyan" stroke-opacity="0.39215686274509803" stroke-width="0.5" d="M 1168.5361368916238 -161.52546066651567 L 1138.3540530727291 -17.580015783837972"/>
        <path fill="none" stroke="Cyan" stroke-opacity="0.39215686274509803" stroke-width="0.5" d="M 1391.5575073553869 -395.5337420121423 L 1308.4910110685514 -328.69044668213115"/>
        <path fill="none" stroke="Cyan" stroke-opacity="0.39215686274509803" stroke-width="0.5" d="M 1308.4910110685514 -328.69044668213115 L 1138.3540530727291 -17.580015783837972"/>
        <path fill="none" stroke="Cyan" stroke-opacity="0.39215686274509803" stroke-width="0.5" d="M 1391.5575073553869 -395.5337420121423 L 1138.3540530727291 -17.580015783837972"/>
        <path fill="none" stroke="Cyan" stroke-opacity="0.39215686274509803" stroke-width="0.5" d="M 1084.1491926151318 -345.6218641729427 L 993.6050830766025 -304.45317422512966"/>
        <path fill="none" stroke="Cyan" stroke-opacity="0.39215686274509803" stroke-width="0.5" d="M 1275.5459566583286 -474.50019438954183 L 1084.1491926151318 -345.6218641729427"/>
        <path fill="none" stroke="Cyan" stroke-opacity="0.39215686274509803" stroke-width="0.5" d="M 1275.5459566583286 -474.50019438954183 L 993.6050830766025 -304.45317422512966"/>
        <path fill="none" stroke="Cyan" stroke-opacity="0.39215686274509803" stroke-width="0.5" d="M 1275.5459566583286 -474.50019438954183 L 993.6050830766025 -304.45317422512966"/>
        <path fill="none" stroke="Cyan" stroke-opacity="0.39215686274509803" stroke-width="0.5" d="M 1342.0597765528146 -523.1500794657276 L 1275.5459566583286 -474.50019438954183"/>
        <path fill="none" stroke="Cyan" stroke-opacity="0.39215686274509803" stroke-width="0.5" d="M 1342.0597765528146 -523.1500794657276 L 993.6050830766025 -304.45317422512966"/>
        <path fill="none" stroke="Cyan" stroke-opacity="0.39215686274509803" stroke-width="1.5" d="M 1426.7638891991958 -436.39456223119356 L 1391.5575073553869 -395.5337420121423"/>
        <path fill="none" stroke="Cyan" stroke-opacity="0.39215686274509803" stroke-width="0.5" d="M 1391.5575073553869 -395.5337420121423 L 1138.3540530727291 -17.580015783837972"/>
        <path fill="none" stroke="Cyan" stroke-opacity="0.39215686274509803" stroke-width="0.5" d="M 1426.7638891991958 -436.39456223119356 L 1138.3540530727291 -17.580015783837972"/>
        <path fill="none" stroke="Blue" stroke-opacity="1" stroke-width="1" d="M 932.3392738124186 -78.22703382868612 L 915.5255604303932 -99.4605065681668"/>
        <path fill="none" stroke="Blue" stroke-opacity="1" stroke-width="1" d="M 960.3530747120163 -78.22226563564153 L 932.3392738124186 -78.22703382868612"/>
        <path fill="none" stroke="Blue" stroke-opacity="1" stroke-width="1" d="M 915.5255604303932 -99.4605065681668 L 909.9368213946773 -119.46989427048935"/>
        <path fill="none" stroke="Blue" stroke-opacity="1" stroke-width="1" d="M 909.9368213946773 -119.46989427048935 L 909.9249771606718 -140.7018804195137"/>
        <path fill="none" stroke="Blue" stroke-opacity="1" stroke-width="1" d="M 976.8905994700843 -119.36835921394488 L 976.8823182894121 -140.5956505658799"/>
        <path fill="none" stroke="Blue" stroke-opacity="1" stroke-width="1" d="M 976.8823182894121 -140.5956505658799 L 909.9249771606718 -140.7018804195137"/>
        <path fill="none" stroke="Blue" stroke-opacity="1" stroke-width="1" d="M 1042.2236394465506 -119.36570885827614 L 976.8905994700843 -119.36835921394488"/>
        <path fill="none" stroke="Blue" stroke-opacity="1" stroke-width="1" d="M 1138.3540530727291 -17.580015783837972 L 960.3530747120163 -78.22226563564153"/>
        <path fill="none" stroke="Blue" stroke-opacity="1" stroke-width="1" d="M 1042.2236394465506 -119.36570885827614 L 1042.216409362124 -140.5893996520895"/>
        <path fill="none" stroke="Blue" stroke-opacity="1" stroke-width="1" d="M 1138.3540530727291 -17.580015783837972 L 1138.3534988675221 -38.80600016126211"/>
        <path fill="none" stroke="Blue" stroke-opacity="1" stroke-width="1" d="M 1138.3534988675221 -38.80600016126211 L 1069.9058508203925 -140.30682875366287"/>
        <path fill="none" stroke="Blue" stroke-opacity="1" stroke-width="1" d="M 1069.9058508203925 -140.30682875366287 L 1069.9084883709206 -161.53817201588282"/>
        <path fill="none" stroke="Blue" stroke-opacity="1" stroke-width="1" d="M 1042.216409362124 -140.5893996520895 L 976.8823182894121 -140.5956505658799"/>
        <path fill="none" stroke="Blue" stroke-opacity="1" stroke-width="1" d="M 976.8823182894121 -140.5956505658799 L 993.6050830766025 -304.45317422512966"/>
        <path fill="none" stroke="Blue" stroke-opacity="1" stroke-width="1" d="M 1026.4138519458972 -304.44887709282386 L 993.6050830766025 -304.45317422512966"/>
        <path fill="none" stroke="Blue" stroke-opacity="1" stroke-width="1" d="M 1168.5361368916238 -161.52546066651567 L 1217.631510292806 -252.3795924721503"/>
        <path fill="none" stroke="Blue" stroke-opacity="1" stroke-width="1" d="M 1168.5361368916238 -161.52546066651567 L 1069.9084883709206 -161.53817201588282"/>
        <path fill="none" stroke="Blue" stroke-opacity="1" stroke-width="1" d="M 1026.4138519458972 -304.44887709282386 L 1084.1491926151318 -345.6218641729427"/>
        <path fill="none" stroke="Blue" stroke-opacity="1" stroke-width="1" d="M 1217.631510292806 -252.3795924721503 L 1217.6293268428437 -273.60020174196876"/>
        <path fill="none" stroke="Blue" stroke-opacity="1" stroke-width="1" d="M 1084.1491926151318 -345.6218641729427 L 1167.8532325464016 -392.86848545736376"/>
        <path fill="none" stroke="Blue" stroke-opacity="1" stroke-width="1" d="M 1217.6293268428437 -273.60020174196876 L 1238.0278546575964 -307.4518194104175"/>
        <path fill="none" stroke="Blue" stroke-opacity="1" stroke-width="1" d="M 1238.0278546575964 -307.4518194104175 L 1238.0409476697162 -328.6793515949196"/>
        <path fill="none" stroke="Blue" stroke-opacity="1" stroke-width="1" d="M 1167.8532325464016 -392.86848545736376 L 1205.037683059136 -392.87265717513134"/>
        <path fill="none" stroke="Blue" stroke-opacity="1" stroke-width="1" d="M 1205.037683059136 -392.87265717513134 L 1254.2944446791644 -433.713114442256"/>
        <path fill="none" stroke="Blue" stroke-opacity="1" stroke-width="1" d="M 1238.0409476697162 -328.6793515949196 L 1308.4910110685514 -328.69044668213115"/>
        <path fill="none" stroke="Blue" stroke-opacity="1" stroke-width="1" d="M 1308.4910110685514 -328.69044668213115 L 1331.6034409456583 -367.11132130170193"/>
        <path fill="none" stroke="Blue" stroke-opacity="1" stroke-width="1" d="M 1331.6034409456583 -367.11132130170193 L 1391.5575073553869 -395.5337420121423"/>
        <path fill="none" stroke="Blue" stroke-opacity="1" stroke-width="1" d="M 1254.2944446791644 -433.713114442256 L 1275.5459566583286 -474.50019438954183"/>
        <path fill="none" stroke="Blue" stroke-opacity="1" stroke-width="1" d="M 1319.5190031433058 -474.5000886544969 L 1275.5459566583286 -474.50019438954183"/>
        <path fill="none" stroke="Blue" stroke-opacity="1" stroke-width="1" d="M 1391.5575073553869 -395.5337420121423 L 1426.7638891991958 -436.39456223119356"/>
        <path fill="none" stroke="Blue" stroke-opacity="1" stroke-width="1" d="M 1426.7638891991958 -436.39456223119356 L 1424.853225199851 -471.18413363519176"/>
        <path fill="none" stroke="Blue" stroke-opacity="1" stroke-width="1" d="M 1424.853225199851 -471.18413363519176 L 1387.538502963304 -512.5430474040398"/>
        <path fill="none" stroke="Blue" stroke-opacity="1" stroke-width="1" d="M 1319.5190031433058 -474.5000886544969 L 1319.5326867657898 -495.7238280517488"/>
        <path fill="none" stroke="Blue" stroke-opacity="1" stroke-width="1" d="M 1319.5326867657898 -495.7238280517488 L 1342.0592010606047 -512.5362172566421"/>
        <path fill="none" stroke="Blue" stroke-opacity="1" stroke-width="1" d="M 1342.0592010606047 -512.5362172566421 L 1342.0597765528146 -523.1500794657276"/>
        <path fill="none" stroke="Blue" stroke-opacity="1" stroke-width="1" d="M 1342.0597765528146 -523.1500794657276 L 1387.5445967740775 -533.7800229229298"/>
        <path fill="none" stroke="Blue" stroke-opacity="1" stroke-width="1" d="M 1387.538502963304 -512.5430474040398 L 1387.5445967740775 -533.7800229229298"/>
        <path fill="none" stroke="Brown" stroke-opacity="1" stroke-width="1" d="M 937.9351269060239 -88.83948118374155 L 960.3479970489989 -99.44873662134857 L 1042.2236394465506 -119.36570885827614 L 1069.9084883709206 -161.53817201588282 L 1238.0409476697162 -328.6793515949196 L 1319.5190031433058 -474.5000886544969 L 1359.113939274117 -512.5387785619163 L 1364.798084034286 -523.1565251672224"/>
    </g>
</svg>