<svg xmlns="http://www.w3.org/2000/svg" width="379.2" height="393.9" viewBox="0 0 379.2 393.9" font-family="Arial, Helvetica, sans-serif">
  <defs>
    <marker id="arrow" markerWidth="8" markerHeight="6" refX="7" refY="3" orient="auto">
      <polygon points="0 0, 8 3, 0 6" fill="#1565C0" fill-opacity="0.7"/>
    </marker>
  </defs>
  <rect width="100%" height="100%" fill="white"/>
  <polygon points="328.9,377.1 361.7,531.5 446.9,377.1" fill="none" stroke="#e0e0e0" stroke-width="0.3"/>
  <polygon points="191.4,352.8 188.4,306.9 133.1,273.5" fill="none" stroke="#e0e0e0" stroke-width="0.3"/>
  <polygon points="191.4,352.8 133.1,273.5 167.5,386.4" fill="none" stroke="#e0e0e0" stroke-width="0.3"/>
  <polygon points="446.9,377.1 361.7,531.5 475.8,536.7" fill="none" stroke="#e0e0e0" stroke-width="0.3"/>
  <polygon points="221.5,386.4 221.5,412.4 292.9,428.4" fill="none" stroke="#e0e0e0" stroke-width="0.3"/>
  <polygon points="328.9,377.1 292.9,428.4 292.9,454.4" fill="none" stroke="#e0e0e0" stroke-width="0.3"/>
  <polygon points="158.6,409.5 167.5,412.4 167.5,386.4" fill="none" stroke="#e0e0e0" stroke-width="0.3"/>
  <polygon points="96.6,409.5 158.6,409.5 167.5,386.4" fill="none" stroke="#e0e0e0" stroke-width="0.3"/>
  <polygon points="-10.1,319.1 -11.0,415.6 43.0,415.6" fill="none" stroke="#e0e0e0" stroke-width="0.3"/>
  <polygon points="317.4,378.8 191.4,378.8 221.5,386.4" fill="none" stroke="#e0e0e0" stroke-width="0.3"/>
  <polygon points="317.4,378.8 221.5,386.4 292.9,428.4" fill="none" stroke="#e0e0e0" stroke-width="0.3"/>
  <polygon points="191.4,378.8 167.5,386.4 221.5,386.4" fill="none" stroke="#e0e0e0" stroke-width="0.3"/>
  <polygon points="191.4,352.8 167.5,386.4 191.4,378.8" fill="none" stroke="#e0e0e0" stroke-width="0.3"/>
  <polygon points="328.9,377.1 292.9,454.4 361.7,531.5" fill="none" stroke="#e0e0e0" stroke-width="0.3"/>
  <polygon points="317.4,378.8 292.9,428.4 328.9,377.1" fill="none" stroke="#e0e0e0" stroke-width="0.3"/>
  <polygon points="317.4,378.8 328.9,377.1 317.4,352.8" fill="none" stroke="#e0e0e0" stroke-width="0.3"/>
  <polygon points="-10.1,319.1 43.0,415.6 96.6,409.5" fill="none" stroke="#e0e0e0" stroke-width="0.3"/>
  <polygon points="317.4,352.8 328.9,377.1 328.9,351.1" fill="none" stroke="#e0e0e0" stroke-width="0.3"/>
  <polygon points="328.9,351.1 446.9,351.1 367.7,343.7" fill="none" stroke="#e0e0e0" stroke-width="0.3"/>
  <polygon points="367.7,343.7 446.9,351.1 501.7,343.7" fill="none" stroke="#e0e0e0" stroke-width="0.3"/>
  <polygon points="328.9,351.1 367.7,317.7 353.3,286.1" fill="none" stroke="#e0e0e0" stroke-width="0.3"/>
  <polygon points="367.7,343.7 367.7,317.7 328.9,351.1" fill="none" stroke="#e0e0e0" stroke-width="0.3"/>
  <polygon points="328.9,351.1 353.3,286.1 317.4,352.8" fill="none" stroke="#e0e0e0" stroke-width="0.3"/>
  <polygon points="258.4,306.9 191.4,352.8 317.4,352.8" fill="none" stroke="#e0e0e0" stroke-width="0.3"/>
  <polygon points="367.7,317.7 501.7,317.7 429.3,310.3" fill="none" stroke="#e0e0e0" stroke-width="0.3"/>
  <polygon points="367.7,317.7 429.3,310.3 391.3,310.3" fill="none" stroke="#e0e0e0" stroke-width="0.3"/>
  <polygon points="188.4,306.9 191.4,352.8 258.4,306.9" fill="none" stroke="#e0e0e0" stroke-width="0.3"/>
  <polygon points="133.1,273.5 96.6,409.5 167.5,386.4" fill="none" stroke="#e0e0e0" stroke-width="0.3"/>
  <polygon points="71.0,248.8 96.6,409.5 133.1,273.5" fill="none" stroke="#e0e0e0" stroke-width="0.3"/>
  <polygon points="267.3,286.1 317.4,352.8 353.3,286.1" fill="none" stroke="#e0e0e0" stroke-width="0.3"/>
  <polygon points="391.3,284.3 367.7,317.7 391.3,310.3" fill="none" stroke="#e0e0e0" stroke-width="0.3"/>
  <polygon points="258.4,306.9 317.4,352.8 267.3,286.1" fill="none" stroke="#e0e0e0" stroke-width="0.3"/>
  <polygon points="258.4,280.9 258.4,306.9 267.3,286.1" fill="none" stroke="#e0e0e0" stroke-width="0.3"/>
  <polygon points="133.1,273.5 188.4,280.9 187.1,273.5" fill="none" stroke="#e0e0e0" stroke-width="0.3"/>
  <polygon points="353.3,286.1 367.7,317.7 391.3,284.3" fill="none" stroke="#e0e0e0" stroke-width="0.3"/>
  <polygon points="188.4,306.9 188.4,280.9 133.1,273.5" fill="none" stroke="#e0e0e0" stroke-width="0.3"/>
  <polygon points="71.0,248.8 133.1,273.5 109.0,248.8" fill="none" stroke="#e0e0e0" stroke-width="0.3"/>
  <polygon points="353.3,260.1 353.3,286.1 391.3,284.3" fill="none" stroke="#e0e0e0" stroke-width="0.3"/>
  <polygon points="-10.1,319.1 96.6,409.5 71.0,248.8" fill="none" stroke="#e0e0e0" stroke-width="0.3"/>
  <polygon points="245.1,252.7 188.4,280.9 258.4,280.9" fill="none" stroke="#e0e0e0" stroke-width="0.3"/>
  <polygon points="267.3,286.1 267.3,260.1 258.4,280.9" fill="none" stroke="#e0e0e0" stroke-width="0.3"/>
  <polygon points="267.3,260.1 245.1,252.7 258.4,280.9" fill="none" stroke="#e0e0e0" stroke-width="0.3"/>
  <polygon points="245.1,252.7 187.1,273.5 188.4,280.9" fill="none" stroke="#e0e0e0" stroke-width="0.3"/>
  <polygon points="245.1,252.7 187.1,247.5 187.1,273.5" fill="none" stroke="#e0e0e0" stroke-width="0.3"/>
  <polygon points="267.3,260.1 353.3,260.1 291.1,252.7" fill="none" stroke="#e0e0e0" stroke-width="0.3"/>
  <polygon points="245.1,252.7 267.3,260.1 291.1,252.7" fill="none" stroke="#e0e0e0" stroke-width="0.3"/>
  <polygon points="353.3,260.1 391.3,284.3 431.9,250.7" fill="none" stroke="#e0e0e0" stroke-width="0.3"/>
  <polygon points="71.0,248.8 -10.1,293.1 -10.1,319.1" fill="none" stroke="#e0e0e0" stroke-width="0.3"/>
  <polygon points="71.0,222.8 23.0,215.4 71.0,248.8" fill="none" stroke="#e0e0e0" stroke-width="0.3"/>
  <polygon points="109.0,248.8 133.1,273.5 133.1,247.5" fill="none" stroke="#e0e0e0" stroke-width="0.3"/>
  <polygon points="133.1,247.5 109.0,222.8 109.0,248.8" fill="none" stroke="#e0e0e0" stroke-width="0.3"/>
  <polygon points="157.2,215.5 133.1,247.5 187.1,247.5" fill="none" stroke="#e0e0e0" stroke-width="0.3"/>
  <polygon points="446.3,217.3 356.2,198.9 431.9,250.7" fill="none" stroke="#e0e0e0" stroke-width="0.3"/>
  <polygon points="291.1,252.7 353.3,260.1 291.1,226.7" fill="none" stroke="#e0e0e0" stroke-width="0.3"/>
  <polygon points="187.1,247.5 245.1,252.7 245.1,226.7" fill="none" stroke="#e0e0e0" stroke-width="0.3"/>
  <polygon points="23.0,215.4 -10.1,293.1 71.0,248.8" fill="none" stroke="#e0e0e0" stroke-width="0.3"/>
  <polygon points="356.2,198.9 353.3,260.1 431.9,250.7" fill="none" stroke="#e0e0e0" stroke-width="0.3"/>
  <polygon points="109.0,222.8 133.1,247.5 157.2,215.5" fill="none" stroke="#e0e0e0" stroke-width="0.3"/>
  <polygon points="93.0,215.4 109.0,222.8 103.2,215.5" fill="none" stroke="#e0e0e0" stroke-width="0.3"/>
  <polygon points="103.2,215.5 109.0,222.8 157.2,215.5" fill="none" stroke="#e0e0e0" stroke-width="0.3"/>
  <polygon points="71.0,222.8 109.0,222.8 93.0,215.4" fill="none" stroke="#e0e0e0" stroke-width="0.3"/>
  <polygon points="-78.3,230.4 -10.1,293.1 23.0,215.4" fill="none" stroke="#e0e0e0" stroke-width="0.3"/>
  <polygon points="23.0,215.4 71.0,222.8 93.0,215.4" fill="none" stroke="#e0e0e0" stroke-width="0.3"/>
  <polygon points="291.1,226.7 353.3,260.1 356.2,198.9" fill="none" stroke="#e0e0e0" stroke-width="0.3"/>
  <polygon points="291.1,226.7 356.2,198.9 302.2,198.9" fill="none" stroke="#e0e0e0" stroke-width="0.3"/>
  <polygon points="293.4,191.5 291.1,226.7 302.2,198.9" fill="none" stroke="#e0e0e0" stroke-width="0.3"/>
  <polygon points="293.4,191.5 245.1,226.7 291.1,226.7" fill="none" stroke="#e0e0e0" stroke-width="0.3"/>
  <polygon points="167.4,191.5 187.1,247.5 245.1,226.7" fill="none" stroke="#e0e0e0" stroke-width="0.3"/>
  <polygon points="293.4,191.5 167.4,191.5 245.1,226.7" fill="none" stroke="#e0e0e0" stroke-width="0.3"/>
  <polygon points="187.1,247.5 167.4,191.5 157.2,215.5" fill="none" stroke="#e0e0e0" stroke-width="0.3"/>
  <polygon points="157.2,215.5 167.4,191.5 157.2,189.5" fill="none" stroke="#e0e0e0" stroke-width="0.3"/>
  <polygon points="103.2,189.5 93.0,215.4 103.2,215.5" fill="none" stroke="#e0e0e0" stroke-width="0.3"/>
  <polygon points="93.0,189.4 93.0,215.4 103.2,189.5" fill="none" stroke="#e0e0e0" stroke-width="0.3"/>
  <polygon points="-41.2,153.5 23.0,215.4 23.0,189.4" fill="none" stroke="#e0e0e0" stroke-width="0.3"/>
  <polygon points="356.2,198.9 446.3,217.3 434.8,168.4" fill="none" stroke="#e0e0e0" stroke-width="0.3"/>
  <polygon points="293.4,191.5 302.2,198.9 302.2,172.9" fill="none" stroke="#e0e0e0" stroke-width="0.3"/>
  <polygon points="293.4,165.5 293.4,191.5 302.2,172.9" fill="none" stroke="#e0e0e0" stroke-width="0.3"/>
  <polygon points="167.4,191.5 167.4,165.5 157.2,189.5" fill="none" stroke="#e0e0e0" stroke-width="0.3"/>
  <polygon points="157.2,189.5 167.4,165.5 103.2,189.5" fill="none" stroke="#e0e0e0" stroke-width="0.3"/>
  <polygon points="364.8,168.4 356.2,198.9 434.8,168.4" fill="none" stroke="#e0e0e0" stroke-width="0.3"/>
  <polygon points="356.2,172.9 356.2,198.9 364.8,168.4" fill="none" stroke="#e0e0e0" stroke-width="0.3"/>
  <polygon points="167.4,165.5 93.4,146.4 103.2,189.5" fill="none" stroke="#e0e0e0" stroke-width="0.3"/>
  <polygon points="93.4,146.4 93.0,189.4 103.2,189.5" fill="none" stroke="#e0e0e0" stroke-width="0.3"/>
  <polygon points="302.2,172.9 356.2,172.9 307.3,158.1" fill="none" stroke="#e0e0e0" stroke-width="0.3"/>
  <polygon points="293.4,165.5 302.2,172.9 307.3,158.1" fill="none" stroke="#e0e0e0" stroke-width="0.3"/>
  <polygon points="167.4,165.5 293.4,165.5 245.3,158.1" fill="none" stroke="#e0e0e0" stroke-width="0.3"/>
  <polygon points="245.3,158.1 293.4,165.5 307.3,158.1" fill="none" stroke="#e0e0e0" stroke-width="0.3"/>
  <polygon points="23.0,189.4 93.0,189.4 55.4,146.4" fill="none" stroke="#e0e0e0" stroke-width="0.3"/>
  <polygon points="-41.2,153.5 23.0,189.4 28.8,153.5" fill="none" stroke="#e0e0e0" stroke-width="0.3"/>
  <polygon points="-41.2,153.5 -78.3,230.4 23.0,215.4" fill="none" stroke="#e0e0e0" stroke-width="0.3"/>
  <polygon points="55.4,146.4 93.0,189.4 93.4,146.4" fill="none" stroke="#e0e0e0" stroke-width="0.3"/>
  <polygon points="28.8,153.5 23.0,189.4 55.4,146.4" fill="none" stroke="#e0e0e0" stroke-width="0.3"/>
  <polygon points="356.2,172.9 364.8,168.4 364.8,142.4" fill="none" stroke="#e0e0e0" stroke-width="0.3"/>
  <polygon points="328.9,134.9 356.2,172.9 364.8,142.4" fill="none" stroke="#e0e0e0" stroke-width="0.3"/>
  <polygon points="364.8,142.4 434.8,142.4 390.9,134.9" fill="none" stroke="#e0e0e0" stroke-width="0.3"/>
  <polygon points="307.3,158.1 356.2,172.9 328.9,134.9" fill="none" stroke="#e0e0e0" stroke-width="0.3"/>
  <polygon points="328.9,134.9 364.8,142.4 390.9,134.9" fill="none" stroke="#e0e0e0" stroke-width="0.3"/>
  <polygon points="307.3,158.1 328.9,134.9 307.3,132.1" fill="none" stroke="#e0e0e0" stroke-width="0.3"/>
  <polygon points="211.4,124.8 245.3,158.1 245.3,132.1" fill="none" stroke="#e0e0e0" stroke-width="0.3"/>
  <polygon points="28.8,153.5 55.4,146.4 28.8,127.5" fill="none" stroke="#e0e0e0" stroke-width="0.3"/>
  <polygon points="245.3,132.1 307.3,132.1 305.4,124.8" fill="none" stroke="#e0e0e0" stroke-width="0.3"/>
  <polygon points="305.4,124.8 307.3,132.1 328.9,134.9" fill="none" stroke="#e0e0e0" stroke-width="0.3"/>
  <polygon points="167.4,165.5 245.3,158.1 211.4,124.8" fill="none" stroke="#e0e0e0" stroke-width="0.3"/>
  <polygon points="211.4,124.8 245.3,132.1 305.4,124.8" fill="none" stroke="#e0e0e0" stroke-width="0.3"/>
  <polygon points="93.4,146.4 167.4,165.5 101.2,113.0" fill="none" stroke="#e0e0e0" stroke-width="0.3"/>
  <polygon points="28.8,127.5 55.4,146.4 55.4,120.4" fill="none" stroke="#e0e0e0" stroke-width="0.3"/>
  <polygon points="-41.2,127.5 28.8,127.5 -34.2,120.0" fill="none" stroke="#e0e0e0" stroke-width="0.3"/>
  <polygon points="167.4,165.5 211.4,124.8 195.2,113.0" fill="none" stroke="#e0e0e0" stroke-width="0.3"/>
  <polygon points="101.2,113.0 167.4,165.5 195.2,113.0" fill="none" stroke="#e0e0e0" stroke-width="0.3"/>
  <polygon points="93.4,120.4 93.4,146.4 101.2,113.0" fill="none" stroke="#e0e0e0" stroke-width="0.3"/>
  <polygon points="305.4,124.8 328.9,134.9 328.9,108.9" fill="none" stroke="#e0e0e0" stroke-width="0.3"/>
  <polygon points="28.8,127.5 55.4,120.4 45.0,104.7" fill="none" stroke="#e0e0e0" stroke-width="0.3"/>
  <polygon points="-34.2,120.0 28.8,127.5 -25.0,104.7" fill="none" stroke="#e0e0e0" stroke-width="0.3"/>
  <polygon points="-25.0,104.7 28.8,127.5 45.0,104.7" fill="none" stroke="#e0e0e0" stroke-width="0.3"/>
  <polygon points="305.4,124.8 328.9,108.9 305.4,98.8" fill="none" stroke="#e0e0e0" stroke-width="0.3"/>
  <polygon points="195.2,113.0 211.4,124.8 211.4,98.8" fill="none" stroke="#e0e0e0" stroke-width="0.3"/>
  <polygon points="328.9,108.9 390.9,108.9 359.8,95.6" fill="none" stroke="#e0e0e0" stroke-width="0.3"/>
  <polygon points="359.8,95.6 400.2,103.1 429.8,95.6" fill="none" stroke="#e0e0e0" stroke-width="0.3"/>
  <polygon points="359.8,95.6 390.9,108.9 400.2,103.1" fill="none" stroke="#e0e0e0" stroke-width="0.3"/>
  <polygon points="195.2,113.0 211.4,98.8 195.2,87.0" fill="none" stroke="#e0e0e0" stroke-width="0.3"/>
  <polygon points="93.4,120.4 101.2,113.0 101.2,87.0" fill="none" stroke="#e0e0e0" stroke-width="0.3"/>
  <polygon points="55.4,120.4 93.4,120.4 101.2,87.0" fill="none" stroke="#e0e0e0" stroke-width="0.3"/>
  <polygon points="45.0,104.7 55.4,120.4 101.2,87.0" fill="none" stroke="#e0e0e0" stroke-width="0.3"/>
  <polygon points="61.0,66.6 45.0,104.7 101.2,87.0" fill="none" stroke="#e0e0e0" stroke-width="0.3"/>
  <polygon points="118.4,79.8 107.0,66.6 101.2,87.0" fill="none" stroke="#e0e0e0" stroke-width="0.3"/>
  <polygon points="118.4,79.8 101.2,87.0 195.2,87.0" fill="none" stroke="#e0e0e0" stroke-width="0.3"/>
  <polygon points="284.4,75.0 211.4,98.8 305.4,98.8" fill="none" stroke="#e0e0e0" stroke-width="0.3"/>
  <polygon points="338.8,71.1 328.9,108.9 359.8,95.6" fill="none" stroke="#e0e0e0" stroke-width="0.3"/>
  <polygon points="195.2,87.0 211.4,98.8 212.4,79.8" fill="none" stroke="#e0e0e0" stroke-width="0.3"/>
  <polygon points="118.4,79.8 195.2,87.0 212.4,79.8" fill="none" stroke="#e0e0e0" stroke-width="0.3"/>
  <polygon points="222.4,75.0 211.4,98.8 284.4,75.0" fill="none" stroke="#e0e0e0" stroke-width="0.3"/>
  <polygon points="212.4,79.8 211.4,98.8 222.4,75.0" fill="none" stroke="#e0e0e0" stroke-width="0.3"/>
  <polygon points="45.0,78.7 45.0,104.7 52.5,71.4" fill="none" stroke="#e0e0e0" stroke-width="0.3"/>
  <polygon points="-25.0,78.7 45.0,78.7 -1.5,71.4" fill="none" stroke="#e0e0e0" stroke-width="0.3"/>
  <polygon points="-1.5,71.4 45.0,78.7 52.5,71.4" fill="none" stroke="#e0e0e0" stroke-width="0.3"/>
  <polygon points="305.4,98.8 328.9,108.9 338.8,71.1" fill="none" stroke="#e0e0e0" stroke-width="0.3"/>
  <polygon points="284.4,75.0 305.4,98.8 292.8,71.1" fill="none" stroke="#e0e0e0" stroke-width="0.3"/>
  <polygon points="292.8,71.1 305.4,98.8 338.8,71.1" fill="none" stroke="#e0e0e0" stroke-width="0.3"/>
  <polygon points="338.8,71.1 359.8,95.6 359.8,69.6" fill="none" stroke="#e0e0e0" stroke-width="0.3"/>
  <polygon points="61.0,66.6 101.2,87.0 107.0,66.6" fill="none" stroke="#e0e0e0" stroke-width="0.3"/>
  <polygon points="52.5,71.4 45.0,104.7 61.0,66.6" fill="none" stroke="#e0e0e0" stroke-width="0.3"/>
  <polygon points="61.0,66.6 52.5,45.4 52.5,71.4" fill="none" stroke="#e0e0e0" stroke-width="0.3"/>
  <polygon points="212.4,53.8 212.4,79.8 222.4,75.0" fill="none" stroke="#e0e0e0" stroke-width="0.3"/>
  <polygon points="292.8,71.1 284.4,49.0 284.4,75.0" fill="none" stroke="#e0e0e0" stroke-width="0.3"/>
  <polygon points="359.8,69.6 358.6,48.3 338.8,71.1" fill="none" stroke="#e0e0e0" stroke-width="0.3"/>
  <polygon points="429.8,69.6 420.6,48.3 359.8,69.6" fill="none" stroke="#e0e0e0" stroke-width="0.3"/>
  <polygon points="107.0,66.6 118.4,79.8 118.4,53.8" fill="none" stroke="#e0e0e0" stroke-width="0.3"/>
  <polygon points="212.4,53.8 222.4,75.0 222.4,49.0" fill="none" stroke="#e0e0e0" stroke-width="0.3"/>
  <polygon points="358.6,48.3 359.8,69.6 420.6,48.3" fill="none" stroke="#e0e0e0" stroke-width="0.3"/>
  <polygon points="338.8,45.1 338.8,71.1 358.6,48.3" fill="none" stroke="#e0e0e0" stroke-width="0.3"/>
  <polygon points="284.4,49.0 292.8,71.1 292.8,45.1" fill="none" stroke="#e0e0e0" stroke-width="0.3"/>
  <polygon points="107.0,66.6 118.4,53.8 107.0,40.6" fill="none" stroke="#e0e0e0" stroke-width="0.3"/>
  <polygon points="52.5,45.4 61.0,66.6 61.0,40.6" fill="none" stroke="#e0e0e0" stroke-width="0.3"/>
  <polygon points="338.8,45.1 358.6,48.3 350.7,37.9" fill="none" stroke="#e0e0e0" stroke-width="0.3"/>
  <polygon points="292.8,45.1 338.8,45.1 296.7,37.9" fill="none" stroke="#e0e0e0" stroke-width="0.3"/>
  <polygon points="296.7,37.9 338.8,45.1 350.7,37.9" fill="none" stroke="#e0e0e0" stroke-width="0.3"/>
  <polygon points="118.4,53.8 212.4,53.8 127.4,33.4" fill="none" stroke="#e0e0e0" stroke-width="0.3"/>
  <polygon points="107.0,40.6 118.4,53.8 127.4,33.4" fill="none" stroke="#e0e0e0" stroke-width="0.3"/>
  <polygon points="61.0,40.6 107.0,40.6 65.4,33.4" fill="none" stroke="#e0e0e0" stroke-width="0.3"/>
  <polygon points="65.4,33.4 107.0,40.6 127.4,33.4" fill="none" stroke="#e0e0e0" stroke-width="0.3"/>
  <polygon points="61.0,40.6 65.4,33.4 52.5,45.4" fill="none" stroke="#e0e0e0" stroke-width="0.3"/>
  <polygon points="65.4,33.4 65.4,7.4 52.5,45.4" fill="none" stroke="#e0e0e0" stroke-width="0.3"/>
  <polygon points="65.4,7.4 39.8,-21.4 52.5,45.4" fill="none" stroke="#e0e0e0" stroke-width="0.3"/>
  <polygon points="350.7,37.9 358.6,48.3 358.6,22.3" fill="none" stroke="#e0e0e0" stroke-width="0.3"/>
  <polygon points="350.7,37.9 358.6,22.3 350.7,11.9" fill="none" stroke="#e0e0e0" stroke-width="0.3"/>
  <polygon points="262.6,4.8 296.7,37.9 296.7,11.9" fill="none" stroke="#e0e0e0" stroke-width="0.3"/>
  <polygon points="284.4,49.0 292.8,45.1 296.7,37.9" fill="none" stroke="#e0e0e0" stroke-width="0.3"/>
  <polygon points="262.6,4.8 284.4,49.0 296.7,37.9" fill="none" stroke="#e0e0e0" stroke-width="0.3"/>
  <polygon points="262.6,4.8 222.4,49.0 284.4,49.0" fill="none" stroke="#e0e0e0" stroke-width="0.3"/>
  <polygon points="208.1,-1.1 212.4,53.8 222.4,49.0" fill="none" stroke="#e0e0e0" stroke-width="0.3"/>
  <polygon points="208.1,-1.1 127.4,33.4 212.4,53.8" fill="none" stroke="#e0e0e0" stroke-width="0.3"/>
  <polygon points="-1.5,45.4 52.5,45.4 39.8,-21.4" fill="none" stroke="#e0e0e0" stroke-width="0.3"/>
  <polygon points="296.7,11.9 350.7,11.9 316.6,4.8" fill="none" stroke="#e0e0e0" stroke-width="0.3"/>
  <polygon points="254.1,-1.1 222.4,49.0 262.6,4.8" fill="none" stroke="#e0e0e0" stroke-width="0.3"/>
  <polygon points="262.6,4.8 296.7,11.9 316.6,4.8" fill="none" stroke="#e0e0e0" stroke-width="0.3"/>
  <polygon points="208.1,-1.1 222.4,49.0 254.1,-1.1" fill="none" stroke="#e0e0e0" stroke-width="0.3"/>
  <polygon points="127.4,7.4 127.4,33.4 208.1,-1.1" fill="none" stroke="#e0e0e0" stroke-width="0.3"/>
  <polygon points="316.6,4.8 350.7,11.9 316.6,-21.2" fill="none" stroke="#e0e0e0" stroke-width="0.3"/>
  <polygon points="254.1,-1.1 262.6,4.8 262.6,-21.2" fill="none" stroke="#e0e0e0" stroke-width="0.3"/>
  <polygon points="208.1,-27.1 127.4,7.4 208.1,-1.1" fill="none" stroke="#e0e0e0" stroke-width="0.3"/>
  <polygon points="109.8,-21.4 65.4,7.4 127.4,7.4" fill="none" stroke="#e0e0e0" stroke-width="0.3"/>
  <polygon points="109.8,-21.4 39.8,-21.4 65.4,7.4" fill="none" stroke="#e0e0e0" stroke-width="0.3"/>
  <polygon points="39.8,-21.4 -78.1,-19.8 -1.5,45.4" fill="none" stroke="#e0e0e0" stroke-width="0.3"/>
  <polygon points="120.0,-34.7 127.4,7.4 208.1,-27.1" fill="none" stroke="#e0e0e0" stroke-width="0.3"/>
  <polygon points="109.8,-21.4 127.4,7.4 120.0,-34.7" fill="none" stroke="#e0e0e0" stroke-width="0.3"/>
  <polygon points="358.6,22.3 420.6,22.3 399.3,-42.4" fill="none" stroke="#e0e0e0" stroke-width="0.3"/>
  <polygon points="350.7,11.9 358.6,22.3 399.3,-42.4" fill="none" stroke="#e0e0e0" stroke-width="0.3"/>
  <polygon points="316.6,-21.2 350.7,11.9 399.3,-42.4" fill="none" stroke="#e0e0e0" stroke-width="0.3"/>
  <polygon points="101.2,113.0 167.4,165.5 195.2,113.0" fill="#A5D6A7" fill-opacity="0.3" stroke="#4CAF50" stroke-width="0.6" stroke-opacity="0.6"/>
  <polygon points="93.4,146.4 167.4,165.5 101.2,113.0" fill="#A5D6A7" fill-opacity="0.3" stroke="#4CAF50" stroke-width="0.6" stroke-opacity="0.6"/>
  <polygon points="167.4,165.5 93.4,146.4 103.2,189.5" fill="#A5D6A7" fill-opacity="0.3" stroke="#4CAF50" stroke-width="0.6" stroke-opacity="0.6"/>
  <polygon points="157.2,189.5 167.4,165.5 103.2,189.5" fill="#A5D6A7" fill-opacity="0.3" stroke="#4CAF50" stroke-width="0.6" stroke-opacity="0.6"/>
  <polygon points="167.4,191.5 167.4,165.5 157.2,189.5" fill="#A5D6A7" fill-opacity="0.3" stroke="#4CAF50" stroke-width="0.6" stroke-opacity="0.6"/>
  <polygon points="157.2,215.5 167.4,191.5 157.2,189.5" fill="#A5D6A7" fill-opacity="0.3" stroke="#4CAF50" stroke-width="0.6" stroke-opacity="0.6"/>
  <polygon points="187.1,247.5 167.4,191.5 157.2,215.5" fill="#A5D6A7" fill-opacity="0.3" stroke="#4CAF50" stroke-width="0.6" stroke-opacity="0.6"/>
  <polygon points="167.4,191.5 187.1,247.5 245.1,226.7" fill="#A5D6A7" fill-opacity="0.3" stroke="#4CAF50" stroke-width="0.6" stroke-opacity="0.6"/>
  <polygon points="187.1,247.5 245.1,252.7 245.1,226.7" fill="#A5D6A7" fill-opacity="0.3" stroke="#4CAF50" stroke-width="0.6" stroke-opacity="0.6"/>
  <polygon points="245.1,252.7 187.1,247.5 187.1,273.5" fill="#A5D6A7" fill-opacity="0.3" stroke="#4CAF50" stroke-width="0.6" stroke-opacity="0.6"/>
  <polygon points="245.1,252.7 187.1,273.5 188.4,280.9" fill="#A5D6A7" fill-opacity="0.3" stroke="#4CAF50" stroke-width="0.6" stroke-opacity="0.6"/>
  <polygon points="245.1,252.7 188.4,280.9 258.4,280.9" fill="#A5D6A7" fill-opacity="0.3" stroke="#4CAF50" stroke-width="0.6" stroke-opacity="0.6"/>
  <polygon points="101.2,113.0 195.2,113.0 195.2,87.0" fill="#BBDEFB" fill-opacity="0.4" stroke="#64B5F6" stroke-width="0.5"/>
  <polygon points="101.2,113.0 195.2,87.0 101.2,87.0" fill="#BBDEFB" fill-opacity="0.4" stroke="#64B5F6" stroke-width="0.5"/>
  <polygon points="258.4,280.9 188.4,306.9 258.4,306.9" fill="#BBDEFB" fill-opacity="0.4" stroke="#64B5F6" stroke-width="0.5"/>
  <polygon points="258.4,280.9 188.4,280.9 188.4,306.9" fill="#BBDEFB" fill-opacity="0.4" stroke="#64B5F6" stroke-width="0.5"/>
  <polygon points="101.2,113.0 167.4,165.5 195.2,113.0" fill="#FFB74D" fill-opacity="0.45" stroke="#E65100" stroke-width="1.2"/>
  <polygon points="195.2,113.0 211.4,98.8 195.2,87.0" fill="#FFB74D" fill-opacity="0.45" stroke="#E65100" stroke-width="1.2"/>
  <polygon points="93.4,120.4 101.2,113.0 101.2,87.0" fill="#FFB74D" fill-opacity="0.45" stroke="#E65100" stroke-width="1.2"/>
  <polygon points="118.4,79.8 101.2,87.0 195.2,87.0" fill="#FFB74D" fill-opacity="0.45" stroke="#E65100" stroke-width="1.2"/>
  <polygon points="188.4,306.9 191.4,352.8 258.4,306.9" fill="#FFB74D" fill-opacity="0.45" stroke="#E65100" stroke-width="1.2"/>
  <polygon points="258.4,280.9 258.4,306.9 267.3,286.1" fill="#FFB74D" fill-opacity="0.45" stroke="#E65100" stroke-width="1.2"/>
  <polygon points="188.4,306.9 188.4,280.9 133.1,273.5" fill="#FFB74D" fill-opacity="0.45" stroke="#E65100" stroke-width="1.2"/>
  <polygon points="245.1,252.7 188.4,280.9 258.4,280.9" fill="#FFB74D" fill-opacity="0.45" stroke="#E65100" stroke-width="1.2"/>
  <polygon points="245.1,252.7 245.1,226.7 291.1,226.7 291.1,252.7" fill="#EEEEEE" fill-opacity="0.7" stroke="#BDBDBD" stroke-width="0.5"/>
  <text x="268.1" y="239.7" text-anchor="middle" dominant-baseline="central" font-size="5" fill="#9E9E9E">BRAN</text>
  <polygon points="133.1,273.5 133.1,247.5 187.1,247.5 187.1,273.5" fill="#EEEEEE" fill-opacity="0.7" stroke="#BDBDBD" stroke-width="0.5"/>
  <text x="160.1" y="260.5" text-anchor="middle" dominant-baseline="central" font-size="5" fill="#9E9E9E">JANOS</text>
  <polygon points="71.0,248.8 71.0,222.8 109.0,222.8 109.0,248.8" fill="#EEEEEE" fill-opacity="0.7" stroke="#BDBDBD" stroke-width="0.5"/>
  <text x="90.0" y="235.8" text-anchor="middle" dominant-baseline="central" font-size="5" fill="#9E9E9E">JON</text>
  <polygon points="55.4,146.4 55.4,120.4 93.4,120.4 93.4,146.4" fill="#EEEEEE" fill-opacity="0.7" stroke="#BDBDBD" stroke-width="0.5"/>
  <text x="74.4" y="133.4" text-anchor="middle" dominant-baseline="central" font-size="5" fill="#9E9E9E">SAM</text>
  <polygon points="103.2,215.5 103.2,189.5 157.2,189.5 157.2,215.5" fill="#EEEEEE" fill-opacity="0.7" stroke="#BDBDBD" stroke-width="0.5"/>
  <text x="130.2" y="202.5" text-anchor="middle" dominant-baseline="central" font-size="5" fill="#9E9E9E">DAVOS</text>
  <polygon points="23.0,215.4 23.0,189.4 93.0,189.4 93.0,215.4" fill="#EEEEEE" fill-opacity="0.7" stroke="#BDBDBD" stroke-width="0.5"/>
  <text x="58.0" y="202.4" text-anchor="middle" dominant-baseline="central" font-size="5" fill="#9E9E9E">TORMUND</text>
  <polygon points="118.4,79.8 118.4,53.8 212.4,53.8 212.4,79.8" fill="#EEEEEE" fill-opacity="0.7" stroke="#BDBDBD" stroke-width="0.5"/>
  <text x="165.4" y="66.8" text-anchor="middle" dominant-baseline="central" font-size="5" fill="#9E9E9E">NIGHT_KING</text>
  <polygon points="302.2,198.9 302.2,172.9 356.2,172.9 356.2,198.9" fill="#EEEEEE" fill-opacity="0.7" stroke="#BDBDBD" stroke-width="0.5"/>
  <text x="329.2" y="185.9" text-anchor="middle" dominant-baseline="central" font-size="5" fill="#9E9E9E">TYCHO</text>
  <polygon points="211.4,124.8 211.4,98.8 305.4,98.8 305.4,124.8" fill="#EEEEEE" fill-opacity="0.7" stroke="#BDBDBD" stroke-width="0.5"/>
  <text x="258.4" y="111.8" text-anchor="middle" dominant-baseline="central" font-size="5" fill="#9E9E9E">YOHN_ROYCE</text>
  <polygon points="167.4,191.5 167.4,165.5 293.4,165.5 293.4,191.5" fill="#EEEEEE" fill-opacity="0.7" stroke="#BDBDBD" stroke-width="0.5"/>
  <text x="230.4" y="178.5" text-anchor="middle" dominant-baseline="central" font-size="5" fill="#9E9E9E">LYANNA_MORMONT</text>
  <polygon points="245.3,158.1 245.3,132.1 307.3,132.1 307.3,158.1" fill="#EEEEEE" fill-opacity="0.7" stroke="#BDBDBD" stroke-width="0.5"/>
  <text x="276.3" y="145.1" text-anchor="middle" dominant-baseline="central" font-size="5" fill="#9E9E9E">MAESTER_WOLKAN</text>
  <polygon points="267.3,286.1 267.3,260.1 353.3,260.1 353.3,286.1" fill="#EEEEEE" fill-opacity="0.7" stroke="#BDBDBD" stroke-width="0.5"/>
  <text x="310.3" y="273.1" text-anchor="middle" dominant-baseline="central" font-size="5" fill="#9E9E9E">VALE_LORD</text>
  <polygon points="101.2,113.0 101.2,87.0 195.2,87.0 195.2,113.0" fill="#E3F2FD" fill-opacity="0.7" stroke="#1565C0" stroke-width="1.5"/>
  <polygon points="188.4,306.9 188.4,280.9 258.4,280.9 258.4,306.9" fill="#E3F2FD" fill-opacity="0.7" stroke="#1565C0" stroke-width="1.5"/>
  <line x1="148.2" y1="100.0" x2="154.6" y2="130.5" stroke="#1565C0" stroke-width="0.8" stroke-dasharray="3,2" stroke-opacity="0.6" marker-end="url(#arrow)"/>
  <line x1="148.2" y1="100.0" x2="200.6" y2="99.6" stroke="#1565C0" stroke-width="0.8" stroke-dasharray="3,2" stroke-opacity="0.6" marker-end="url(#arrow)"/>
  <line x1="148.2" y1="100.0" x2="98.6" y2="106.8" stroke="#1565C0" stroke-width="0.8" stroke-dasharray="3,2" stroke-opacity="0.6" marker-end="url(#arrow)"/>
  <line x1="148.2" y1="100.0" x2="138.3" y2="84.6" stroke="#1565C0" stroke-width="0.8" stroke-dasharray="3,2" stroke-opacity="0.6" marker-end="url(#arrow)"/>
  <line x1="223.4" y1="293.9" x2="212.7" y2="322.2" stroke="#1565C0" stroke-width="0.8" stroke-dasharray="3,2" stroke-opacity="0.6" marker-end="url(#arrow)"/>
  <line x1="223.4" y1="293.9" x2="261.4" y2="291.3" stroke="#1565C0" stroke-width="0.8" stroke-dasharray="3,2" stroke-opacity="0.6" marker-end="url(#arrow)"/>
  <line x1="223.4" y1="293.9" x2="170.0" y2="287.1" stroke="#1565C0" stroke-width="0.8" stroke-dasharray="3,2" stroke-opacity="0.6" marker-end="url(#arrow)"/>
  <line x1="223.4" y1="293.9" x2="230.6" y2="271.5" stroke="#1565C0" stroke-width="0.8" stroke-dasharray="3,2" stroke-opacity="0.6" marker-end="url(#arrow)"/>
  <polyline points="148.2,100.0 154.6,130.5 120.7,141.7 121.3,167.2 142.6,181.5 164.0,182.2 160.6,198.9 170.5,218.2 199.9,221.9 225.8,242.3 206.4,257.9 206.9,269.0 230.6,271.5 230.6,271.5 223.4,293.9" fill="none" stroke="#D32F2F" stroke-width="2.5" stroke-opacity="0.85" stroke-linejoin="round"/>
  <circle cx="154.6" cy="130.5" r="2.5" fill="#E65100" stroke="white" stroke-width="0.5"/>
  <circle cx="200.6" cy="99.6" r="2.5" fill="#E65100" stroke="white" stroke-width="0.5"/>
  <circle cx="98.6" cy="106.8" r="2.5" fill="#E65100" stroke="white" stroke-width="0.5"/>
  <circle cx="138.3" cy="84.6" r="2.5" fill="#E65100" stroke="white" stroke-width="0.5"/>
  <circle cx="212.7" cy="322.2" r="2.5" fill="#E65100" stroke="white" stroke-width="0.5"/>
  <circle cx="261.4" cy="291.3" r="2.5" fill="#E65100" stroke="white" stroke-width="0.5"/>
  <circle cx="170.0" cy="287.1" r="2.5" fill="#E65100" stroke="white" stroke-width="0.5"/>
  <circle cx="230.6" cy="271.5" r="2.5" fill="#E65100" stroke="white" stroke-width="0.5"/>
  <circle cx="148.2" cy="100.0" r="3.5" fill="#D32F2F" stroke="white" stroke-width="1"/>
  <circle cx="223.4" cy="293.9" r="3.5" fill="#D32F2F" stroke="white" stroke-width="1"/>
  <text x="148.2" y="88.0" text-anchor="middle" font-size="8" font-weight="bold" fill="#0D47A1">MELISANDRE</text>
  <text x="223.4" y="281.9" text-anchor="middle" font-size="8" font-weight="bold" fill="#0D47A1">STANNIS</text>
  <rect x="8" y="328.926523098869" width="150" height="60" fill="white" fill-opacity="0.92" stroke="#ccc" stroke-width="0.5" rx="3"/>
  <rect x="13" y="333.926523098869" width="10" height="8" fill="#FFB74D" fill-opacity="0.5" stroke="#E65100" stroke-width="0.8"/>
  <text x="28" y="340.926523098869" font-size="6" fill="#333">portal triangle</text>
  <rect x="13" y="345.926523098869" width="10" height="8" fill="#A5D6A7" fill-opacity="0.4" stroke="#4CAF50" stroke-width="0.8"/>
  <text x="28" y="352.926523098869" font-size="6" fill="#333">free-space corridor</text>
  <line x1="13" y1="361.926523098869" x2="23" y2="361.926523098869" stroke="#1565C0" stroke-width="0.8" stroke-dasharray="3,2"/>
  <text x="28" y="364.926523098869" font-size="6" fill="#333">interior edge (BFS)</text>
  <line x1="13" y1="372.926523098869" x2="23" y2="372.926523098869" stroke="#D32F2F" stroke-width="2.5"/>
  <text x="28" y="375.926523098869" font-size="6" fill="#333">shortest path (HL query)</text>
  <circle cx="18" cy="383.926523098869" r="2.5" fill="#D32F2F"/>
  <text x="28" y="385.926523098869" font-size="6" fill="#333">node center</text>
  <circle cx="83" cy="383.926523098869" r="2" fill="#E65100"/>
  <text x="90" y="385.926523098869" font-size="6" fill="#333">portal centroid</text>
</svg>
