<?xml version="1.0" encoding="UTF-8" standalone="no"?>
<!-- Created with Inkscape (http://www.inkscape.org/) -->

<svg
   version="1.1"
   id="svg176"
   width="539.94666"
   height="365.88199"
   viewBox="0 0 539.94666 365.88202"
   sodipodi:docname="yao.svg"
   inkscape:version="1.2.1 (9c6d41e410, 2022-07-14)"
   xmlns:inkscape="http://www.inkscape.org/namespaces/inkscape"
   xmlns:sodipodi="http://sodipodi.sourceforge.net/DTD/sodipodi-0.dtd"
   xmlns="http://www.w3.org/2000/svg"
   xmlns:svg="http://www.w3.org/2000/svg">
  <defs
     id="defs180" />
  <sodipodi:namedview
     id="namedview178"
     pagecolor="#ffffff"
     bordercolor="#000000"
     borderopacity="0.25"
     inkscape:showpageshadow="2"
     inkscape:pageopacity="0.0"
     inkscape:pagecheckerboard="0"
     inkscape:deskcolor="#d1d1d1"
     showgrid="false"
     inkscape:zoom="0.91490607"
     inkscape:cx="270.51957"
     inkscape:cy="187.99744"
     inkscape:window-width="3840"
     inkscape:window-height="2054"
     inkscape:window-x="-11"
     inkscape:window-y="-11"
     inkscape:window-maximized="1"
     inkscape:current-layer="g184">
    <inkscape:page
       x="0"
       y="0"
       id="page182"
       width="539.94666"
       height="365.88202" />
  </sodipodi:namedview>
  <g
     id="g184"
     inkscape:groupmode="layer"
     inkscape:label="Page 1"
     transform="matrix(1.3333333,0,0,1.3333333,-88.917331,-372.26332)">
    <g
       id="g188">
      <path
         d="M 93.293,389.852 268.602,491.066"
         style="fill:none;stroke:#000000;stroke-width:0.675;stroke-linecap:butt;stroke-linejoin:miter;stroke-miterlimit:4;stroke-dasharray:none;stroke-opacity:1"
         id="path190" />
    </g>
    <g
       id="g192">
      <path
         d="M 167.504,315.688 268.719,491"
         style="fill:none;stroke:#000000;stroke-width:0.675;stroke-linecap:butt;stroke-linejoin:miter;stroke-miterlimit:4;stroke-dasharray:none;stroke-opacity:1"
         id="path194" />
    </g>
    <g
       id="g196">
      <path
         d="M 268.555,491.484 369.77,666.793"
         style="fill:none;stroke:#000000;stroke-width:0.675;stroke-linecap:butt;stroke-linejoin:miter;stroke-miterlimit:4;stroke-dasharray:none;stroke-opacity:1"
         id="path198" />
    </g>
    <g
       id="g200">
      <path
         d="m 268.785,289.953 v 202.43"
         style="fill:none;stroke:#000000;stroke-width:0.675;stroke-linecap:butt;stroke-linejoin:miter;stroke-miterlimit:4;stroke-dasharray:none;stroke-opacity:1"
         id="path202" />
    </g>
    <g
       id="g204">
      <path
         d="M 268.617,491.43 V 693.859"
         style="fill:none;stroke:#000000;stroke-width:0.675;stroke-linecap:butt;stroke-linejoin:miter;stroke-miterlimit:4;stroke-dasharray:none;stroke-opacity:1"
         id="path206" />
    </g>
    <g
       id="g208">
      <path
         d="M 370.18,315.852 268.965,491.16"
         style="fill:none;stroke:#000000;stroke-width:0.675;stroke-linecap:butt;stroke-linejoin:miter;stroke-miterlimit:4;stroke-dasharray:none;stroke-opacity:1"
         id="path210" />
    </g>
    <g
       id="g212">
      <path
         d="M 268.285,491.641 167.07,666.949"
         style="fill:none;stroke:#000000;stroke-width:0.675;stroke-linecap:butt;stroke-linejoin:miter;stroke-miterlimit:4;stroke-dasharray:none;stroke-opacity:1"
         id="path214" />
    </g>
    <g
       id="g216">
      <path
         d="M 268.879,491.484 93.57,592.699"
         style="fill:none;stroke:#000000;stroke-width:0.675;stroke-linecap:butt;stroke-linejoin:miter;stroke-miterlimit:4;stroke-dasharray:none;stroke-opacity:1"
         id="path218" />
    </g>
    <g
       id="g220">
      <path
         d="M 269.117,491.414 H 66.688"
         style="fill:none;stroke:#000000;stroke-width:0.675;stroke-linecap:butt;stroke-linejoin:miter;stroke-miterlimit:4;stroke-dasharray:none;stroke-opacity:1"
         id="path222" />
    </g>
    <g
       id="g224">
      <path
         d="M 471.648,491.418 H 269.219"
         style="fill:none;stroke:#000000;stroke-width:0.675;stroke-linecap:butt;stroke-linejoin:miter;stroke-miterlimit:4;stroke-dasharray:none;stroke-opacity:1"
         id="path226" />
    </g>
    <g
       id="g228">
      <path
         d="M 444.023,592.82 268.715,491.605"
         style="fill:none;stroke:#000000;stroke-width:0.675;stroke-linecap:butt;stroke-linejoin:miter;stroke-miterlimit:4;stroke-dasharray:none;stroke-opacity:1"
         id="path230" />
    </g>
    <g
       id="g232">
      <path
         d="M 444.262,390.164 268.953,491.383"
         style="fill:none;stroke:#000000;stroke-width:0.675;stroke-linecap:butt;stroke-linejoin:miter;stroke-miterlimit:4;stroke-dasharray:none;stroke-opacity:1"
         id="path234" />
    </g>
    <g
       id="g236">
      <path
         d="m 200.02,284.66 c 0,2.828 -2.2,5.125 -4.918,5.125 -2.715,0 -4.918,-2.297 -4.918,-5.125 0,-2.828 2.203,-5.125 4.918,-5.125 2.718,0 4.918,2.297 4.918,5.125 z"
         style="fill:none;stroke:#000000;stroke-width:0.675;stroke-linecap:butt;stroke-linejoin:miter;stroke-miterlimit:4;stroke-dasharray:none;stroke-opacity:1"
         id="path238" />
    </g>
    <g
       id="g240">
      <path
         d="m 245.105,299.621 c 0,2.828 -2.199,5.125 -4.917,5.125 -2.715,0 -4.918,-2.297 -4.918,-5.125 0,-2.828 2.203,-5.125 4.918,-5.125 2.718,0 4.917,2.297 4.917,5.125 z"
         style="fill:none;stroke:#000000;stroke-width:0.675;stroke-linecap:butt;stroke-linejoin:miter;stroke-miterlimit:4;stroke-dasharray:none;stroke-opacity:1"
         id="path242" />
    </g>
    <g
       id="g244">
      <path
         d="m 245.105,299.621 c 0,2.828 -2.199,5.125 -4.917,5.125 -2.715,0 -4.918,-2.297 -4.918,-5.125 0,-2.828 2.203,-5.125 4.918,-5.125 2.718,0 4.917,2.297 4.917,5.125 z"
         style="fill:none;stroke:#000000;stroke-width:0.675;stroke-linecap:butt;stroke-linejoin:miter;stroke-miterlimit:4;stroke-dasharray:none;stroke-opacity:1"
         id="path246" />
    </g>
    <g
       id="g248">
      <path
         d="m 361.695,289.828 c 0,2.828 -2.199,5.121 -4.918,5.121 -2.714,0 -4.918,-2.293 -4.918,-5.121 0,-2.832 2.204,-5.125 4.918,-5.125 2.719,0 4.918,2.293 4.918,5.125 z"
         style="fill:none;stroke:#000000;stroke-width:0.675;stroke-linecap:butt;stroke-linejoin:miter;stroke-miterlimit:4;stroke-dasharray:none;stroke-opacity:1"
         id="path250" />
    </g>
    <g
       id="g252">
      <path
         d="m 222.973,368.891 c 0,2.828 -2.2,5.125 -4.918,5.125 -2.715,0 -4.918,-2.297 -4.918,-5.125 0,-2.828 2.203,-5.125 4.918,-5.125 2.718,0 4.918,2.297 4.918,5.125 z"
         style="fill:none;stroke:#000000;stroke-width:0.675;stroke-linecap:butt;stroke-linejoin:miter;stroke-miterlimit:4;stroke-dasharray:none;stroke-opacity:1"
         id="path254" />
    </g>
    <g
       id="g256">
      <path
         d="m 326.672,299.211 c 0,2.828 -2.199,5.125 -4.918,5.125 -2.715,0 -4.918,-2.297 -4.918,-5.125 0,-2.828 2.203,-5.125 4.918,-5.125 2.719,0 4.918,2.297 4.918,5.125 z"
         style="fill:none;stroke:#000000;stroke-width:0.675;stroke-linecap:butt;stroke-linejoin:miter;stroke-miterlimit:4;stroke-dasharray:none;stroke-opacity:1"
         id="path258" />
    </g>
    <g
       id="g264">
      <path
         d="M 269.395,491.258 217.93,369.094"
         style="fill:none;stroke:#000000;stroke-width:2.37543;stroke-linecap:butt;stroke-linejoin:miter;stroke-miterlimit:4;stroke-dasharray:9.50173, 2.37543;stroke-dashoffset:0;stroke-opacity:1"
         id="path266" />
    </g>
    <g
       id="g268">
      <path
         d="m 269.684,490.605 52.171,-192.3"
         style="fill:none;stroke:#000000;stroke-width:2.37543;stroke-linecap:butt;stroke-linejoin:miter;stroke-miterlimit:4;stroke-dasharray:9.50173, 2.37543;stroke-dashoffset:0;stroke-opacity:1"
         id="path270" />
    </g>
  </g>
</svg>
